<svg width="152" height="128" viewBox="0 0 152 128" fill="none" xmlns="http://www.w3.org/2000/svg">
<rect width="128" height="128" rx="51.2" fill="#1D222B"/>
<g opacity="0.2">
<circle cx="64" cy="64" r="46.375" fill="#0FA958" stroke="black" stroke-width="5.25"/>
<circle cx="64" cy="64" r="34.125" fill="#FFF4D9" stroke="black" stroke-width="5.25"/>
<path d="M63.125 85.8544C52.3833 85.3485 42.6515 75.6167 42.1456 64.875" stroke="black" stroke-width="5.25" stroke-linecap="round"/>
<path d="M61.375 45.625V61.375C61.375 64.2745 63.7255 66.625 66.625 66.625H79.75" stroke="black" stroke-width="5.25" stroke-linejoin="round"/>
<path d="M54.375 50.875C57.875 47.375 59.625 45.625 61.375 45.625C63.125 45.625 64.875 47.375 68.375 50.875" stroke="black" stroke-width="5.25" stroke-linecap="round"/>
<path d="M77.125 59.625C80.625 63.125 82.375 64.875 82.375 66.625C82.375 68.375 80.625 70.125 77.125 73.625" stroke="black" stroke-width="5.25" stroke-linecap="round"/>
</g>
<path d="M12.6818 73.1591C11.7917 73.1591 11.0265 73 10.3864 72.6818C9.74621 72.3636 9.27462 71.9261 8.97159 71.3693C8.66856 70.8125 8.57197 70.1742 8.68182 69.4545H11.75C11.697 69.8523 11.7992 70.1723 12.0568 70.4148C12.3144 70.6534 12.6515 70.7727 13.0682 70.7727C13.3977 70.7727 13.697 70.7045 13.9659 70.5682C14.2348 70.428 14.4602 70.233 14.642 69.983C14.8239 69.7292 14.9432 69.4318 15 69.0909C15.0568 68.75 15.036 68.4545 14.9375 68.2045C14.839 67.9508 14.678 67.7557 14.4545 67.6193C14.2311 67.4792 13.9583 67.4091 13.6364 67.4091C13.2992 67.4091 12.9773 67.4905 12.6705 67.6534C12.3636 67.8125 12.1174 68.0341 11.9318 68.3182L9.25 67.7727L10.7727 61.3636H18.5909L18.1818 63.8864H12.9545L12.2955 66.4545H12.3636C12.6061 66.1023 12.9697 65.8106 13.4545 65.5795C13.9432 65.3447 14.4811 65.2273 15.0682 65.2273C15.7614 65.2273 16.3523 65.3883 16.8409 65.7102C17.3295 66.0322 17.6837 66.4773 17.9034 67.0455C18.1231 67.6136 18.1705 68.2652 18.0455 69C17.9205 69.8106 17.6136 70.5284 17.125 71.1534C16.6364 71.7784 16.0114 72.2689 15.25 72.625C14.4886 72.9811 13.6326 73.1591 12.6818 73.1591ZM31.1977 64.2727L29.7432 73H26.8114L28.2659 64.2727H31.1977ZM29.0614 67.8864L28.675 70.2273C28.5614 70.2955 28.3682 70.3636 28.0954 70.4318C27.8265 70.4962 27.5462 70.5511 27.2545 70.5966C26.9629 70.6383 26.7242 70.6591 26.5386 70.6591C25.1106 70.6591 24.0386 70.4053 23.3227 69.8977C22.6068 69.3902 22.3454 68.5455 22.5386 67.3636L23.0614 64.2727H25.9704L25.4477 67.3636C25.406 67.6288 25.4117 67.8295 25.4648 67.9659C25.5216 68.1023 25.6617 68.1951 25.8852 68.2443C26.1125 68.2936 26.4591 68.3182 26.925 68.3182C27.2129 68.3182 27.5273 68.2841 27.8682 68.2159C28.2129 68.1439 28.6106 68.0341 29.0614 67.8864ZM33.4805 73.1364C32.9275 73.1364 32.4521 73.0455 32.0544 72.8636C31.6604 72.678 31.3726 72.3977 31.1907 72.0227C31.0127 71.6439 30.9729 71.1667 31.0714 70.5909C31.151 70.1136 31.3006 69.7064 31.5203 69.3693C31.74 69.0322 32.0127 68.7557 32.3385 68.5398C32.6642 68.3239 33.0298 68.1591 33.4351 68.0455C33.8442 67.928 34.276 67.8523 34.7305 67.8182C35.2229 67.7803 35.6226 67.733 35.9294 67.6761C36.2362 67.6193 36.4654 67.5417 36.6169 67.4432C36.7684 67.3447 36.8593 67.2121 36.8896 67.0455V67.0227C36.9237 66.7955 36.8631 66.6212 36.7078 66.5C36.5563 66.3788 36.3442 66.3182 36.0714 66.3182C35.776 66.3182 35.5203 66.3826 35.3044 66.5114C35.0923 66.6402 34.9464 66.8409 34.8669 67.1136H31.9805C32.1017 66.5833 32.3498 66.0947 32.7248 65.6477C33.1036 65.197 33.6055 64.8371 34.2305 64.5682C34.8593 64.2955 35.6093 64.1591 36.4805 64.1591C37.1017 64.1591 37.6472 64.233 38.1169 64.3807C38.5866 64.5246 38.9748 64.7273 39.2817 64.9886C39.5923 65.2462 39.8101 65.5492 39.9351 65.8977C40.0639 66.2424 40.0942 66.6174 40.026 67.0227L39.026 73H36.0942L36.2987 71.7727H36.2305C36.0032 72.0985 35.7476 72.3617 35.4635 72.5625C35.1832 72.7633 34.8764 72.9091 34.543 73C34.2135 73.0909 33.8593 73.1364 33.4805 73.1364ZM34.8442 71.1591C35.079 71.1591 35.3101 71.1098 35.5373 71.0114C35.7646 70.9129 35.9597 70.7708 36.1226 70.5852C36.2854 70.3996 36.3896 70.1742 36.4351 69.9091L36.5487 69.1818C36.4654 69.2159 36.3726 69.2481 36.2703 69.2784C36.1718 69.3049 36.0676 69.3314 35.9578 69.358C35.8517 69.3845 35.7381 69.4091 35.6169 69.4318C35.4995 69.4545 35.3782 69.4773 35.2532 69.5C35.0032 69.5379 34.793 69.6004 34.6226 69.6875C34.4521 69.7708 34.3195 69.875 34.2248 70C34.1301 70.1212 34.0714 70.2576 34.0487 70.4091C34.0146 70.6477 34.0695 70.8333 34.2135 70.9659C34.3612 71.0947 34.5714 71.1591 34.8442 71.1591ZM44.5304 73.1591C43.5834 73.1591 42.8031 72.9716 42.1895 72.5966C41.5758 72.2178 41.1459 71.6913 40.8997 71.017C40.6535 70.339 40.6061 69.553 40.7576 68.6591C40.9016 67.7652 41.2084 66.9811 41.6781 66.3068C42.1516 65.6288 42.7576 65.1023 43.4963 64.7273C44.2387 64.3485 45.0834 64.1591 46.0304 64.1591C46.8864 64.1591 47.6004 64.3144 48.1724 64.625C48.7482 64.9318 49.1592 65.3674 49.4054 65.9318C49.6554 66.4924 49.7198 67.1515 49.5986 67.9091H46.6895C46.7236 67.4545 46.6497 67.1061 46.4679 66.8636C46.2898 66.6212 46.0304 66.5 45.6895 66.5C45.4092 66.5 45.1516 66.5795 44.9167 66.7386C44.6857 66.8939 44.4868 67.1307 44.3201 67.4489C44.1573 67.7633 44.0379 68.1591 43.9622 68.6364C43.8864 69.1136 43.877 69.5114 43.9338 69.8295C43.9944 70.1439 44.1118 70.3807 44.2861 70.5398C44.4641 70.6951 44.6895 70.7727 44.9622 70.7727C45.197 70.7727 45.4129 70.7197 45.6099 70.6136C45.8107 70.5038 45.983 70.3447 46.127 70.1364C46.2747 69.9242 46.3864 69.6667 46.4622 69.3636H49.3713C49.2273 70.1364 48.9376 70.8068 48.502 71.375C48.0664 71.9432 47.5114 72.3826 46.8372 72.6932C46.1629 73.0038 45.394 73.1591 44.5304 73.1591ZM54.0575 73.1591C53.1105 73.1591 52.3302 72.9716 51.7166 72.5966C51.1067 72.2178 50.6787 71.6913 50.4325 71.017C50.1863 70.339 50.137 69.553 50.2848 68.6591C50.4325 67.7652 50.7412 66.9811 51.2109 66.3068C51.6806 65.6288 52.2848 65.1023 53.0234 64.7273C53.762 64.3485 54.6067 64.1591 55.5575 64.1591C56.5007 64.1591 57.2772 64.3485 57.887 64.7273C58.5007 65.1023 58.9306 65.6288 59.1768 66.3068C59.4268 66.9811 59.4779 67.7652 59.3302 68.6591C59.1825 69.553 58.8719 70.339 58.3984 71.017C57.9249 71.6913 57.3189 72.2178 56.5802 72.5966C55.8454 72.9716 55.0045 73.1591 54.0575 73.1591ZM54.4439 70.8409C54.7166 70.8409 54.9647 70.7519 55.1882 70.5739C55.4154 70.3958 55.6086 70.142 55.7677 69.8125C55.9306 69.483 56.0499 69.0909 56.1257 68.6364C56.2014 68.178 56.2128 67.786 56.1598 67.4602C56.1067 67.1307 55.9969 66.8769 55.8302 66.6989C55.6636 66.5208 55.4439 66.4318 55.1711 66.4318C54.8984 66.4318 54.6484 66.5208 54.4211 66.6989C54.1939 66.8769 54.0007 67.1307 53.8416 67.4602C53.6825 67.786 53.5651 68.178 53.4893 68.6364C53.4136 69.0909 53.4003 69.483 53.4495 69.8125C53.5026 70.142 53.6124 70.3958 53.7791 70.5739C53.9495 70.7519 54.1711 70.8409 54.4439 70.8409ZM59.7224 73L61.177 64.2727H64.9951C66.1618 64.2727 67.0482 64.4716 67.6542 64.8693C68.2603 65.267 68.4951 65.8636 68.3588 66.6591C68.2906 67.0909 68.0406 67.4735 67.6088 67.8068C67.177 68.1402 66.5936 68.3636 65.8588 68.4773C66.5141 68.5076 67.0292 68.6288 67.4042 68.8409C67.783 69.0492 68.0425 69.3106 68.1826 69.625C68.3228 69.9356 68.3663 70.2576 68.3133 70.5909C68.2262 71.1212 68.0084 71.5663 67.6599 71.9261C67.3114 72.2822 66.8417 72.5511 66.2508 72.733C65.6599 72.911 64.9535 73 64.1315 73H59.7224ZM62.9951 70.7955H64.4951C64.7527 70.7955 64.9648 70.7348 65.1315 70.6136C65.2982 70.4924 65.3966 70.3258 65.427 70.1136C65.4686 69.8939 65.4251 69.7216 65.2963 69.5966C65.1713 69.4716 64.98 69.4091 64.7224 69.4091H63.2224L62.9951 70.7955ZM63.4951 67.8182H64.4951C64.658 67.8182 64.8001 67.7936 64.9213 67.7443C65.0463 67.6913 65.1485 67.6174 65.2281 67.5227C65.3076 67.428 65.3588 67.3144 65.3815 67.1818C65.4118 66.9811 65.3569 66.8258 65.2167 66.7159C65.0804 66.6023 64.8777 66.5455 64.6088 66.5455H63.6997L63.4951 67.8182ZM70.7027 73.1818C70.2595 73.1818 69.8977 73.0284 69.6174 72.7216C69.3409 72.411 69.2254 72.0341 69.2708 71.5909C69.3163 71.1591 69.5114 70.7898 69.8561 70.483C70.2045 70.1761 70.6004 70.0227 71.0436 70.0227C71.464 70.0227 71.8144 70.1761 72.0947 70.483C72.3788 70.7898 72.4981 71.1591 72.4527 71.5909C72.4223 71.8864 72.3182 72.1553 72.1402 72.3977C71.9659 72.6364 71.75 72.8277 71.4924 72.9716C71.2386 73.1117 70.9754 73.1818 70.7027 73.1818ZM76.0183 71.1818L76.4274 68.7273L82.3364 61.3636H84.5637L84.0183 64.6364H82.7455L79.5637 68.6364L79.541 68.7273H86.4501L86.041 71.1818H76.0183ZM81.3819 73L81.8137 70.4318L82.0637 69.3636L83.3819 61.3636H86.3364L84.4046 73H81.3819ZM91.8721 73.1591C91.1751 73.1591 90.5331 73.0473 89.946 72.8239C89.3588 72.6004 88.8645 72.25 88.463 71.7727C88.0615 71.2917 87.7869 70.6705 87.6391 69.9091C87.4914 69.1477 87.5085 68.2311 87.6903 67.1591C87.8456 66.2311 88.1013 65.4015 88.4573 64.6705C88.8134 63.9356 89.2509 63.3106 89.7698 62.7955C90.2888 62.2765 90.874 61.8826 91.5255 61.6136C92.177 61.3409 92.8759 61.2045 93.6221 61.2045C94.4857 61.2045 95.2225 61.3674 95.8323 61.6932C96.446 62.0152 96.9081 62.4508 97.2187 63C97.5293 63.5455 97.6638 64.1515 97.6221 64.8182H94.5539C94.5539 64.4811 94.4422 64.2424 94.2187 64.1023C93.9952 63.9583 93.7282 63.8864 93.4175 63.8864C92.7319 63.8864 92.1694 64.1894 91.73 64.7955C91.2907 65.3977 90.9819 66.1705 90.8039 67.1136L90.8948 66.9545C91.1032 66.5985 91.3721 66.2992 91.7016 66.0568C92.035 65.8144 92.4024 65.6307 92.8039 65.5057C93.2092 65.3807 93.6259 65.3182 94.0539 65.3182C94.7774 65.3182 95.3853 65.4848 95.8778 65.8182C96.3702 66.1515 96.7206 66.608 96.9289 67.1875C97.1372 67.767 97.1789 68.4242 97.0539 69.1591C96.9213 69.9697 96.6145 70.6742 96.1335 71.2727C95.6524 71.8712 95.0444 72.3352 94.3096 72.6648C93.5747 72.9943 92.7622 73.1591 91.8721 73.1591ZM91.9857 70.7727C92.3228 70.7727 92.6372 70.6951 92.9289 70.5398C93.2244 70.3807 93.4706 70.1648 93.6675 69.892C93.8645 69.6155 93.9857 69.303 94.0312 68.9545C94.0766 68.6591 94.0539 68.3996 93.963 68.1761C93.8759 67.9489 93.7319 67.7727 93.5312 67.6477C93.3304 67.5189 93.0804 67.4545 92.7812 67.4545C92.535 67.4545 92.2982 67.5 92.071 67.5909C91.8437 67.6818 91.6372 67.8087 91.4516 67.9716C91.266 68.1345 91.1107 68.3277 90.9857 68.5511C90.8607 68.7708 90.7774 69.0114 90.7357 69.2727C90.6941 69.5795 90.7187 69.8447 90.8096 70.0682C90.9005 70.2917 91.0463 70.4659 91.2471 70.5909C91.4516 70.7121 91.6978 70.7727 91.9857 70.7727ZM102.695 73.3182C101.634 73.3182 100.757 73.0758 100.064 72.5909C99.3708 72.1023 98.8916 71.4015 98.6265 70.4886C98.3613 69.5758 98.3386 68.4811 98.5583 67.2045C98.778 65.9242 99.17 64.8371 99.7344 63.9432C100.303 63.0492 101.007 62.3693 101.848 61.9034C102.693 61.4375 103.642 61.2045 104.695 61.2045C105.748 61.2045 106.619 61.4375 107.308 61.9034C107.998 62.3693 108.477 63.0492 108.746 63.9432C109.015 64.8333 109.043 65.9205 108.831 67.2045C108.619 68.4848 108.229 69.5814 107.661 70.4943C107.096 71.4072 106.39 72.1061 105.541 72.5909C104.697 73.0758 103.748 73.3182 102.695 73.3182ZM103.126 70.75C103.672 70.75 104.161 70.4659 104.592 69.8977C105.028 69.3258 105.35 68.428 105.558 67.2045C105.695 66.4091 105.727 65.7576 105.655 65.25C105.583 64.7386 105.428 64.3617 105.189 64.1193C104.95 63.8731 104.649 63.75 104.286 63.75C103.74 63.75 103.244 64.0284 102.797 64.5852C102.354 65.1383 102.032 66.0114 101.831 67.2045C101.695 68.0227 101.664 68.6932 101.74 69.2159C101.816 69.7386 101.975 70.125 102.217 70.375C102.46 70.625 102.763 70.75 103.126 70.75ZM119.286 69.1364H112.899L113.309 66.6818H119.581C119.987 66.6818 120.326 66.6326 120.598 66.5341C120.875 66.4318 121.089 66.2841 121.24 66.0909C121.396 65.8939 121.494 65.6515 121.536 65.3636C121.585 65.0909 121.568 64.8409 121.485 64.6136C121.405 64.3864 121.256 64.2045 121.036 64.0682C120.82 63.9318 120.532 63.8636 120.172 63.8636H118.445L116.922 73H113.786L115.718 61.3636H120.581C121.54 61.3636 122.35 61.5322 123.013 61.8693C123.68 62.2064 124.163 62.6723 124.462 63.267C124.765 63.8617 124.85 64.5455 124.718 65.3182C124.585 66.1515 124.265 66.8523 123.757 67.4205C123.25 67.9848 122.61 68.4129 121.837 68.7045C121.064 68.9924 120.214 69.1364 119.286 69.1364ZM120.013 69.6591L119.604 72.1136H112.422L112.831 69.6591H120.013Z" fill="#FFA629"/>
</svg>
