<svg width="129" height="128" viewBox="0 0 129 128" fill="none" xmlns="http://www.w3.org/2000/svg">
<rect width="128" height="128" rx="51.2" fill="#1D222B"/>
<g opacity="0.4" filter="url(#filter0_f_99_78)">
<circle cx="64" cy="64" r="46.375" fill="#0FA958" stroke="black" stroke-width="5.25"/>
<circle cx="64" cy="64" r="34.125" fill="#FFF4D9" stroke="black" stroke-width="5.25"/>
<path d="M63.125 85.8544C52.3833 85.3485 42.6515 75.6167 42.1456 64.875" stroke="black" stroke-width="5.25" stroke-linecap="round"/>
<path d="M61.375 45.625V61.375C61.375 64.2745 63.7255 66.625 66.625 66.625H79.75" stroke="black" stroke-width="5.25" stroke-linejoin="round"/>
<path d="M54.375 50.875C57.875 47.375 59.625 45.625 61.375 45.625C63.125 45.625 64.875 47.375 68.375 50.875" stroke="black" stroke-width="5.25" stroke-linecap="round"/>
<path d="M77.125 59.625C80.625 63.125 82.375 64.875 82.375 66.625C82.375 68.375 80.625 70.125 77.125 73.625" stroke="black" stroke-width="5.25" stroke-linecap="round"/>
</g>
<g filter="url(#filter1_d_99_78)">
<path d="M41.1192 35.8182L38.1008 54H33.1647L35.4374 40.3636H35.3309L30.963 42.7429L31.6377 38.5526L36.5738 35.8182H41.1192ZM61.2857 40.3636L59.013 54H54.432L56.7047 40.3636H61.2857ZM57.9476 46.0099L57.3439 49.6676C57.1664 49.7741 56.8645 49.8807 56.4384 49.9872C56.0182 50.0878 55.5802 50.1737 55.1245 50.2447C54.6687 50.3098 54.2959 50.3423 54.0059 50.3423C51.7746 50.3423 50.0996 49.9458 48.981 49.1527C47.8624 48.3596 47.454 47.0398 47.7559 45.1932L48.5726 40.3636H53.1181L52.3013 45.1932C52.2362 45.6075 52.2451 45.9212 52.3279 46.1342C52.4167 46.3473 52.6357 46.4923 52.9849 46.5692C53.34 46.6462 53.8816 46.6847 54.6096 46.6847C55.0594 46.6847 55.5506 46.6314 56.0833 46.5249C56.6219 46.4124 57.2433 46.2408 57.9476 46.0099ZM64.8526 54.2131C63.9885 54.2131 63.2457 54.071 62.6242 53.7869C62.0087 53.4969 61.5589 53.0589 61.2748 52.473C60.9966 51.8812 60.9345 51.1354 61.0884 50.2358C61.2127 49.4901 61.4464 48.8538 61.7897 48.3271C62.133 47.8003 62.5591 47.3683 63.0681 47.0309C63.5771 46.6935 64.1483 46.4361 64.7816 46.2585C65.4208 46.075 66.0955 45.9567 66.8057 45.9034C67.5751 45.8442 68.1995 45.7702 68.6789 45.6815C69.1583 45.5927 69.5164 45.4714 69.7531 45.3175C69.9899 45.1636 70.1319 44.9564 70.1793 44.696V44.6605C70.2325 44.3054 70.1378 44.0331 69.8952 43.8438C69.6584 43.6544 69.327 43.5597 68.9009 43.5597C68.4392 43.5597 68.0397 43.6603 67.7024 43.8615C67.3709 44.0627 67.1431 44.3764 67.0188 44.8026H62.5088C62.6982 43.974 63.0859 43.2105 63.6718 42.5121C64.2637 41.8078 65.0479 41.2455 66.0244 40.8253C67.0069 40.3991 68.1788 40.1861 69.5401 40.1861C70.5107 40.1861 71.363 40.3015 72.0969 40.5323C72.8308 40.7572 73.4374 41.0739 73.9168 41.4822C74.4022 41.8847 74.7425 42.3582 74.9378 42.9027C75.139 43.4413 75.1864 44.0272 75.0798 44.6605L73.5173 54H68.9364L69.256 52.0824H69.1494C68.7943 52.5914 68.3948 53.0027 67.9509 53.3164C67.513 53.6301 67.0336 53.858 66.5127 54C65.9978 54.142 65.4444 54.2131 64.8526 54.2131ZM66.9833 51.1236C67.3502 51.1236 67.7112 51.0466 68.0664 50.8928C68.4215 50.7389 68.7263 50.5169 68.9808 50.2269C69.2353 49.9369 69.398 49.5848 69.4691 49.1705L69.6466 48.0341C69.5164 48.0874 69.3714 48.1377 69.2116 48.185C69.0577 48.2264 68.895 48.2679 68.7233 48.3093C68.5576 48.3507 68.38 48.3892 68.1906 48.4247C68.0072 48.4602 67.8178 48.4957 67.6225 48.5312C67.2318 48.5904 66.9034 48.6881 66.637 48.8242C66.3707 48.9544 66.1635 49.1172 66.0156 49.3125C65.8676 49.5019 65.7759 49.715 65.7404 49.9517C65.6871 50.3246 65.7729 50.6146 65.9978 50.8217C66.2286 51.023 66.5571 51.1236 66.9833 51.1236ZM82.118 54.2486C80.6383 54.2486 79.4191 53.9556 78.4603 53.3697C77.5015 52.7778 76.8297 51.9551 76.445 50.9016C76.0603 49.8422 75.9863 48.6141 76.2231 47.2173C76.448 45.8205 76.9274 44.5954 77.6613 43.5419C78.4011 42.4825 79.3481 41.6598 80.5022 41.0739C81.6622 40.482 82.9821 40.1861 84.4617 40.1861C85.7993 40.1861 86.915 40.4287 87.8087 40.9141C88.7083 41.3935 89.3505 42.0741 89.7352 42.956C90.1258 43.8319 90.2264 44.8617 90.037 46.0455H85.4915C85.5448 45.3352 85.4294 44.7907 85.1453 44.4119C84.8671 44.0331 84.4617 43.8438 83.929 43.8438C83.4911 43.8438 83.0886 43.968 82.7217 44.2166C82.3606 44.4593 82.0499 44.8292 81.7895 45.3263C81.535 45.8176 81.3486 46.4361 81.2302 47.1818C81.1118 47.9276 81.097 48.549 81.1858 49.0462C81.2805 49.5374 81.464 49.9073 81.7362 50.1559C82.0144 50.3986 82.3665 50.5199 82.7927 50.5199C83.1596 50.5199 83.497 50.437 83.8048 50.2713C84.1184 50.0997 84.3877 49.8511 84.6126 49.5256C84.8435 49.1941 85.0181 48.7917 85.1364 48.3182H89.6819C89.457 49.5256 89.0042 50.5732 88.3236 51.4609C87.6429 52.3487 86.7759 53.0353 85.7224 53.5206C84.6689 54.0059 83.4674 54.2486 82.118 54.2486ZM93.2399 54.2841C92.5474 54.2841 91.9822 54.0444 91.5442 53.565C91.1122 53.0797 90.9317 52.4908 91.0027 51.7983C91.0737 51.1236 91.3785 50.5465 91.9171 50.0671C92.4616 49.5877 93.0801 49.348 93.7726 49.348C94.4295 49.348 94.977 49.5877 95.415 50.0671C95.8589 50.5465 96.0453 51.1236 95.9743 51.7983C95.9269 52.2599 95.7642 52.6802 95.486 53.0589C95.2137 53.4318 94.8764 53.7307 94.4739 53.9556C94.0774 54.1746 93.666 54.2841 93.2399 54.2841ZM41.1192 73.8182L38.1008 92H33.1647L35.4374 78.3636H35.3309L30.963 80.7429L31.6377 76.5526L36.5738 73.8182H41.1192ZM41.5589 92L42.1449 88.4489L49.8686 82.8381C50.3835 82.4652 50.8274 82.116 51.2002 81.7905C51.579 81.459 51.8838 81.1187 52.1147 80.7695C52.3455 80.4203 52.4964 80.0327 52.5674 79.6065C52.6444 79.139 52.6089 78.7395 52.4609 78.408C52.3189 78.0707 52.088 77.8132 51.7684 77.6357C51.4488 77.4581 51.0641 77.3693 50.6143 77.3693C50.1586 77.3693 49.7413 77.4611 49.3625 77.6445C48.9837 77.828 48.6671 78.0973 48.4126 78.4524C48.164 78.8075 47.9983 79.2396 47.9154 79.7486H43.2279C43.441 78.4702 43.9115 77.3693 44.6395 76.446C45.3734 75.5227 46.3026 74.8125 47.4272 74.3153C48.5576 73.8182 49.8271 73.5696 51.2358 73.5696C52.6917 73.5696 53.9169 73.8034 54.9112 74.271C55.9055 74.7326 56.6246 75.3836 57.0685 76.2241C57.5183 77.0645 57.6456 78.05 57.4502 79.1804C57.3319 79.8788 57.0685 80.5713 56.6601 81.2578C56.2577 81.9444 55.6096 82.7079 54.7159 83.5483C53.8281 84.3828 52.597 85.3771 51.0227 86.5312L49.0873 87.9517L49.0696 88.0582H56.1718L55.5149 92H41.5589ZM65.294 92.4972C63.6368 92.4972 62.2667 92.1184 61.1836 91.3608C60.1005 90.5973 59.3518 89.5024 58.9375 88.076C58.5232 86.6496 58.4877 84.9392 58.831 82.9446C59.1742 80.9441 59.7868 79.2455 60.6687 77.8487C61.5565 76.4519 62.6573 75.3896 63.9712 74.6616C65.2911 73.9336 66.7737 73.5696 68.419 73.5696C70.0644 73.5696 71.4257 73.9336 72.5028 74.6616C73.58 75.3896 74.3287 76.4519 74.7489 77.8487C75.1692 79.2396 75.2135 80.9382 74.8821 82.9446C74.5507 84.9451 73.9411 86.6585 73.0533 88.0849C72.1714 89.5112 71.0676 90.6032 69.7418 91.3608C68.422 92.1184 66.9394 92.4972 65.294 92.4972ZM65.9688 88.4844C66.821 88.4844 67.5845 88.0405 68.2592 87.1527C68.9399 86.259 69.4429 84.8563 69.7685 82.9446C69.9815 81.7017 70.0318 80.6837 69.9194 79.8906C69.8069 79.0916 69.5643 78.5027 69.1914 78.1239C68.8185 77.7392 68.348 77.5469 67.7798 77.5469C66.9276 77.5469 66.1522 77.9819 65.4538 78.8519C64.7614 79.716 64.2583 81.0803 63.9446 82.9446C63.7315 84.223 63.6842 85.2706 63.8026 86.0874C63.9209 86.9041 64.1695 87.5078 64.5483 87.8984C64.9271 88.2891 65.4006 88.4844 65.9688 88.4844ZM91.2178 85.9631H81.2391L81.8783 82.1278H91.6794C92.3127 82.1278 92.8424 82.0509 93.2685 81.897C93.7006 81.7372 94.035 81.5064 94.2717 81.2045C94.5144 80.8968 94.6683 80.518 94.7334 80.0682C94.8103 79.642 94.7837 79.2514 94.6535 78.8963C94.5292 78.5412 94.2954 78.2571 93.9521 78.044C93.6148 77.831 93.165 77.7244 92.6027 77.7244H89.9038L87.5246 92H82.624L85.6425 73.8182H93.2419C94.7393 73.8182 96.0059 74.0816 97.0416 74.6083C98.0833 75.1351 98.8379 75.863 99.3055 76.7923C99.779 77.7215 99.9121 78.7898 99.705 79.9972C99.4978 81.2992 98.9977 82.3942 98.2046 83.282C97.4115 84.1638 96.4113 84.8326 95.2039 85.2884C93.9965 85.7382 92.6678 85.9631 91.2178 85.9631ZM92.3541 86.7798L91.7149 90.6151H80.4933L81.1325 86.7798H92.3541Z" fill="#FF9500"/>
</g>
<rect width="128" height="128" rx="51.2" fill="#1D222B"/>
<g opacity="0.4" filter="url(#filter2_f_99_78)">
<circle cx="64" cy="64" r="46.375" fill="#0FA958" stroke="black" stroke-width="5.25"/>
<circle cx="64" cy="64" r="34.125" fill="#FFF4D9" stroke="black" stroke-width="5.25"/>
<path d="M63.125 85.8544C52.3833 85.3485 42.6515 75.6167 42.1456 64.875" stroke="black" stroke-width="5.25" stroke-linecap="round"/>
<path d="M61.375 45.625V61.375C61.375 64.2745 63.7255 66.625 66.625 66.625H79.75" stroke="black" stroke-width="5.25" stroke-linejoin="round"/>
<path d="M54.375 50.875C57.875 47.375 59.625 45.625 61.375 45.625C63.125 45.625 64.875 47.375 68.375 50.875" stroke="black" stroke-width="5.25" stroke-linecap="round"/>
<path d="M77.125 59.625C80.625 63.125 82.375 64.875 82.375 66.625C82.375 68.375 80.625 70.125 77.125 73.625" stroke="black" stroke-width="5.25" stroke-linecap="round"/>
</g>
<g filter="url(#filter3_d_99_78)">
<path d="M41.1192 35.8182L38.1008 54H33.1647L35.4374 40.3636H35.3309L30.963 42.7429L31.6377 38.5526L36.5738 35.8182H41.1192ZM61.2857 40.3636L59.013 54H54.432L56.7047 40.3636H61.2857ZM57.9476 46.0099L57.3439 49.6676C57.1664 49.7741 56.8645 49.8807 56.4384 49.9872C56.0182 50.0878 55.5802 50.1737 55.1245 50.2447C54.6687 50.3098 54.2959 50.3423 54.0059 50.3423C51.7746 50.3423 50.0996 49.9458 48.981 49.1527C47.8624 48.3596 47.454 47.0398 47.7559 45.1932L48.5726 40.3636H53.1181L52.3013 45.1932C52.2362 45.6075 52.2451 45.9212 52.3279 46.1342C52.4167 46.3473 52.6357 46.4923 52.9849 46.5692C53.34 46.6462 53.8816 46.6847 54.6096 46.6847C55.0594 46.6847 55.5506 46.6314 56.0833 46.5249C56.6219 46.4124 57.2433 46.2408 57.9476 46.0099ZM64.8526 54.2131C63.9885 54.2131 63.2457 54.071 62.6242 53.7869C62.0087 53.4969 61.5589 53.0589 61.2748 52.473C60.9966 51.8812 60.9345 51.1354 61.0884 50.2358C61.2127 49.4901 61.4464 48.8538 61.7897 48.3271C62.133 47.8003 62.5591 47.3683 63.0681 47.0309C63.5771 46.6935 64.1483 46.4361 64.7816 46.2585C65.4208 46.075 66.0955 45.9567 66.8057 45.9034C67.5751 45.8442 68.1995 45.7702 68.6789 45.6815C69.1583 45.5927 69.5164 45.4714 69.7531 45.3175C69.9899 45.1636 70.1319 44.9564 70.1793 44.696V44.6605C70.2325 44.3054 70.1378 44.0331 69.8952 43.8438C69.6584 43.6544 69.327 43.5597 68.9009 43.5597C68.4392 43.5597 68.0397 43.6603 67.7024 43.8615C67.3709 44.0627 67.1431 44.3764 67.0188 44.8026H62.5088C62.6982 43.974 63.0859 43.2105 63.6718 42.5121C64.2637 41.8078 65.0479 41.2455 66.0244 40.8253C67.0069 40.3991 68.1788 40.1861 69.5401 40.1861C70.5107 40.1861 71.363 40.3015 72.0969 40.5323C72.8308 40.7572 73.4374 41.0739 73.9168 41.4822C74.4022 41.8847 74.7425 42.3582 74.9378 42.9027C75.139 43.4413 75.1864 44.0272 75.0798 44.6605L73.5173 54H68.9364L69.256 52.0824H69.1494C68.7943 52.5914 68.3948 53.0027 67.9509 53.3164C67.513 53.6301 67.0336 53.858 66.5127 54C65.9978 54.142 65.4444 54.2131 64.8526 54.2131ZM66.9833 51.1236C67.3502 51.1236 67.7112 51.0466 68.0664 50.8928C68.4215 50.7389 68.7263 50.5169 68.9808 50.2269C69.2353 49.9369 69.398 49.5848 69.4691 49.1705L69.6466 48.0341C69.5164 48.0874 69.3714 48.1377 69.2116 48.185C69.0577 48.2264 68.895 48.2679 68.7233 48.3093C68.5576 48.3507 68.38 48.3892 68.1906 48.4247C68.0072 48.4602 67.8178 48.4957 67.6225 48.5312C67.2318 48.5904 66.9034 48.6881 66.637 48.8242C66.3707 48.9544 66.1635 49.1172 66.0156 49.3125C65.8676 49.5019 65.7759 49.715 65.7404 49.9517C65.6871 50.3246 65.7729 50.6146 65.9978 50.8217C66.2286 51.023 66.5571 51.1236 66.9833 51.1236ZM82.118 54.2486C80.6383 54.2486 79.4191 53.9556 78.4603 53.3697C77.5015 52.7778 76.8297 51.9551 76.445 50.9016C76.0603 49.8422 75.9863 48.6141 76.2231 47.2173C76.448 45.8205 76.9274 44.5954 77.6613 43.5419C78.4011 42.4825 79.3481 41.6598 80.5022 41.0739C81.6622 40.482 82.9821 40.1861 84.4617 40.1861C85.7993 40.1861 86.915 40.4287 87.8087 40.9141C88.7083 41.3935 89.3505 42.0741 89.7352 42.956C90.1258 43.8319 90.2264 44.8617 90.037 46.0455H85.4915C85.5448 45.3352 85.4294 44.7907 85.1453 44.4119C84.8671 44.0331 84.4617 43.8438 83.929 43.8438C83.4911 43.8438 83.0886 43.968 82.7217 44.2166C82.3606 44.4593 82.0499 44.8292 81.7895 45.3263C81.535 45.8176 81.3486 46.4361 81.2302 47.1818C81.1118 47.9276 81.097 48.549 81.1858 49.0462C81.2805 49.5374 81.464 49.9073 81.7362 50.1559C82.0144 50.3986 82.3665 50.5199 82.7927 50.5199C83.1596 50.5199 83.497 50.437 83.8048 50.2713C84.1184 50.0997 84.3877 49.8511 84.6126 49.5256C84.8435 49.1941 85.0181 48.7917 85.1364 48.3182H89.6819C89.457 49.5256 89.0042 50.5732 88.3236 51.4609C87.6429 52.3487 86.7759 53.0353 85.7224 53.5206C84.6689 54.0059 83.4674 54.2486 82.118 54.2486ZM93.2399 54.2841C92.5474 54.2841 91.9822 54.0444 91.5442 53.565C91.1122 53.0797 90.9317 52.4908 91.0027 51.7983C91.0737 51.1236 91.3785 50.5465 91.9171 50.0671C92.4616 49.5877 93.0801 49.348 93.7726 49.348C94.4295 49.348 94.977 49.5877 95.415 50.0671C95.8589 50.5465 96.0453 51.1236 95.9743 51.7983C95.9269 52.2599 95.7642 52.6802 95.486 53.0589C95.2137 53.4318 94.8764 53.7307 94.4739 53.9556C94.0774 54.1746 93.666 54.2841 93.2399 54.2841ZM41.1192 73.8182L38.1008 92H33.1647L35.4374 78.3636H35.3309L30.963 80.7429L31.6377 76.5526L36.5738 73.8182H41.1192ZM41.5589 92L42.1449 88.4489L49.8686 82.8381C50.3835 82.4652 50.8274 82.116 51.2002 81.7905C51.579 81.459 51.8838 81.1187 52.1147 80.7695C52.3455 80.4203 52.4964 80.0327 52.5674 79.6065C52.6444 79.139 52.6089 78.7395 52.4609 78.408C52.3189 78.0707 52.088 77.8132 51.7684 77.6357C51.4488 77.4581 51.0641 77.3693 50.6143 77.3693C50.1586 77.3693 49.7413 77.4611 49.3625 77.6445C48.9837 77.828 48.6671 78.0973 48.4126 78.4524C48.164 78.8075 47.9983 79.2396 47.9154 79.7486H43.2279C43.441 78.4702 43.9115 77.3693 44.6395 76.446C45.3734 75.5227 46.3026 74.8125 47.4272 74.3153C48.5576 73.8182 49.8271 73.5696 51.2358 73.5696C52.6917 73.5696 53.9169 73.8034 54.9112 74.271C55.9055 74.7326 56.6246 75.3836 57.0685 76.2241C57.5183 77.0645 57.6456 78.05 57.4502 79.1804C57.3319 79.8788 57.0685 80.5713 56.6601 81.2578C56.2577 81.9444 55.6096 82.7079 54.7159 83.5483C53.8281 84.3828 52.597 85.3771 51.0227 86.5312L49.0873 87.9517L49.0696 88.0582H56.1718L55.5149 92H41.5589ZM65.294 92.4972C63.6368 92.4972 62.2667 92.1184 61.1836 91.3608C60.1005 90.5973 59.3518 89.5024 58.9375 88.076C58.5232 86.6496 58.4877 84.9392 58.831 82.9446C59.1742 80.9441 59.7868 79.2455 60.6687 77.8487C61.5565 76.4519 62.6573 75.3896 63.9712 74.6616C65.2911 73.9336 66.7737 73.5696 68.419 73.5696C70.0644 73.5696 71.4257 73.9336 72.5028 74.6616C73.58 75.3896 74.3287 76.4519 74.7489 77.8487C75.1692 79.2396 75.2135 80.9382 74.8821 82.9446C74.5507 84.9451 73.9411 86.6585 73.0533 88.0849C72.1714 89.5112 71.0676 90.6032 69.7418 91.3608C68.422 92.1184 66.9394 92.4972 65.294 92.4972ZM65.9688 88.4844C66.821 88.4844 67.5845 88.0405 68.2592 87.1527C68.9399 86.259 69.4429 84.8563 69.7685 82.9446C69.9815 81.7017 70.0318 80.6837 69.9194 79.8906C69.8069 79.0916 69.5643 78.5027 69.1914 78.1239C68.8185 77.7392 68.348 77.5469 67.7798 77.5469C66.9276 77.5469 66.1522 77.9819 65.4538 78.8519C64.7614 79.716 64.2583 81.0803 63.9446 82.9446C63.7315 84.223 63.6842 85.2706 63.8026 86.0874C63.9209 86.9041 64.1695 87.5078 64.5483 87.8984C64.9271 88.2891 65.4006 88.4844 65.9688 88.4844ZM91.2178 85.9631H81.2391L81.8783 82.1278H91.6794C92.3127 82.1278 92.8424 82.0509 93.2685 81.897C93.7006 81.7372 94.035 81.5064 94.2717 81.2045C94.5144 80.8968 94.6683 80.518 94.7334 80.0682C94.8103 79.642 94.7837 79.2514 94.6535 78.8963C94.5292 78.5412 94.2954 78.2571 93.9521 78.044C93.6148 77.831 93.165 77.7244 92.6027 77.7244H89.9038L87.5246 92H82.624L85.6425 73.8182H93.2419C94.7393 73.8182 96.0059 74.0816 97.0416 74.6083C98.0833 75.1351 98.8379 75.863 99.3055 76.7923C99.779 77.7215 99.9121 78.7898 99.705 79.9972C99.4978 81.2992 98.9977 82.3942 98.2046 83.282C97.4115 84.1638 96.4113 84.8326 95.2039 85.2884C93.9965 85.7382 92.6678 85.9631 91.2178 85.9631ZM92.3541 86.7798L91.7149 90.6151H80.4933L81.1325 86.7798H92.3541Z" fill="#FF9500"/>
</g>
<rect width="128" height="128" rx="51.2" fill="#1D222B"/>
<g opacity="0.4" filter="url(#filter4_f_99_78)">
<circle cx="64" cy="64" r="46.375" fill="#0FA958" stroke="black" stroke-width="5.25"/>
<circle cx="64" cy="64" r="34.125" fill="#FFF4D9" stroke="black" stroke-width="5.25"/>
<path d="M63.125 85.8544C52.3833 85.3485 42.6515 75.6167 42.1456 64.875" stroke="black" stroke-width="5.25" stroke-linecap="round"/>
<path d="M61.375 45.625V61.375C61.375 64.2745 63.7255 66.625 66.625 66.625H79.75" stroke="black" stroke-width="5.25" stroke-linejoin="round"/>
<path d="M54.375 50.875C57.875 47.375 59.625 45.625 61.375 45.625C63.125 45.625 64.875 47.375 68.375 50.875" stroke="black" stroke-width="5.25" stroke-linecap="round"/>
<path d="M77.125 59.625C80.625 63.125 82.375 64.875 82.375 66.625C82.375 68.375 80.625 70.125 77.125 73.625" stroke="black" stroke-width="5.25" stroke-linecap="round"/>
</g>
<g filter="url(#filter5_d_99_78)">
<path d="M41.1192 35.8182L38.1008 54H33.1647L35.4374 40.3636H35.3309L30.963 42.7429L31.6377 38.5526L36.5738 35.8182H41.1192ZM61.2857 40.3636L59.013 54H54.432L56.7047 40.3636H61.2857ZM57.9476 46.0099L57.3439 49.6676C57.1664 49.7741 56.8645 49.8807 56.4384 49.9872C56.0182 50.0878 55.5802 50.1737 55.1245 50.2447C54.6687 50.3098 54.2959 50.3423 54.0059 50.3423C51.7746 50.3423 50.0996 49.9458 48.981 49.1527C47.8624 48.3596 47.454 47.0398 47.7559 45.1932L48.5726 40.3636H53.1181L52.3013 45.1932C52.2362 45.6075 52.2451 45.9212 52.3279 46.1342C52.4167 46.3473 52.6357 46.4923 52.9849 46.5692C53.34 46.6462 53.8816 46.6847 54.6096 46.6847C55.0594 46.6847 55.5506 46.6314 56.0833 46.5249C56.6219 46.4124 57.2433 46.2408 57.9476 46.0099ZM64.8526 54.2131C63.9885 54.2131 63.2457 54.071 62.6242 53.7869C62.0087 53.4969 61.5589 53.0589 61.2748 52.473C60.9966 51.8812 60.9345 51.1354 61.0884 50.2358C61.2127 49.4901 61.4464 48.8538 61.7897 48.3271C62.133 47.8003 62.5591 47.3683 63.0681 47.0309C63.5771 46.6935 64.1483 46.4361 64.7816 46.2585C65.4208 46.075 66.0955 45.9567 66.8057 45.9034C67.5751 45.8442 68.1995 45.7702 68.6789 45.6815C69.1583 45.5927 69.5164 45.4714 69.7531 45.3175C69.9899 45.1636 70.1319 44.9564 70.1793 44.696V44.6605C70.2325 44.3054 70.1378 44.0331 69.8952 43.8438C69.6584 43.6544 69.327 43.5597 68.9009 43.5597C68.4392 43.5597 68.0397 43.6603 67.7024 43.8615C67.3709 44.0627 67.1431 44.3764 67.0188 44.8026H62.5088C62.6982 43.974 63.0859 43.2105 63.6718 42.5121C64.2637 41.8078 65.0479 41.2455 66.0244 40.8253C67.0069 40.3991 68.1788 40.1861 69.5401 40.1861C70.5107 40.1861 71.363 40.3015 72.0969 40.5323C72.8308 40.7572 73.4374 41.0739 73.9168 41.4822C74.4022 41.8847 74.7425 42.3582 74.9378 42.9027C75.139 43.4413 75.1864 44.0272 75.0798 44.6605L73.5173 54H68.9364L69.256 52.0824H69.1494C68.7943 52.5914 68.3948 53.0027 67.9509 53.3164C67.513 53.6301 67.0336 53.858 66.5127 54C65.9978 54.142 65.4444 54.2131 64.8526 54.2131ZM66.9833 51.1236C67.3502 51.1236 67.7112 51.0466 68.0664 50.8928C68.4215 50.7389 68.7263 50.5169 68.9808 50.2269C69.2353 49.9369 69.398 49.5848 69.4691 49.1705L69.6466 48.0341C69.5164 48.0874 69.3714 48.1377 69.2116 48.185C69.0577 48.2264 68.895 48.2679 68.7233 48.3093C68.5576 48.3507 68.38 48.3892 68.1906 48.4247C68.0072 48.4602 67.8178 48.4957 67.6225 48.5312C67.2318 48.5904 66.9034 48.6881 66.637 48.8242C66.3707 48.9544 66.1635 49.1172 66.0156 49.3125C65.8676 49.5019 65.7759 49.715 65.7404 49.9517C65.6871 50.3246 65.7729 50.6146 65.9978 50.8217C66.2286 51.023 66.5571 51.1236 66.9833 51.1236ZM82.118 54.2486C80.6383 54.2486 79.4191 53.9556 78.4603 53.3697C77.5015 52.7778 76.8297 51.9551 76.445 50.9016C76.0603 49.8422 75.9863 48.6141 76.2231 47.2173C76.448 45.8205 76.9274 44.5954 77.6613 43.5419C78.4011 42.4825 79.3481 41.6598 80.5022 41.0739C81.6622 40.482 82.9821 40.1861 84.4617 40.1861C85.7993 40.1861 86.915 40.4287 87.8087 40.9141C88.7083 41.3935 89.3505 42.0741 89.7352 42.956C90.1258 43.8319 90.2264 44.8617 90.037 46.0455H85.4915C85.5448 45.3352 85.4294 44.7907 85.1453 44.4119C84.8671 44.0331 84.4617 43.8438 83.929 43.8438C83.4911 43.8438 83.0886 43.968 82.7217 44.2166C82.3606 44.4593 82.0499 44.8292 81.7895 45.3263C81.535 45.8176 81.3486 46.4361 81.2302 47.1818C81.1118 47.9276 81.097 48.549 81.1858 49.0462C81.2805 49.5374 81.464 49.9073 81.7362 50.1559C82.0144 50.3986 82.3665 50.5199 82.7927 50.5199C83.1596 50.5199 83.497 50.437 83.8048 50.2713C84.1184 50.0997 84.3877 49.8511 84.6126 49.5256C84.8435 49.1941 85.0181 48.7917 85.1364 48.3182H89.6819C89.457 49.5256 89.0042 50.5732 88.3236 51.4609C87.6429 52.3487 86.7759 53.0353 85.7224 53.5206C84.6689 54.0059 83.4674 54.2486 82.118 54.2486ZM93.2399 54.2841C92.5474 54.2841 91.9822 54.0444 91.5442 53.565C91.1122 53.0797 90.9317 52.4908 91.0027 51.7983C91.0737 51.1236 91.3785 50.5465 91.9171 50.0671C92.4616 49.5877 93.0801 49.348 93.7726 49.348C94.4295 49.348 94.977 49.5877 95.415 50.0671C95.8589 50.5465 96.0453 51.1236 95.9743 51.7983C95.9269 52.2599 95.7642 52.6802 95.486 53.0589C95.2137 53.4318 94.8764 53.7307 94.4739 53.9556C94.0774 54.1746 93.666 54.2841 93.2399 54.2841ZM41.1192 73.8182L38.1008 92H33.1647L35.4374 78.3636H35.3309L30.963 80.7429L31.6377 76.5526L36.5738 73.8182H41.1192ZM41.5589 92L42.1449 88.4489L49.8686 82.8381C50.3835 82.4652 50.8274 82.116 51.2002 81.7905C51.579 81.459 51.8838 81.1187 52.1147 80.7695C52.3455 80.4203 52.4964 80.0327 52.5674 79.6065C52.6444 79.139 52.6089 78.7395 52.4609 78.408C52.3189 78.0707 52.088 77.8132 51.7684 77.6357C51.4488 77.4581 51.0641 77.3693 50.6143 77.3693C50.1586 77.3693 49.7413 77.4611 49.3625 77.6445C48.9837 77.828 48.6671 78.0973 48.4126 78.4524C48.164 78.8075 47.9983 79.2396 47.9154 79.7486H43.2279C43.441 78.4702 43.9115 77.3693 44.6395 76.446C45.3734 75.5227 46.3026 74.8125 47.4272 74.3153C48.5576 73.8182 49.8271 73.5696 51.2358 73.5696C52.6917 73.5696 53.9169 73.8034 54.9112 74.271C55.9055 74.7326 56.6246 75.3836 57.0685 76.2241C57.5183 77.0645 57.6456 78.05 57.4502 79.1804C57.3319 79.8788 57.0685 80.5713 56.6601 81.2578C56.2577 81.9444 55.6096 82.7079 54.7159 83.5483C53.8281 84.3828 52.597 85.3771 51.0227 86.5312L49.0873 87.9517L49.0696 88.0582H56.1718L55.5149 92H41.5589ZM65.294 92.4972C63.6368 92.4972 62.2667 92.1184 61.1836 91.3608C60.1005 90.5973 59.3518 89.5024 58.9375 88.076C58.5232 86.6496 58.4877 84.9392 58.831 82.9446C59.1742 80.9441 59.7868 79.2455 60.6687 77.8487C61.5565 76.4519 62.6573 75.3896 63.9712 74.6616C65.2911 73.9336 66.7737 73.5696 68.419 73.5696C70.0644 73.5696 71.4257 73.9336 72.5028 74.6616C73.58 75.3896 74.3287 76.4519 74.7489 77.8487C75.1692 79.2396 75.2135 80.9382 74.8821 82.9446C74.5507 84.9451 73.9411 86.6585 73.0533 88.0849C72.1714 89.5112 71.0676 90.6032 69.7418 91.3608C68.422 92.1184 66.9394 92.4972 65.294 92.4972ZM65.9688 88.4844C66.821 88.4844 67.5845 88.0405 68.2592 87.1527C68.9399 86.259 69.4429 84.8563 69.7685 82.9446C69.9815 81.7017 70.0318 80.6837 69.9194 79.8906C69.8069 79.0916 69.5643 78.5027 69.1914 78.1239C68.8185 77.7392 68.348 77.5469 67.7798 77.5469C66.9276 77.5469 66.1522 77.9819 65.4538 78.8519C64.7614 79.716 64.2583 81.0803 63.9446 82.9446C63.7315 84.223 63.6842 85.2706 63.8026 86.0874C63.9209 86.9041 64.1695 87.5078 64.5483 87.8984C64.9271 88.2891 65.4006 88.4844 65.9688 88.4844ZM91.2178 85.9631H81.2391L81.8783 82.1278H91.6794C92.3127 82.1278 92.8424 82.0509 93.2685 81.897C93.7006 81.7372 94.035 81.5064 94.2717 81.2045C94.5144 80.8968 94.6683 80.518 94.7334 80.0682C94.8103 79.642 94.7837 79.2514 94.6535 78.8963C94.5292 78.5412 94.2954 78.2571 93.9521 78.044C93.6148 77.831 93.165 77.7244 92.6027 77.7244H89.9038L87.5246 92H82.624L85.6425 73.8182H93.2419C94.7393 73.8182 96.0059 74.0816 97.0416 74.6083C98.0833 75.1351 98.8379 75.863 99.3055 76.7923C99.779 77.7215 99.9121 78.7898 99.705 79.9972C99.4978 81.2992 98.9977 82.3942 98.2046 83.282C97.4115 84.1638 96.4113 84.8326 95.2039 85.2884C93.9965 85.7382 92.6678 85.9631 91.2178 85.9631ZM92.3541 86.7798L91.7149 90.6151H80.4933L81.1325 86.7798H92.3541Z" fill="#FF9500"/>
</g>
<rect x="1" width="128" height="128" rx="51.2" fill="#1D222B"/>
<g opacity="0.2" filter="url(#filter6_b_99_78)">
<circle cx="65" cy="64" r="46.375" fill="#0FA958" stroke="black" stroke-width="5.25"/>
<circle cx="65" cy="64" r="34.125" fill="#FFF4D9" stroke="black" stroke-width="5.25"/>
<path d="M64.125 85.8544C53.3833 85.3485 43.6515 75.6167 43.1456 64.875" stroke="black" stroke-width="5.25" stroke-linecap="round"/>
<path d="M62.375 45.625V61.375C62.375 64.2745 64.7255 66.625 67.625 66.625H80.75" stroke="black" stroke-width="5.25" stroke-linejoin="round"/>
<path d="M55.375 50.875C58.875 47.375 60.625 45.625 62.375 45.625C64.125 45.625 65.875 47.375 69.375 50.875" stroke="black" stroke-width="5.25" stroke-linecap="round"/>
<path d="M78.125 59.625C81.625 63.125 83.375 64.875 83.375 66.625C83.375 68.375 81.625 70.125 78.125 73.625" stroke="black" stroke-width="5.25" stroke-linecap="round"/>
</g>
<g filter="url(#filter7_b_99_78)">
<path d="M22.3153 52.2486C20.9245 52.2486 19.7289 52 18.7287 51.5028C17.7285 51.0057 16.9916 50.3221 16.5181 49.4521C16.0446 48.582 15.8937 47.5848 16.0653 46.4602H20.8594C20.7765 47.0817 20.9363 47.5818 21.3388 47.9606C21.7412 48.3335 22.268 48.5199 22.919 48.5199C23.4339 48.5199 23.9015 48.4134 24.3217 48.2003C24.742 47.9813 25.0941 47.6765 25.3782 47.2859C25.6623 46.8893 25.8487 46.4247 25.9375 45.892C26.0263 45.3594 25.9937 44.8977 25.8398 44.5071C25.686 44.1106 25.4344 43.8058 25.0852 43.5927C24.736 43.3737 24.3099 43.2642 23.8068 43.2642C23.2801 43.2642 22.777 43.3915 22.2976 43.646C21.8182 43.8945 21.4335 44.2408 21.1435 44.6847L16.9531 43.8324L19.3324 33.8182H31.5483L30.9091 37.7599H22.7415L21.7116 41.7727H21.8182C22.197 41.2223 22.7652 40.7666 23.5227 40.4055C24.2862 40.0386 25.1267 39.8551 26.044 39.8551C27.1271 39.8551 28.0504 40.1067 28.8139 40.6097C29.5774 41.1128 30.1308 41.8082 30.4741 42.696C30.8174 43.5838 30.8913 44.6018 30.696 45.75C30.5007 47.0166 30.0213 48.1381 29.2578 49.1147C28.4943 50.0913 27.5178 50.8577 26.3281 51.4141C25.1385 51.9704 23.8009 52.2486 22.3153 52.2486ZM51.2464 38.3636L48.9737 52H44.3927L46.6655 38.3636H51.2464ZM47.9084 44.0099L47.3047 47.6676C47.1271 47.7741 46.8253 47.8807 46.3991 47.9872C45.9789 48.0878 45.5409 48.1737 45.0852 48.2447C44.6295 48.3098 44.2566 48.3423 43.9666 48.3423C41.7353 48.3423 40.0604 47.9458 38.9417 47.1527C37.8231 46.3596 37.4148 45.0398 37.7166 43.1932L38.5334 38.3636H43.0788L42.2621 43.1932C42.197 43.6075 42.2058 43.9212 42.2887 44.1342C42.3775 44.3473 42.5965 44.4923 42.9457 44.5692C43.3008 44.6462 43.8423 44.6847 44.5703 44.6847C45.0201 44.6847 45.5113 44.6314 46.044 44.5249C46.5826 44.4124 47.2041 44.2408 47.9084 44.0099ZM54.8133 52.2131C53.9492 52.2131 53.2064 52.071 52.585 51.7869C51.9694 51.4969 51.5196 51.0589 51.2355 50.473C50.9574 49.8812 50.8952 49.1354 51.0491 48.2358C51.1734 47.4901 51.4072 46.8538 51.7505 46.3271C52.0937 45.8003 52.5199 45.3683 53.0289 45.0309C53.5379 44.6935 54.109 44.4361 54.7423 44.2585C55.3815 44.075 56.0562 43.9567 56.7664 43.9034C57.5359 43.8442 58.1603 43.7702 58.6397 43.6815C59.1191 43.5927 59.4771 43.4714 59.7139 43.3175C59.9506 43.1636 60.0927 42.9564 60.14 42.696V42.6605C60.1933 42.3054 60.0986 42.0331 59.8559 41.8438C59.6192 41.6544 59.2877 41.5597 58.8616 41.5597C58.4 41.5597 58.0005 41.6603 57.6631 41.8615C57.3317 42.0627 57.1038 42.3764 56.9795 42.8026H52.4696C52.659 41.974 53.0466 41.2105 53.6326 40.5121C54.2244 39.8078 55.0086 39.2455 55.9852 38.8253C56.9677 38.3991 58.1395 38.1861 59.5008 38.1861C60.4715 38.1861 61.3237 38.3015 62.0576 38.5323C62.7915 38.7572 63.3982 39.0739 63.8776 39.4822C64.3629 39.8847 64.7032 40.3582 64.8985 40.9027C65.0998 41.4413 65.1471 42.0272 65.0406 42.6605L63.4781 52H58.8971L59.2167 50.0824H59.1102C58.7551 50.5914 58.3556 51.0027 57.9117 51.3164C57.4737 51.6301 56.9943 51.858 56.4735 52C55.9586 52.142 55.4052 52.2131 54.8133 52.2131ZM56.944 49.1236C57.3109 49.1236 57.672 49.0466 58.0271 48.8928C58.3822 48.7389 58.687 48.5169 58.9415 48.2269C59.196 47.9369 59.3588 47.5848 59.4298 47.1705L59.6074 46.0341C59.4771 46.0874 59.3321 46.1377 59.1723 46.185C59.0185 46.2264 58.8557 46.2679 58.6841 46.3093C58.5183 46.3507 58.3408 46.3892 58.1514 46.4247C57.9679 46.4602 57.7785 46.4957 57.5832 46.5312C57.1926 46.5904 56.8641 46.6881 56.5978 46.8242C56.3314 46.9544 56.1243 47.1172 55.9763 47.3125C55.8283 47.5019 55.7366 47.715 55.7011 47.9517C55.6478 48.3246 55.7337 48.6146 55.9586 48.8217C56.1894 49.023 56.5179 49.1236 56.944 49.1236ZM72.0787 52.2486C70.5991 52.2486 69.3798 51.9556 68.421 51.3697C67.4622 50.7778 66.7905 49.9551 66.4058 48.9016C66.0211 47.8422 65.9471 46.6141 66.1838 45.2173C66.4087 43.8205 66.8881 42.5954 67.622 41.5419C68.3619 40.4825 69.3088 39.6598 70.4629 39.0739C71.623 38.482 72.9428 38.1861 74.4225 38.1861C75.7601 38.1861 76.8757 38.4287 77.7694 38.9141C78.669 39.3935 79.3112 40.0741 79.6959 40.956C80.0865 41.8319 80.1871 42.8617 79.9977 44.0455H75.4523C75.5056 43.3352 75.3901 42.7907 75.1061 42.4119C74.8279 42.0331 74.4225 41.8438 73.8898 41.8438C73.4518 41.8438 73.0494 41.968 72.6824 42.2166C72.3214 42.4593 72.0106 42.8292 71.7502 43.3263C71.4957 43.8176 71.3093 44.4361 71.1909 45.1818C71.0726 45.9276 71.0578 46.549 71.1465 47.0462C71.2412 47.5374 71.4247 47.9073 71.697 48.1559C71.9751 48.3986 72.3273 48.5199 72.7534 48.5199C73.1204 48.5199 73.4577 48.437 73.7655 48.2713C74.0792 48.0997 74.3485 47.8511 74.5734 47.5256C74.8042 47.1941 74.9788 46.7917 75.0972 46.3182H79.6426C79.4177 47.5256 78.965 48.5732 78.2843 49.4609C77.6037 50.3487 76.7366 51.0353 75.6831 51.5206C74.6296 52.0059 73.4281 52.2486 72.0787 52.2486ZM86.9648 52.2486C85.4852 52.2486 84.266 51.9556 83.3072 51.3697C82.3543 50.7778 81.6855 49.9551 81.3008 48.9016C80.9161 47.8422 80.8391 46.6141 81.07 45.2173C81.3008 43.8205 81.7831 42.5954 82.517 41.5419C83.2509 40.4825 84.195 39.6598 85.3491 39.0739C86.5032 38.482 87.823 38.1861 89.3086 38.1861C90.7823 38.1861 91.9956 38.482 92.9485 39.0739C93.9073 39.6598 94.5791 40.4825 94.9638 41.5419C95.3544 42.5954 95.4343 43.8205 95.2035 45.2173C94.9727 46.6141 94.4873 47.8422 93.7475 48.9016C93.0077 49.9551 92.0607 50.7778 90.9066 51.3697C89.7584 51.9556 88.4445 52.2486 86.9648 52.2486ZM87.5685 48.6264C87.9947 48.6264 88.3823 48.4873 88.7315 48.2092C89.0866 47.931 89.3885 47.5344 89.6371 47.0195C89.8916 46.5046 90.078 45.892 90.1964 45.1818C90.3147 44.4657 90.3325 43.8531 90.2496 43.3441C90.1668 42.8292 89.9951 42.4326 89.7347 42.1545C89.4743 41.8763 89.131 41.7372 88.7049 41.7372C88.2788 41.7372 87.8881 41.8763 87.533 42.1545C87.1779 42.4326 86.8761 42.8292 86.6275 43.3441C86.3789 43.8531 86.1954 44.4657 86.0771 45.1818C85.9587 45.892 85.938 46.5046 86.0149 47.0195C86.0978 47.5344 86.2694 47.931 86.5298 48.2092C86.7962 48.4873 87.1424 48.6264 87.5685 48.6264ZM95.8163 52L98.089 38.3636H104.055C105.878 38.3636 107.263 38.6744 108.21 39.2958C109.157 39.9173 109.524 40.8494 109.311 42.0923C109.204 42.767 108.813 43.3648 108.139 43.8857C107.464 44.4065 106.553 44.7557 105.404 44.9332C106.428 44.9806 107.233 45.17 107.819 45.5014C108.411 45.8269 108.816 46.2353 109.035 46.7266C109.254 47.2119 109.322 47.715 109.24 48.2358C109.103 49.0644 108.763 49.7598 108.219 50.3221C107.674 50.8784 106.94 51.2987 106.017 51.5827C105.094 51.8609 103.99 52 102.705 52H95.8163ZM100.93 48.5554H103.274C103.676 48.5554 104.008 48.4607 104.268 48.2713C104.528 48.0819 104.682 47.8215 104.73 47.4901C104.795 47.1468 104.727 46.8775 104.525 46.6822C104.33 46.4869 104.031 46.3892 103.629 46.3892H101.285L100.93 48.5554ZM101.711 43.9034H103.274C103.528 43.9034 103.75 43.8649 103.939 43.788C104.135 43.7051 104.295 43.5897 104.419 43.4418C104.543 43.2938 104.623 43.1162 104.659 42.9091C104.706 42.5954 104.62 42.3527 104.401 42.1811C104.188 42.0036 103.871 41.9148 103.451 41.9148H102.031L101.711 43.9034ZM112.973 52.2841C112.28 52.2841 111.715 52.0444 111.277 51.565C110.845 51.0797 110.665 50.4908 110.736 49.7983C110.807 49.1236 111.112 48.5465 111.65 48.0671C112.195 47.5877 112.813 47.348 113.506 47.348C114.163 47.348 114.71 47.5877 115.148 48.0671C115.592 48.5465 115.778 49.1236 115.707 49.7983C115.66 50.2599 115.497 50.6802 115.219 51.0589C114.947 51.4318 114.609 51.7307 114.207 51.9556C113.81 52.1746 113.399 52.2841 112.973 52.2841ZM29.4715 87.1591L30.1107 83.3239L39.3437 71.8182H42.8238L41.9715 76.9318H39.9829L35.0113 83.1818L34.9758 83.3239H45.7712L45.132 87.1591H29.4715ZM37.8522 90L38.5269 85.9872L38.9175 84.3182L40.9772 71.8182H45.5937L42.5752 90H37.8522ZM54.2431 90.2486C53.1541 90.2486 52.1509 90.074 51.2335 89.7248C50.3162 89.3756 49.5438 88.8281 48.9164 88.0824C48.2891 87.3307 47.86 86.3601 47.6291 85.1705C47.3983 83.9808 47.4249 82.5485 47.709 80.8736C47.9517 79.4235 48.3512 78.1274 48.9075 76.9851C49.4639 75.8369 50.1475 74.8603 50.9583 74.0554C51.7692 73.2446 52.6836 72.629 53.7016 72.2088C54.7196 71.7827 55.8115 71.5696 56.9775 71.5696C58.3269 71.5696 59.4781 71.8241 60.431 72.3331C61.3898 72.8362 62.1119 73.5168 62.5972 74.375C63.0825 75.2273 63.2926 76.1742 63.2275 77.2159H58.4335C58.4335 76.6892 58.2589 76.3163 57.9097 76.0973C57.5605 75.8724 57.1432 75.7599 56.6579 75.7599C55.5866 75.7599 54.7077 76.2334 54.0212 77.1804C53.3346 78.1214 52.8523 79.3288 52.5741 80.8026L52.7161 80.554C53.0417 79.9976 53.4619 79.5301 53.9768 79.1513C54.4976 78.7725 55.0717 78.4854 55.6991 78.2901C56.3324 78.0948 56.9834 77.9972 57.6522 77.9972C58.7827 77.9972 59.7326 78.2576 60.502 78.7784C61.2714 79.2992 61.8189 80.0124 62.1444 80.918C62.4699 81.8235 62.535 82.8504 62.3397 83.9986C62.1326 85.2652 61.6532 86.366 60.9015 87.3011C60.1499 88.2363 59.1999 88.9613 58.0517 89.4762C56.9035 89.9911 55.634 90.2486 54.2431 90.2486ZM54.4207 86.5199C54.9474 86.5199 55.4387 86.3986 55.8944 86.1559C56.3561 85.9073 56.7408 85.57 57.0485 85.1438C57.3563 84.7118 57.5457 84.2235 57.6167 83.679C57.6877 83.2173 57.6522 82.8119 57.5102 82.4627C57.374 82.1076 57.1491 81.8324 56.8355 81.6371C56.5218 81.4358 56.1311 81.3352 55.6636 81.3352C55.2789 81.3352 54.909 81.4062 54.5539 81.5483C54.1987 81.6903 53.8762 81.8886 53.5862 82.1431C53.2962 82.3976 53.0535 82.6995 52.8582 83.0487C52.6629 83.3919 52.5327 83.7678 52.4676 84.1761C52.4025 84.6555 52.4409 85.0698 52.583 85.419C52.725 85.7682 52.9529 86.0405 53.2666 86.2358C53.5862 86.4252 53.9709 86.5199 54.4207 86.5199ZM71.1534 90.4972C69.4962 90.4972 68.1261 90.1184 67.043 89.3608C65.9599 88.5973 65.2112 87.5024 64.7969 86.076C64.3826 84.6496 64.3471 82.9392 64.6903 80.9446C65.0336 78.9441 65.6462 77.2455 66.5281 75.8487C67.4158 74.4519 68.5167 73.3896 69.8306 72.6616C71.1504 71.9336 72.633 71.5696 74.2784 71.5696C75.9238 71.5696 77.285 71.9336 78.3622 72.6616C79.4394 73.3896 80.1881 74.4519 80.6083 75.8487C81.0285 77.2396 81.0729 78.9382 80.7415 80.9446C80.41 82.9451 79.8004 84.6585 78.9126 86.0849C78.0308 87.5112 76.927 88.6032 75.6012 89.3608C74.2814 90.1184 72.7988 90.4972 71.1534 90.4972ZM71.8281 86.4844C72.6804 86.4844 73.4439 86.0405 74.1186 85.1527C74.7992 84.259 75.3023 82.8563 75.6278 80.9446C75.8409 79.7017 75.8912 78.6837 75.7788 77.8906C75.6663 77.0916 75.4237 76.5027 75.0508 76.1239C74.6779 75.7392 74.2074 75.5469 73.6392 75.5469C72.7869 75.5469 72.0116 75.9819 71.3132 76.8519C70.6207 77.716 70.1177 79.0803 69.804 80.9446C69.5909 82.223 69.5436 83.2706 69.6619 84.0874C69.7803 84.9041 70.0289 85.5078 70.4077 85.8984C70.7865 86.2891 71.2599 86.4844 71.8281 86.4844ZM97.0771 83.9631H87.0984L87.7376 80.1278H97.5388C98.1721 80.1278 98.7018 80.0509 99.1279 79.897C99.56 79.7372 99.8944 79.5064 100.131 79.2045C100.374 78.8968 100.528 78.518 100.593 78.0682C100.67 77.642 100.643 77.2514 100.513 76.8963C100.389 76.5412 100.155 76.2571 99.8115 76.044C99.4741 75.831 99.0243 75.7244 98.4621 75.7244H95.7632L93.3839 90H88.4834L91.5018 71.8182H99.1013C100.599 71.8182 101.865 72.0816 102.901 72.6083C103.943 73.1351 104.697 73.863 105.165 74.7923C105.638 75.7215 105.771 76.7898 105.564 77.9972C105.357 79.2992 104.857 80.3942 104.064 81.282C103.271 82.1638 102.271 82.8326 101.063 83.2884C99.8559 83.7382 98.5272 83.9631 97.0771 83.9631ZM98.2135 84.7798L97.5743 88.6151H86.3527L86.9919 84.7798H98.2135Z" fill="#FF9500"/>
</g>
<defs>
<filter id="filter0_f_99_78" x="4" y="4" width="120" height="120" filterUnits="userSpaceOnUse" color-interpolation-filters="sRGB">
<feFlood flood-opacity="0" result="BackgroundImageFix"/>
<feBlend mode="normal" in="SourceGraphic" in2="BackgroundImageFix" result="shape"/>
<feGaussianBlur stdDeviation="2" result="effect1_foregroundBlur_99_78"/>
</filter>
<filter id="filter1_d_99_78" x="26.963" y="35.8182" width="77.0527" height="64.679" filterUnits="userSpaceOnUse" color-interpolation-filters="sRGB">
<feFlood flood-opacity="0" result="BackgroundImageFix"/>
<feColorMatrix in="SourceAlpha" type="matrix" values="0 0 0 0 0 0 0 0 0 0 0 0 0 0 0 0 0 0 127 0" result="hardAlpha"/>
<feOffset dy="4"/>
<feGaussianBlur stdDeviation="2"/>
<feComposite in2="hardAlpha" operator="out"/>
<feColorMatrix type="matrix" values="0 0 0 0 0 0 0 0 0 0 0 0 0 0 0 0 0 0 0.25 0"/>
<feBlend mode="normal" in2="BackgroundImageFix" result="effect1_dropShadow_99_78"/>
<feBlend mode="normal" in="SourceGraphic" in2="effect1_dropShadow_99_78" result="shape"/>
</filter>
<filter id="filter2_f_99_78" x="4" y="4" width="120" height="120" filterUnits="userSpaceOnUse" color-interpolation-filters="sRGB">
<feFlood flood-opacity="0" result="BackgroundImageFix"/>
<feBlend mode="normal" in="SourceGraphic" in2="BackgroundImageFix" result="shape"/>
<feGaussianBlur stdDeviation="2" result="effect1_foregroundBlur_99_78"/>
</filter>
<filter id="filter3_d_99_78" x="26.963" y="35.8182" width="77.0527" height="64.679" filterUnits="userSpaceOnUse" color-interpolation-filters="sRGB">
<feFlood flood-opacity="0" result="BackgroundImageFix"/>
<feColorMatrix in="SourceAlpha" type="matrix" values="0 0 0 0 0 0 0 0 0 0 0 0 0 0 0 0 0 0 127 0" result="hardAlpha"/>
<feOffset dy="4"/>
<feGaussianBlur stdDeviation="2"/>
<feComposite in2="hardAlpha" operator="out"/>
<feColorMatrix type="matrix" values="0 0 0 0 0 0 0 0 0 0 0 0 0 0 0 0 0 0 0.25 0"/>
<feBlend mode="normal" in2="BackgroundImageFix" result="effect1_dropShadow_99_78"/>
<feBlend mode="normal" in="SourceGraphic" in2="effect1_dropShadow_99_78" result="shape"/>
</filter>
<filter id="filter4_f_99_78" x="4" y="4" width="120" height="120" filterUnits="userSpaceOnUse" color-interpolation-filters="sRGB">
<feFlood flood-opacity="0" result="BackgroundImageFix"/>
<feBlend mode="normal" in="SourceGraphic" in2="BackgroundImageFix" result="shape"/>
<feGaussianBlur stdDeviation="2" result="effect1_foregroundBlur_99_78"/>
</filter>
<filter id="filter5_d_99_78" x="26.963" y="35.8182" width="77.0527" height="64.679" filterUnits="userSpaceOnUse" color-interpolation-filters="sRGB">
<feFlood flood-opacity="0" result="BackgroundImageFix"/>
<feColorMatrix in="SourceAlpha" type="matrix" values="0 0 0 0 0 0 0 0 0 0 0 0 0 0 0 0 0 0 127 0" result="hardAlpha"/>
<feOffset dy="4"/>
<feGaussianBlur stdDeviation="2"/>
<feComposite in2="hardAlpha" operator="out"/>
<feColorMatrix type="matrix" values="0 0 0 0 0 0 0 0 0 0 0 0 0 0 0 0 0 0 0.25 0"/>
<feBlend mode="normal" in2="BackgroundImageFix" result="effect1_dropShadow_99_78"/>
<feBlend mode="normal" in="SourceGraphic" in2="effect1_dropShadow_99_78" result="shape"/>
</filter>
<filter id="filter6_b_99_78" x="5" y="4" width="120" height="120" filterUnits="userSpaceOnUse" color-interpolation-filters="sRGB">
<feFlood flood-opacity="0" result="BackgroundImageFix"/>
<feGaussianBlur in="BackgroundImageFix" stdDeviation="2"/>
<feComposite in2="SourceAlpha" operator="in" result="effect1_backgroundBlur_99_78"/>
<feBlend mode="normal" in="SourceGraphic" in2="effect1_backgroundBlur_99_78" result="shape"/>
</filter>
<filter id="filter7_b_99_78" x="11.8079" y="29.8182" width="108.006" height="64.679" filterUnits="userSpaceOnUse" color-interpolation-filters="sRGB">
<feFlood flood-opacity="0" result="BackgroundImageFix"/>
<feGaussianBlur in="BackgroundImageFix" stdDeviation="2"/>
<feComposite in2="SourceAlpha" operator="in" result="effect1_backgroundBlur_99_78"/>
<feBlend mode="normal" in="SourceGraphic" in2="effect1_backgroundBlur_99_78" result="shape"/>
</filter>
</defs>
</svg>
