<svg width="128" height="128" viewBox="0 0 128 128" fill="none" xmlns="http://www.w3.org/2000/svg">
<rect width="128" height="128" rx="51.2" fill="#1D222B"/>
<g opacity="0.4" filter="url(#filter0_f_75_67)">
<circle cx="64" cy="64" r="46.375" fill="#0FA958" stroke="black" stroke-width="5.25"/>
<circle cx="64" cy="64" r="34.125" fill="#FFF4D9" stroke="black" stroke-width="5.25"/>
<path d="M63.125 85.8544C52.3833 85.3485 42.6515 75.6167 42.1456 64.875" stroke="black" stroke-width="5.25" stroke-linecap="round"/>
<path d="M61.375 45.625V61.375C61.375 64.2745 63.7255 66.625 66.625 66.625H79.75" stroke="black" stroke-width="5.25" stroke-linejoin="round"/>
<path d="M54.375 50.875C57.875 47.375 59.625 45.625 61.375 45.625C63.125 45.625 64.875 47.375 68.375 50.875" stroke="black" stroke-width="5.25" stroke-linecap="round"/>
<path d="M77.125 59.625C80.625 63.125 82.375 64.875 82.375 66.625C82.375 68.375 80.625 70.125 77.125 73.625" stroke="black" stroke-width="5.25" stroke-linecap="round"/>
</g>
<g filter="url(#filter1_d_75_67)">
<path d="M19.0208 54.2486C17.6299 54.2486 16.4344 54 15.4342 53.5028C14.4339 53.0057 13.6971 52.3221 13.2236 51.4521C12.7501 50.582 12.5992 49.5848 12.7708 48.4602H17.5648C17.482 49.0817 17.6418 49.5818 18.0442 49.9606C18.4467 50.3335 18.9735 50.5199 19.6245 50.5199C20.1394 50.5199 20.607 50.4134 21.0272 50.2003C21.4474 49.9813 21.7996 49.6765 22.0837 49.2859C22.3678 48.8893 22.5542 48.4247 22.643 47.892C22.7317 47.3594 22.6992 46.8977 22.5453 46.5071C22.3914 46.1106 22.1399 45.8058 21.7907 45.5927C21.4415 45.3737 21.0154 45.2642 20.5123 45.2642C19.9855 45.2642 19.4825 45.3915 19.0031 45.646C18.5237 45.8945 18.1389 46.2408 17.8489 46.6847L13.6586 45.8324L16.0379 35.8182H28.2538L27.6146 39.7599H19.4469L18.4171 43.7727H18.5237C18.9024 43.2223 19.4706 42.7666 20.2282 42.4055C20.9917 42.0386 21.8321 41.8551 22.7495 41.8551C23.8326 41.8551 24.7559 42.1067 25.5194 42.6097C26.2829 43.1128 26.8363 43.8082 27.1795 44.696C27.5228 45.5838 27.5968 46.6018 27.4015 47.75C27.2062 49.0166 26.7268 50.1381 25.9633 51.1147C25.1998 52.0913 24.2232 52.8577 23.0336 53.4141C21.844 53.9704 20.5064 54.2486 19.0208 54.2486ZM47.9519 40.3636L45.6792 54H41.0982L43.3709 40.3636H47.9519ZM44.6138 46.0099L44.0101 49.6676C43.8326 49.7741 43.5307 49.8807 43.1046 49.9872C42.6844 50.0878 42.2464 50.1737 41.7907 50.2447C41.3349 50.3098 40.9621 50.3423 40.6721 50.3423C38.4408 50.3423 36.7658 49.9458 35.6472 49.1527C34.5286 48.3596 34.1202 47.0398 34.4221 45.1932L35.2388 40.3636H39.7843L38.9675 45.1932C38.9024 45.6075 38.9113 45.9212 38.9942 46.1342C39.0829 46.3473 39.3019 46.4923 39.6511 46.5692C40.0062 46.6462 40.5478 46.6847 41.2758 46.6847C41.7256 46.6847 42.2168 46.6314 42.7495 46.5249C43.2881 46.4124 43.9095 46.2408 44.6138 46.0099ZM51.5188 54.2131C50.6547 54.2131 49.9119 54.071 49.2904 53.7869C48.6749 53.4969 48.2251 53.0589 47.941 52.473C47.6628 51.8812 47.6007 51.1354 47.7546 50.2358C47.8789 49.4901 48.1127 48.8538 48.4559 48.3271C48.7992 47.8003 49.2253 47.3683 49.7343 47.0309C50.2433 46.6935 50.8145 46.4361 51.4478 46.2585C52.087 46.075 52.7617 45.9567 53.4719 45.9034C54.2413 45.8442 54.8657 45.7702 55.3451 45.6815C55.8245 45.5927 56.1826 45.4714 56.4194 45.3175C56.6561 45.1636 56.7981 44.9564 56.8455 44.696V44.6605C56.8988 44.3054 56.8041 44.0331 56.5614 43.8438C56.3247 43.6544 55.9932 43.5597 55.5671 43.5597C55.1054 43.5597 54.7059 43.6603 54.3686 43.8615C54.0371 44.0627 53.8093 44.3764 53.685 44.8026H49.175C49.3644 43.974 49.7521 43.2105 50.338 42.5121C50.9299 41.8078 51.7141 41.2455 52.6907 40.8253C53.6731 40.3991 54.845 40.1861 56.2063 40.1861C57.1769 40.1861 58.0292 40.3015 58.7631 40.5323C59.497 40.7572 60.1037 41.0739 60.5831 41.4822C61.0684 41.8847 61.4087 42.3582 61.604 42.9027C61.8052 43.4413 61.8526 44.0272 61.7461 44.6605L60.1836 54H55.6026L55.9222 52.0824H55.8157C55.4605 52.5914 55.061 53.0027 54.6172 53.3164C54.1792 53.6301 53.6998 53.858 53.1789 54C52.664 54.142 52.1106 54.2131 51.5188 54.2131ZM53.6495 51.1236C54.0164 51.1236 54.3775 51.0466 54.7326 50.8928C55.0877 50.7389 55.3925 50.5169 55.647 50.2269C55.9015 49.9369 56.0642 49.5848 56.1353 49.1705L56.3128 48.0341C56.1826 48.0874 56.0376 48.1377 55.8778 48.185C55.7239 48.2264 55.5612 48.2679 55.3895 48.3093C55.2238 48.3507 55.0462 48.3892 54.8569 48.4247C54.6734 48.4602 54.484 48.4957 54.2887 48.5312C53.898 48.5904 53.5696 48.6881 53.3032 48.8242C53.0369 48.9544 52.8297 49.1172 52.6818 49.3125C52.5338 49.5019 52.4421 49.715 52.4066 49.9517C52.3533 50.3246 52.4391 50.6146 52.664 50.8217C52.8949 51.023 53.2233 51.1236 53.6495 51.1236ZM68.7842 54.2486C67.3045 54.2486 66.0853 53.9556 65.1265 53.3697C64.1677 52.7778 63.4959 51.9551 63.1112 50.9016C62.7265 49.8422 62.6526 48.6141 62.8893 47.2173C63.1142 45.8205 63.5936 44.5954 64.3275 43.5419C65.0673 42.4825 66.0143 41.6598 67.1684 41.0739C68.3285 40.482 69.6483 40.1861 71.1279 40.1861C72.4655 40.1861 73.5812 40.4287 74.4749 40.9141C75.3745 41.3935 76.0167 42.0741 76.4014 42.956C76.792 43.8319 76.8926 44.8617 76.7032 46.0455H72.1578C72.211 45.3352 72.0956 44.7907 71.8115 44.4119C71.5334 44.0331 71.1279 43.8438 70.5953 43.8438C70.1573 43.8438 69.7548 43.968 69.3879 44.2166C69.0268 44.4593 68.7161 44.8292 68.4557 45.3263C68.2012 45.8176 68.0148 46.4361 67.8964 47.1818C67.778 47.9276 67.7632 48.549 67.852 49.0462C67.9467 49.5374 68.1302 49.9073 68.4024 50.1559C68.6806 50.3986 69.0328 50.5199 69.4589 50.5199C69.8258 50.5199 70.1632 50.437 70.471 50.2713C70.7847 50.0997 71.0539 49.8511 71.2789 49.5256C71.5097 49.1941 71.6843 48.7917 71.8026 48.3182H76.3481C76.1232 49.5256 75.6704 50.5732 74.9898 51.4609C74.3092 52.3487 73.4421 53.0353 72.3886 53.5206C71.3351 54.0059 70.1336 54.2486 68.7842 54.2486ZM83.6703 54.2486C82.1907 54.2486 80.9714 53.9556 80.0126 53.3697C79.0598 52.7778 78.391 51.9551 78.0062 50.9016C77.6215 49.8422 77.5446 48.6141 77.7754 47.2173C78.0062 45.8205 78.4886 44.5954 79.2225 43.5419C79.9564 42.4825 80.9004 41.6598 82.0545 41.0739C83.2087 40.482 84.5285 40.1861 86.0141 40.1861C87.4878 40.1861 88.7011 40.482 89.654 41.0739C90.6128 41.6598 91.2845 42.4825 91.6692 43.5419C92.0599 44.5954 92.1398 45.8205 91.9089 47.2173C91.6781 48.6141 91.1928 49.8422 90.453 50.9016C89.7132 51.9551 88.7662 52.7778 87.6121 53.3697C86.4639 53.9556 85.15 54.2486 83.6703 54.2486ZM84.274 50.6264C84.7001 50.6264 85.0878 50.4873 85.437 50.2092C85.7921 49.931 86.094 49.5344 86.3425 49.0195C86.597 48.5046 86.7835 47.892 86.9018 47.1818C87.0202 46.4657 87.038 45.8531 86.9551 45.3441C86.8723 44.8292 86.7006 44.4326 86.4402 44.1545C86.1798 43.8763 85.8365 43.7372 85.4104 43.7372C84.9842 43.7372 84.5936 43.8763 84.2385 44.1545C83.8834 44.4326 83.5815 44.8292 83.333 45.3441C83.0844 45.8531 82.9009 46.4657 82.7825 47.1818C82.6642 47.892 82.6434 48.5046 82.7204 49.0195C82.8032 49.5344 82.9749 49.931 83.2353 50.2092C83.5016 50.4873 83.8479 50.6264 84.274 50.6264ZM92.5217 54L94.7945 40.3636H100.76C102.583 40.3636 103.968 40.6744 104.915 41.2958C105.862 41.9173 106.229 42.8494 106.016 44.0923C105.91 44.767 105.519 45.3648 104.844 45.8857C104.169 46.4065 103.258 46.7557 102.11 46.9332C103.134 46.9806 103.939 47.17 104.525 47.5014C105.116 47.8269 105.522 48.2353 105.741 48.7266C105.96 49.2119 106.028 49.715 105.945 50.2358C105.809 51.0644 105.469 51.7598 104.924 52.3221C104.38 52.8784 103.646 53.2987 102.722 53.5827C101.799 53.8609 100.695 54 99.4109 54H92.5217ZM97.6354 50.5554H99.9791C100.382 50.5554 100.713 50.4607 100.973 50.2713C101.234 50.0819 101.388 49.8215 101.435 49.4901C101.5 49.1468 101.432 48.8775 101.231 48.6822C101.036 48.4869 100.737 48.3892 100.334 48.3892H97.9905L97.6354 50.5554ZM98.4166 45.9034H99.9791C100.234 45.9034 100.456 45.8649 100.645 45.788C100.84 45.7051 101 45.5897 101.124 45.4418C101.249 45.2938 101.329 45.1162 101.364 44.9091C101.411 44.5954 101.326 44.3527 101.107 44.1811C100.894 44.0036 100.577 43.9148 100.157 43.9148H98.7362L98.4166 45.9034ZM109.678 54.2841C108.986 54.2841 108.421 54.0444 107.983 53.565C107.551 53.0797 107.37 52.4908 107.441 51.7983C107.512 51.1236 107.817 50.5465 108.356 50.0671C108.9 49.5877 109.519 49.348 110.211 49.348C110.868 49.348 111.415 49.5877 111.853 50.0671C112.297 50.5465 112.484 51.1236 112.413 51.7983C112.365 52.2599 112.203 52.6802 111.924 53.0589C111.652 53.4318 111.315 53.7307 110.912 53.9556C110.516 54.1746 110.105 54.2841 109.678 54.2841ZM30.8825 89.1591L31.5217 85.3239L40.7546 73.8182H44.2347L43.3825 78.9318H41.3938L36.4222 85.1818L36.3867 85.3239H47.1822L46.543 89.1591H30.8825ZM39.2631 92L39.9379 87.9872L40.3285 86.3182L42.3881 73.8182H47.0046L43.9862 92H39.2631ZM55.6541 92.2486C54.565 92.2486 53.5619 92.074 52.6445 91.7248C51.7271 91.3756 50.9547 90.8281 50.3274 90.0824C49.7 89.3307 49.2709 88.3601 49.0401 87.1705C48.8092 85.9808 48.8359 84.5485 49.12 82.8736C49.3626 81.4235 49.7621 80.1274 50.3185 78.9851C50.8748 77.8369 51.5584 76.8603 52.3693 76.0554C53.1801 75.2446 54.0945 74.629 55.1125 74.2088C56.1305 73.7827 57.2225 73.5696 58.3884 73.5696C59.7379 73.5696 60.889 73.8241 61.8419 74.3331C62.8007 74.8362 63.5228 75.5168 64.0081 76.375C64.4934 77.2273 64.7035 78.1742 64.6384 79.2159H59.8444C59.8444 78.6892 59.6698 78.3163 59.3206 78.0973C58.9714 77.8724 58.5542 77.7599 58.0688 77.7599C56.9976 77.7599 56.1187 78.2334 55.4321 79.1804C54.7456 80.1214 54.2632 81.3288 53.985 82.8026L54.1271 82.554C54.4526 81.9976 54.8728 81.5301 55.3877 81.1513C55.9086 80.7725 56.4827 80.4854 57.11 80.2901C57.7433 80.0948 58.3944 79.9972 59.0632 79.9972C60.1936 79.9972 61.1435 80.2576 61.9129 80.7784C62.6824 81.2992 63.2298 82.0124 63.5553 82.918C63.8809 83.8235 63.946 84.8504 63.7507 85.9986C63.5435 87.2652 63.0641 88.366 62.3124 89.3011C61.5608 90.2363 60.6109 90.9613 59.4627 91.4762C58.3145 91.9911 57.0449 92.2486 55.6541 92.2486ZM55.8316 88.5199C56.3584 88.5199 56.8496 88.3986 57.3053 88.1559C57.767 87.9073 58.1517 87.57 58.4595 87.1438C58.7672 86.7118 58.9566 86.2235 59.0276 85.679C59.0987 85.2173 59.0632 84.8119 58.9211 84.4627C58.785 84.1076 58.5601 83.8324 58.2464 83.6371C57.9327 83.4358 57.5421 83.3352 57.0745 83.3352C56.6898 83.3352 56.3199 83.4062 55.9648 83.5483C55.6097 83.6903 55.2871 83.8886 54.9971 84.1431C54.7071 84.3976 54.4644 84.6995 54.2691 85.0487C54.0738 85.3919 53.9436 85.7678 53.8785 86.1761C53.8134 86.6555 53.8519 87.0698 53.9939 87.419C54.136 87.7682 54.3638 88.0405 54.6775 88.2358C54.9971 88.4252 55.3818 88.5199 55.8316 88.5199ZM72.5643 92.4972C70.9072 92.4972 69.537 92.1184 68.4539 91.3608C67.3708 90.5973 66.6221 89.5024 66.2078 88.076C65.7935 86.6496 65.758 84.9392 66.1013 82.9446C66.4446 80.9441 67.0571 79.2455 67.939 77.8487C68.8268 76.4519 69.9276 75.3896 71.2415 74.6616C72.5614 73.9336 74.044 73.5696 75.6893 73.5696C77.3347 73.5696 78.696 73.9336 79.7732 74.6616C80.8503 75.3896 81.599 76.4519 82.0192 77.8487C82.4395 79.2396 82.4839 80.9382 82.1524 82.9446C81.821 84.9451 81.2114 86.6585 80.3236 88.0849C79.4417 89.5112 78.3379 90.6032 77.0121 91.3608C75.6923 92.1184 74.2097 92.4972 72.5643 92.4972ZM73.2391 88.4844C74.0913 88.4844 74.8548 88.0405 75.5295 87.1527C76.2102 86.259 76.7133 84.8563 77.0388 82.9446C77.2518 81.7017 77.3022 80.6837 77.1897 79.8906C77.0773 79.0916 76.8346 78.5027 76.4617 78.1239C76.0889 77.7392 75.6183 77.5469 75.0501 77.5469C74.1979 77.5469 73.4225 77.9819 72.7241 78.8519C72.0317 79.716 71.5286 81.0803 71.2149 82.9446C71.0018 84.223 70.9545 85.2706 71.0729 86.0874C71.1912 86.9041 71.4398 87.5078 71.8186 87.8984C72.1974 88.2891 72.6709 88.4844 73.2391 88.4844ZM98.4881 85.9631H88.5094L89.1486 82.1278H98.9497C99.583 82.1278 100.113 82.0509 100.539 81.897C100.971 81.7372 101.305 81.5064 101.542 81.2045C101.785 80.8968 101.939 80.518 102.004 80.0682C102.081 79.642 102.054 79.2514 101.924 78.8963C101.8 78.5412 101.566 78.2571 101.222 78.044C100.885 77.831 100.435 77.7244 99.873 77.7244H97.1741L94.7949 92H89.8943L92.9128 73.8182H100.512C102.01 73.8182 103.276 74.0816 104.312 74.6083C105.354 75.1351 106.108 75.863 106.576 76.7923C107.049 77.7215 107.182 78.7898 106.975 79.9972C106.768 81.2992 106.268 82.3942 105.475 83.282C104.682 84.1638 103.682 84.8326 102.474 85.2884C101.267 85.7382 99.9381 85.9631 98.4881 85.9631ZM99.6244 86.7798L98.9852 90.6151H87.7636L88.4028 86.7798H99.6244Z" fill="#FF9500"/>
</g>
<defs>
<filter id="filter0_f_75_67" x="4" y="4" width="120" height="120" filterUnits="userSpaceOnUse" color-interpolation-filters="sRGB">
<feFlood flood-opacity="0" result="BackgroundImageFix"/>
<feBlend mode="normal" in="SourceGraphic" in2="BackgroundImageFix" result="shape"/>
<feGaussianBlur stdDeviation="2" result="effect1_foregroundBlur_75_67"/>
</filter>
<filter id="filter1_d_75_67" x="8.51337" y="35.8182" width="108.006" height="64.679" filterUnits="userSpaceOnUse" color-interpolation-filters="sRGB">
<feFlood flood-opacity="0" result="BackgroundImageFix"/>
<feColorMatrix in="SourceAlpha" type="matrix" values="0 0 0 0 0 0 0 0 0 0 0 0 0 0 0 0 0 0 127 0" result="hardAlpha"/>
<feOffset dy="4"/>
<feGaussianBlur stdDeviation="2"/>
<feComposite in2="hardAlpha" operator="out"/>
<feColorMatrix type="matrix" values="0 0 0 0 0 0 0 0 0 0 0 0 0 0 0 0 0 0 0.25 0"/>
<feBlend mode="normal" in2="BackgroundImageFix" result="effect1_dropShadow_75_67"/>
<feBlend mode="normal" in="SourceGraphic" in2="effect1_dropShadow_75_67" result="shape"/>
</filter>
</defs>
</svg>
