<svg width="129" height="128" viewBox="0 0 129 128" fill="none" xmlns="http://www.w3.org/2000/svg">
<rect width="128" height="128" rx="51.2" fill="#1D222B"/>
<g opacity="0.4" filter="url(#filter0_f_99_78)">
<circle cx="64" cy="64" r="46.375" fill="#0FA958" stroke="black" stroke-width="5.25"/>
<circle cx="64" cy="64" r="34.125" fill="#FFF4D9" stroke="black" stroke-width="5.25"/>
<path d="M63.125 85.8544C52.3833 85.3485 42.6515 75.6167 42.1456 64.875" stroke="black" stroke-width="5.25" stroke-linecap="round"/>
<path d="M61.375 45.625V61.375C61.375 64.2745 63.7255 66.625 66.625 66.625H79.75" stroke="black" stroke-width="5.25" stroke-linejoin="round"/>
<path d="M54.375 50.875C57.875 47.375 59.625 45.625 61.375 45.625C63.125 45.625 64.875 47.375 68.375 50.875" stroke="black" stroke-width="5.25" stroke-linecap="round"/>
<path d="M77.125 59.625C80.625 63.125 82.375 64.875 82.375 66.625C82.375 68.375 80.625 70.125 77.125 73.625" stroke="black" stroke-width="5.25" stroke-linecap="round"/>
</g>
<g filter="url(#filter1_d_99_78)">
<path d="M41.1192 35.8182L38.1008 54H33.1647L35.4374 40.3636H35.3309L30.963 42.7429L31.6377 38.5526L36.5738 35.8182H41.1192ZM61.2857 40.3636L59.013 54H54.432L56.7047 40.3636H61.2857ZM57.9476 46.0099L57.3439 49.6676C57.1664 49.7741 56.8645 49.8807 56.4384 49.9872C56.0182 50.0878 55.5802 50.1737 55.1245 50.2447C54.6687 50.3098 54.2959 50.3423 54.0059 50.3423C51.7746 50.3423 50.0996 49.9458 48.981 49.1527C47.8624 48.3596 47.454 47.0398 47.7559 45.1932L48.5726 40.3636H53.1181L52.3013 45.1932C52.2362 45.6075 52.2451 45.9212 52.3279 46.1342C52.4167 46.3473 52.6357 46.4923 52.9849 46.5692C53.34 46.6462 53.8816 46.6847 54.6096 46.6847C55.0594 46.6847 55.5506 46.6314 56.0833 46.5249C56.6219 46.4124 57.2433 46.2408 57.9476 46.0099ZM64.8526 54.2131C63.9885 54.2131 63.2457 54.071 62.6242 53.7869C62.0087 53.4969 61.5589 53.0589 61.2748 52.473C60.9966 51.8812 60.9345 51.1354 61.0884 50.2358C61.2127 49.4901 61.4464 48.8538 61.7897 48.3271C62.133 47.8003 62.5591 47.3683 63.0681 47.0309C63.5771 46.6935 64.1483 46.4361 64.7816 46.2585C65.4208 46.075 66.0955 45.9567 66.8057 45.9034C67.5751 45.8442 68.1995 45.7702 68.6789 45.6815C69.1583 45.5927 69.5164 45.4714 69.7531 45.3175C69.9899 45.1636 70.1319 44.9564 70.1793 44.696V44.6605C70.2325 44.3054 70.1378 44.0331 69.8952 43.8438C69.6584 43.6544 69.327 43.5597 68.9009 43.5597C68.4392 43.5597 68.0397 43.6603 67.7024 43.8615C67.3709 44.0627 67.1431 44.3764 67.0188 44.8026H62.5088C62.6982 43.974 63.0859 43.2105 63.6718 42.5121C64.2637 41.8078 65.0479 41.2455 66.0244 40.8253C67.0069 40.3991 68.1788 40.1861 69.5401 40.1861C70.5107 40.1861 71.363 40.3015 72.0969 40.5323C72.8308 40.7572 73.4374 41.0739 73.9168 41.4822C74.4022 41.8847 74.7425 42.3582 74.9378 42.9027C75.139 43.4413 75.1864 44.0272 75.0798 44.6605L73.5173 54H68.9364L69.256 52.0824H69.1494C68.7943 52.5914 68.3948 53.0027 67.9509 53.3164C67.513 53.6301 67.0336 53.858 66.5127 54C65.9978 54.142 65.4444 54.2131 64.8526 54.2131ZM66.9833 51.1236C67.3502 51.1236 67.7112 51.0466 68.0664 50.8928C68.4215 50.7389 68.7263 50.5169 68.9808 50.2269C69.2353 49.9369 69.398 49.5848 69.4691 49.1705L69.6466 48.0341C69.5164 48.0874 69.3714 48.1377 69.2116 48.185C69.0577 48.2264 68.895 48.2679 68.7233 48.3093C68.5576 48.3507 68.38 48.3892 68.1906 48.4247C68.0072 48.4602 67.8178 48.4957 67.6225 48.5312C67.2318 48.5904 66.9034 48.6881 66.637 48.8242C66.3707 48.9544 66.1635 49.1172 66.0156 49.3125C65.8676 49.5019 65.7759 49.715 65.7404 49.9517C65.6871 50.3246 65.7729 50.6146 65.9978 50.8217C66.2286 51.023 66.5571 51.1236 66.9833 51.1236ZM82.118 54.2486C80.6383 54.2486 79.4191 53.9556 78.4603 53.3697C77.5015 52.7778 76.8297 51.9551 76.445 50.9016C76.0603 49.8422 75.9863 48.6141 76.2231 47.2173C76.448 45.8205 76.9274 44.5954 77.6613 43.5419C78.4011 42.4825 79.3481 41.6598 80.5022 41.0739C81.6622 40.482 82.9821 40.1861 84.4617 40.1861C85.7993 40.1861 86.915 40.4287 87.8087 40.9141C88.7083 41.3935 89.3505 42.0741 89.7352 42.956C90.1258 43.8319 90.2264 44.8617 90.037 46.0455H85.4915C85.5448 45.3352 85.4294 44.7907 85.1453 44.4119C84.8671 44.0331 84.4617 43.8438 83.929 43.8438C83.4911 43.8438 83.0886 43.968 82.7217 44.2166C82.3606 44.4593 82.0499 44.8292 81.7895 45.3263C81.535 45.8176 81.3486 46.4361 81.2302 47.1818C81.1118 47.9276 81.097 48.549 81.1858 49.0462C81.2805 49.5374 81.464 49.9073 81.7362 50.1559C82.0144 50.3986 82.3665 50.5199 82.7927 50.5199C83.1596 50.5199 83.497 50.437 83.8048 50.2713C84.1184 50.0997 84.3877 49.8511 84.6126 49.5256C84.8435 49.1941 85.0181 48.7917 85.1364 48.3182H89.6819C89.457 49.5256 89.0042 50.5732 88.3236 51.4609C87.6429 52.3487 86.7759 53.0353 85.7224 53.5206C84.6689 54.0059 83.4674 54.2486 82.118 54.2486ZM93.2399 54.2841C92.5474 54.2841 91.9822 54.0444 91.5442 53.565C91.1122 53.0797 90.9317 52.4908 91.0027 51.7983C91.0737 51.1236 91.3785 50.5465 91.9171 50.0671C92.4616 49.5877 93.0801 49.348 93.7726 49.348C94.4295 49.348 94.977 49.5877 95.415 50.0671C95.8589 50.5465 96.0453 51.1236 95.9743 51.7983C95.9269 52.2599 95.7642 52.6802 95.486 53.0589C95.2137 53.4318 94.8764 53.7307 94.4739 53.9556C94.0774 54.1746 93.666 54.2841 93.2399 54.2841ZM41.1192 73.8182L38.1008 92H33.1647L35.4374 78.3636H35.3309L30.963 80.7429L31.6377 76.5526L36.5738 73.8182H41.1192ZM41.5589 92L42.1449 88.4489L49.8686 82.8381C50.3835 82.4652 50.8274 82.116 51.2002 81.7905C51.579 81.459 51.8838 81.1187 52.1147 80.7695C52.3455 80.4203 52.4964 80.0327 52.5674 79.6065C52.6444 79.139 52.6089 78.7395 52.4609 78.408C52.3189 78.0707 52.088 77.8132 51.7684 77.6357C51.4488 77.4581 51.0641 77.3693 50.6143 77.3693C50.1586 77.3693 49.7413 77.4611 49.3625 77.6445C48.9837 77.828 48.6671 78.0973 48.4126 78.4524C48.164 78.8075 47.9983 79.2396 47.9154 79.7486H43.2279C43.441 78.4702 43.9115 77.3693 44.6395 76.446C45.3734 75.5227 46.3026 74.8125 47.4272 74.3153C48.5576 73.8182 49.8271 73.5696 51.2358 73.5696C52.6917 73.5696 53.9169 73.8034 54.9112 74.271C55.9055 74.7326 56.6246 75.3836 57.0685 76.2241C57.5183 77.0645 57.6456 78.05 57.4502 79.1804C57.3319 79.8788 57.0685 80.5713 56.6601 81.2578C56.2577 81.9444 55.6096 82.7079 54.7159 83.5483C53.8281 84.3828 52.597 85.3771 51.0227 86.5312L49.0873 87.9517L49.0696 88.0582H56.1718L55.5149 92H41.5589ZM65.294 92.4972C63.6368 92.4972 62.2667 92.1184 61.1836 91.3608C60.1005 90.5973 59.3518 89.5024 58.9375 88.076C58.5232 86.6496 58.4877 84.9392 58.831 82.9446C59.1742 80.9441 59.7868 79.2455 60.6687 77.8487C61.5565 76.4519 62.6573 75.3896 63.9712 74.6616C65.2911 73.9336 66.7737 73.5696 68.419 73.5696C70.0644 73.5696 71.4257 73.9336 72.5028 74.6616C73.58 75.3896 74.3287 76.4519 74.7489 77.8487C75.1692 79.2396 75.2135 80.9382 74.8821 82.9446C74.5507 84.9451 73.9411 86.6585 73.0533 88.0849C72.1714 89.5112 71.0676 90.6032 69.7418 91.3608C68.422 92.1184 66.9394 92.4972 65.294 92.4972ZM65.9688 88.4844C66.821 88.4844 67.5845 88.0405 68.2592 87.1527C68.9399 86.259 69.4429 84.8563 69.7685 82.9446C69.9815 81.7017 70.0318 80.6837 69.9194 79.8906C69.8069 79.0916 69.5643 78.5027 69.1914 78.1239C68.8185 77.7392 68.348 77.5469 67.7798 77.5469C66.9276 77.5469 66.1522 77.9819 65.4538 78.8519C64.7614 79.716 64.2583 81.0803 63.9446 82.9446C63.7315 84.223 63.6842 85.2706 63.8026 86.0874C63.9209 86.9041 64.1695 87.5078 64.5483 87.8984C64.9271 88.2891 65.4006 88.4844 65.9688 88.4844ZM91.2178 85.9631H81.2391L81.8783 82.1278H91.6794C92.3127 82.1278 92.8424 82.0509 93.2685 81.897C93.7006 81.7372 94.035 81.5064 94.2717 81.2045C94.5144 80.8968 94.6683 80.518 94.7334 80.0682C94.8103 79.642 94.7837 79.2514 94.6535 78.8963C94.5292 78.5412 94.2954 78.2571 93.9521 78.044C93.6148 77.831 93.165 77.7244 92.6027 77.7244H89.9038L87.5246 92H82.624L85.6425 73.8182H93.2419C94.7393 73.8182 96.0059 74.0816 97.0416 74.6083C98.0833 75.1351 98.8379 75.863 99.3055 76.7923C99.779 77.7215 99.9121 78.7898 99.705 79.9972C99.4978 81.2992 98.9977 82.3942 98.2046 83.282C97.4115 84.1638 96.4113 84.8326 95.2039 85.2884C93.9965 85.7382 92.6678 85.9631 91.2178 85.9631ZM92.3541 86.7798L91.7149 90.6151H80.4933L81.1325 86.7798H92.3541Z" fill="#FF9500"/>
</g>
<rect width="128" height="128" rx="51.2" fill="#1D222B"/>
<g opacity="0.4" filter="url(#filter2_f_99_78)">
<circle cx="64" cy="64" r="46.375" fill="#0FA958" stroke="black" stroke-width="5.25"/>
<circle cx="64" cy="64" r="34.125" fill="#FFF4D9" stroke="black" stroke-width="5.25"/>
<path d="M63.125 85.8544C52.3833 85.3485 42.6515 75.6167 42.1456 64.875" stroke="black" stroke-width="5.25" stroke-linecap="round"/>
<path d="M61.375 45.625V61.375C61.375 64.2745 63.7255 66.625 66.625 66.625H79.75" stroke="black" stroke-width="5.25" stroke-linejoin="round"/>
<path d="M54.375 50.875C57.875 47.375 59.625 45.625 61.375 45.625C63.125 45.625 64.875 47.375 68.375 50.875" stroke="black" stroke-width="5.25" stroke-linecap="round"/>
<path d="M77.125 59.625C80.625 63.125 82.375 64.875 82.375 66.625C82.375 68.375 80.625 70.125 77.125 73.625" stroke="black" stroke-width="5.25" stroke-linecap="round"/>
</g>
<g filter="url(#filter3_d_99_78)">
<path d="M41.1192 35.8182L38.1008 54H33.1647L35.4374 40.3636H35.3309L30.963 42.7429L31.6377 38.5526L36.5738 35.8182H41.1192ZM61.2857 40.3636L59.013 54H54.432L56.7047 40.3636H61.2857ZM57.9476 46.0099L57.3439 49.6676C57.1664 49.7741 56.8645 49.8807 56.4384 49.9872C56.0182 50.0878 55.5802 50.1737 55.1245 50.2447C54.6687 50.3098 54.2959 50.3423 54.0059 50.3423C51.7746 50.3423 50.0996 49.9458 48.981 49.1527C47.8624 48.3596 47.454 47.0398 47.7559 45.1932L48.5726 40.3636H53.1181L52.3013 45.1932C52.2362 45.6075 52.2451 45.9212 52.3279 46.1342C52.4167 46.3473 52.6357 46.4923 52.9849 46.5692C53.34 46.6462 53.8816 46.6847 54.6096 46.6847C55.0594 46.6847 55.5506 46.6314 56.0833 46.5249C56.6219 46.4124 57.2433 46.2408 57.9476 46.0099ZM64.8526 54.2131C63.9885 54.2131 63.2457 54.071 62.6242 53.7869C62.0087 53.4969 61.5589 53.0589 61.2748 52.473C60.9966 51.8812 60.9345 51.1354 61.0884 50.2358C61.2127 49.4901 61.4464 48.8538 61.7897 48.3271C62.133 47.8003 62.5591 47.3683 63.0681 47.0309C63.5771 46.6935 64.1483 46.4361 64.7816 46.2585C65.4208 46.075 66.0955 45.9567 66.8057 45.9034C67.5751 45.8442 68.1995 45.7702 68.6789 45.6815C69.1583 45.5927 69.5164 45.4714 69.7531 45.3175C69.9899 45.1636 70.1319 44.9564 70.1793 44.696V44.6605C70.2325 44.3054 70.1378 44.0331 69.8952 43.8438C69.6584 43.6544 69.327 43.5597 68.9009 43.5597C68.4392 43.5597 68.0397 43.6603 67.7024 43.8615C67.3709 44.0627 67.1431 44.3764 67.0188 44.8026H62.5088C62.6982 43.974 63.0859 43.2105 63.6718 42.5121C64.2637 41.8078 65.0479 41.2455 66.0244 40.8253C67.0069 40.3991 68.1788 40.1861 69.5401 40.1861C70.5107 40.1861 71.363 40.3015 72.0969 40.5323C72.8308 40.7572 73.4374 41.0739 73.9168 41.4822C74.4022 41.8847 74.7425 42.3582 74.9378 42.9027C75.139 43.4413 75.1864 44.0272 75.0798 44.6605L73.5173 54H68.9364L69.256 52.0824H69.1494C68.7943 52.5914 68.3948 53.0027 67.9509 53.3164C67.513 53.6301 67.0336 53.858 66.5127 54C65.9978 54.142 65.4444 54.2131 64.8526 54.2131ZM66.9833 51.1236C67.3502 51.1236 67.7112 51.0466 68.0664 50.8928C68.4215 50.7389 68.7263 50.5169 68.9808 50.2269C69.2353 49.9369 69.398 49.5848 69.4691 49.1705L69.6466 48.0341C69.5164 48.0874 69.3714 48.1377 69.2116 48.185C69.0577 48.2264 68.895 48.2679 68.7233 48.3093C68.5576 48.3507 68.38 48.3892 68.1906 48.4247C68.0072 48.4602 67.8178 48.4957 67.6225 48.5312C67.2318 48.5904 66.9034 48.6881 66.637 48.8242C66.3707 48.9544 66.1635 49.1172 66.0156 49.3125C65.8676 49.5019 65.7759 49.715 65.7404 49.9517C65.6871 50.3246 65.7729 50.6146 65.9978 50.8217C66.2286 51.023 66.5571 51.1236 66.9833 51.1236ZM82.118 54.2486C80.6383 54.2486 79.4191 53.9556 78.4603 53.3697C77.5015 52.7778 76.8297 51.9551 76.445 50.9016C76.0603 49.8422 75.9863 48.6141 76.2231 47.2173C76.448 45.8205 76.9274 44.5954 77.6613 43.5419C78.4011 42.4825 79.3481 41.6598 80.5022 41.0739C81.6622 40.482 82.9821 40.1861 84.4617 40.1861C85.7993 40.1861 86.915 40.4287 87.8087 40.9141C88.7083 41.3935 89.3505 42.0741 89.7352 42.956C90.1258 43.8319 90.2264 44.8617 90.037 46.0455H85.4915C85.5448 45.3352 85.4294 44.7907 85.1453 44.4119C84.8671 44.0331 84.4617 43.8438 83.929 43.8438C83.4911 43.8438 83.0886 43.968 82.7217 44.2166C82.3606 44.4593 82.0499 44.8292 81.7895 45.3263C81.535 45.8176 81.3486 46.4361 81.2302 47.1818C81.1118 47.9276 81.097 48.549 81.1858 49.0462C81.2805 49.5374 81.464 49.9073 81.7362 50.1559C82.0144 50.3986 82.3665 50.5199 82.7927 50.5199C83.1596 50.5199 83.497 50.437 83.8048 50.2713C84.1184 50.0997 84.3877 49.8511 84.6126 49.5256C84.8435 49.1941 85.0181 48.7917 85.1364 48.3182H89.6819C89.457 49.5256 89.0042 50.5732 88.3236 51.4609C87.6429 52.3487 86.7759 53.0353 85.7224 53.5206C84.6689 54.0059 83.4674 54.2486 82.118 54.2486ZM93.2399 54.2841C92.5474 54.2841 91.9822 54.0444 91.5442 53.565C91.1122 53.0797 90.9317 52.4908 91.0027 51.7983C91.0737 51.1236 91.3785 50.5465 91.9171 50.0671C92.4616 49.5877 93.0801 49.348 93.7726 49.348C94.4295 49.348 94.977 49.5877 95.415 50.0671C95.8589 50.5465 96.0453 51.1236 95.9743 51.7983C95.9269 52.2599 95.7642 52.6802 95.486 53.0589C95.2137 53.4318 94.8764 53.7307 94.4739 53.9556C94.0774 54.1746 93.666 54.2841 93.2399 54.2841ZM41.1192 73.8182L38.1008 92H33.1647L35.4374 78.3636H35.3309L30.963 80.7429L31.6377 76.5526L36.5738 73.8182H41.1192ZM41.5589 92L42.1449 88.4489L49.8686 82.8381C50.3835 82.4652 50.8274 82.116 51.2002 81.7905C51.579 81.459 51.8838 81.1187 52.1147 80.7695C52.3455 80.4203 52.4964 80.0327 52.5674 79.6065C52.6444 79.139 52.6089 78.7395 52.4609 78.408C52.3189 78.0707 52.088 77.8132 51.7684 77.6357C51.4488 77.4581 51.0641 77.3693 50.6143 77.3693C50.1586 77.3693 49.7413 77.4611 49.3625 77.6445C48.9837 77.828 48.6671 78.0973 48.4126 78.4524C48.164 78.8075 47.9983 79.2396 47.9154 79.7486H43.2279C43.441 78.4702 43.9115 77.3693 44.6395 76.446C45.3734 75.5227 46.3026 74.8125 47.4272 74.3153C48.5576 73.8182 49.8271 73.5696 51.2358 73.5696C52.6917 73.5696 53.9169 73.8034 54.9112 74.271C55.9055 74.7326 56.6246 75.3836 57.0685 76.2241C57.5183 77.0645 57.6456 78.05 57.4502 79.1804C57.3319 79.8788 57.0685 80.5713 56.6601 81.2578C56.2577 81.9444 55.6096 82.7079 54.7159 83.5483C53.8281 84.3828 52.597 85.3771 51.0227 86.5312L49.0873 87.9517L49.0696 88.0582H56.1718L55.5149 92H41.5589ZM65.294 92.4972C63.6368 92.4972 62.2667 92.1184 61.1836 91.3608C60.1005 90.5973 59.3518 89.5024 58.9375 88.076C58.5232 86.6496 58.4877 84.9392 58.831 82.9446C59.1742 80.9441 59.7868 79.2455 60.6687 77.8487C61.5565 76.4519 62.6573 75.3896 63.9712 74.6616C65.2911 73.9336 66.7737 73.5696 68.419 73.5696C70.0644 73.5696 71.4257 73.9336 72.5028 74.6616C73.58 75.3896 74.3287 76.4519 74.7489 77.8487C75.1692 79.2396 75.2135 80.9382 74.8821 82.9446C74.5507 84.9451 73.9411 86.6585 73.0533 88.0849C72.1714 89.5112 71.0676 90.6032 69.7418 91.3608C68.422 92.1184 66.9394 92.4972 65.294 92.4972ZM65.9688 88.4844C66.821 88.4844 67.5845 88.0405 68.2592 87.1527C68.9399 86.259 69.4429 84.8563 69.7685 82.9446C69.9815 81.7017 70.0318 80.6837 69.9194 79.8906C69.8069 79.0916 69.5643 78.5027 69.1914 78.1239C68.8185 77.7392 68.348 77.5469 67.7798 77.5469C66.9276 77.5469 66.1522 77.9819 65.4538 78.8519C64.7614 79.716 64.2583 81.0803 63.9446 82.9446C63.7315 84.223 63.6842 85.2706 63.8026 86.0874C63.9209 86.9041 64.1695 87.5078 64.5483 87.8984C64.9271 88.2891 65.4006 88.4844 65.9688 88.4844ZM91.2178 85.9631H81.2391L81.8783 82.1278H91.6794C92.3127 82.1278 92.8424 82.0509 93.2685 81.897C93.7006 81.7372 94.035 81.5064 94.2717 81.2045C94.5144 80.8968 94.6683 80.518 94.7334 80.0682C94.8103 79.642 94.7837 79.2514 94.6535 78.8963C94.5292 78.5412 94.2954 78.2571 93.9521 78.044C93.6148 77.831 93.165 77.7244 92.6027 77.7244H89.9038L87.5246 92H82.624L85.6425 73.8182H93.2419C94.7393 73.8182 96.0059 74.0816 97.0416 74.6083C98.0833 75.1351 98.8379 75.863 99.3055 76.7923C99.779 77.7215 99.9121 78.7898 99.705 79.9972C99.4978 81.2992 98.9977 82.3942 98.2046 83.282C97.4115 84.1638 96.4113 84.8326 95.2039 85.2884C93.9965 85.7382 92.6678 85.9631 91.2178 85.9631ZM92.3541 86.7798L91.7149 90.6151H80.4933L81.1325 86.7798H92.3541Z" fill="#FF9500"/>
</g>
<rect width="128" height="128" rx="51.2" fill="#1D222B"/>
<g opacity="0.4" filter="url(#filter4_f_99_78)">
<circle cx="64" cy="64" r="46.375" fill="#0FA958" stroke="black" stroke-width="5.25"/>
<circle cx="64" cy="64" r="34.125" fill="#FFF4D9" stroke="black" stroke-width="5.25"/>
<path d="M63.125 85.8544C52.3833 85.3485 42.6515 75.6167 42.1456 64.875" stroke="black" stroke-width="5.25" stroke-linecap="round"/>
<path d="M61.375 45.625V61.375C61.375 64.2745 63.7255 66.625 66.625 66.625H79.75" stroke="black" stroke-width="5.25" stroke-linejoin="round"/>
<path d="M54.375 50.875C57.875 47.375 59.625 45.625 61.375 45.625C63.125 45.625 64.875 47.375 68.375 50.875" stroke="black" stroke-width="5.25" stroke-linecap="round"/>
<path d="M77.125 59.625C80.625 63.125 82.375 64.875 82.375 66.625C82.375 68.375 80.625 70.125 77.125 73.625" stroke="black" stroke-width="5.25" stroke-linecap="round"/>
</g>
<g filter="url(#filter5_d_99_78)">
<path d="M41.1192 35.8182L38.1008 54H33.1647L35.4374 40.3636H35.3309L30.963 42.7429L31.6377 38.5526L36.5738 35.8182H41.1192ZM61.2857 40.3636L59.013 54H54.432L56.7047 40.3636H61.2857ZM57.9476 46.0099L57.3439 49.6676C57.1664 49.7741 56.8645 49.8807 56.4384 49.9872C56.0182 50.0878 55.5802 50.1737 55.1245 50.2447C54.6687 50.3098 54.2959 50.3423 54.0059 50.3423C51.7746 50.3423 50.0996 49.9458 48.981 49.1527C47.8624 48.3596 47.454 47.0398 47.7559 45.1932L48.5726 40.3636H53.1181L52.3013 45.1932C52.2362 45.6075 52.2451 45.9212 52.3279 46.1342C52.4167 46.3473 52.6357 46.4923 52.9849 46.5692C53.34 46.6462 53.8816 46.6847 54.6096 46.6847C55.0594 46.6847 55.5506 46.6314 56.0833 46.5249C56.6219 46.4124 57.2433 46.2408 57.9476 46.0099ZM64.8526 54.2131C63.9885 54.2131 63.2457 54.071 62.6242 53.7869C62.0087 53.4969 61.5589 53.0589 61.2748 52.473C60.9966 51.8812 60.9345 51.1354 61.0884 50.2358C61.2127 49.4901 61.4464 48.8538 61.7897 48.3271C62.133 47.8003 62.5591 47.3683 63.0681 47.0309C63.5771 46.6935 64.1483 46.4361 64.7816 46.2585C65.4208 46.075 66.0955 45.9567 66.8057 45.9034C67.5751 45.8442 68.1995 45.7702 68.6789 45.6815C69.1583 45.5927 69.5164 45.4714 69.7531 45.3175C69.9899 45.1636 70.1319 44.9564 70.1793 44.696V44.6605C70.2325 44.3054 70.1378 44.0331 69.8952 43.8438C69.6584 43.6544 69.327 43.5597 68.9009 43.5597C68.4392 43.5597 68.0397 43.6603 67.7024 43.8615C67.3709 44.0627 67.1431 44.3764 67.0188 44.8026H62.5088C62.6982 43.974 63.0859 43.2105 63.6718 42.5121C64.2637 41.8078 65.0479 41.2455 66.0244 40.8253C67.0069 40.3991 68.1788 40.1861 69.5401 40.1861C70.5107 40.1861 71.363 40.3015 72.0969 40.5323C72.8308 40.7572 73.4374 41.0739 73.9168 41.4822C74.4022 41.8847 74.7425 42.3582 74.9378 42.9027C75.139 43.4413 75.1864 44.0272 75.0798 44.6605L73.5173 54H68.9364L69.256 52.0824H69.1494C68.7943 52.5914 68.3948 53.0027 67.9509 53.3164C67.513 53.6301 67.0336 53.858 66.5127 54C65.9978 54.142 65.4444 54.2131 64.8526 54.2131ZM66.9833 51.1236C67.3502 51.1236 67.7112 51.0466 68.0664 50.8928C68.4215 50.7389 68.7263 50.5169 68.9808 50.2269C69.2353 49.9369 69.398 49.5848 69.4691 49.1705L69.6466 48.0341C69.5164 48.0874 69.3714 48.1377 69.2116 48.185C69.0577 48.2264 68.895 48.2679 68.7233 48.3093C68.5576 48.3507 68.38 48.3892 68.1906 48.4247C68.0072 48.4602 67.8178 48.4957 67.6225 48.5312C67.2318 48.5904 66.9034 48.6881 66.637 48.8242C66.3707 48.9544 66.1635 49.1172 66.0156 49.3125C65.8676 49.5019 65.7759 49.715 65.7404 49.9517C65.6871 50.3246 65.7729 50.6146 65.9978 50.8217C66.2286 51.023 66.5571 51.1236 66.9833 51.1236ZM82.118 54.2486C80.6383 54.2486 79.4191 53.9556 78.4603 53.3697C77.5015 52.7778 76.8297 51.9551 76.445 50.9016C76.0603 49.8422 75.9863 48.6141 76.2231 47.2173C76.448 45.8205 76.9274 44.5954 77.6613 43.5419C78.4011 42.4825 79.3481 41.6598 80.5022 41.0739C81.6622 40.482 82.9821 40.1861 84.4617 40.1861C85.7993 40.1861 86.915 40.4287 87.8087 40.9141C88.7083 41.3935 89.3505 42.0741 89.7352 42.956C90.1258 43.8319 90.2264 44.8617 90.037 46.0455H85.4915C85.5448 45.3352 85.4294 44.7907 85.1453 44.4119C84.8671 44.0331 84.4617 43.8438 83.929 43.8438C83.4911 43.8438 83.0886 43.968 82.7217 44.2166C82.3606 44.4593 82.0499 44.8292 81.7895 45.3263C81.535 45.8176 81.3486 46.4361 81.2302 47.1818C81.1118 47.9276 81.097 48.549 81.1858 49.0462C81.2805 49.5374 81.464 49.9073 81.7362 50.1559C82.0144 50.3986 82.3665 50.5199 82.7927 50.5199C83.1596 50.5199 83.497 50.437 83.8048 50.2713C84.1184 50.0997 84.3877 49.8511 84.6126 49.5256C84.8435 49.1941 85.0181 48.7917 85.1364 48.3182H89.6819C89.457 49.5256 89.0042 50.5732 88.3236 51.4609C87.6429 52.3487 86.7759 53.0353 85.7224 53.5206C84.6689 54.0059 83.4674 54.2486 82.118 54.2486ZM93.2399 54.2841C92.5474 54.2841 91.9822 54.0444 91.5442 53.565C91.1122 53.0797 90.9317 52.4908 91.0027 51.7983C91.0737 51.1236 91.3785 50.5465 91.9171 50.0671C92.4616 49.5877 93.0801 49.348 93.7726 49.348C94.4295 49.348 94.977 49.5877 95.415 50.0671C95.8589 50.5465 96.0453 51.1236 95.9743 51.7983C95.9269 52.2599 95.7642 52.6802 95.486 53.0589C95.2137 53.4318 94.8764 53.7307 94.4739 53.9556C94.0774 54.1746 93.666 54.2841 93.2399 54.2841ZM41.1192 73.8182L38.1008 92H33.1647L35.4374 78.3636H35.3309L30.963 80.7429L31.6377 76.5526L36.5738 73.8182H41.1192ZM41.5589 92L42.1449 88.4489L49.8686 82.8381C50.3835 82.4652 50.8274 82.116 51.2002 81.7905C51.579 81.459 51.8838 81.1187 52.1147 80.7695C52.3455 80.4203 52.4964 80.0327 52.5674 79.6065C52.6444 79.139 52.6089 78.7395 52.4609 78.408C52.3189 78.0707 52.088 77.8132 51.7684 77.6357C51.4488 77.4581 51.0641 77.3693 50.6143 77.3693C50.1586 77.3693 49.7413 77.4611 49.3625 77.6445C48.9837 77.828 48.6671 78.0973 48.4126 78.4524C48.164 78.8075 47.9983 79.2396 47.9154 79.7486H43.2279C43.441 78.4702 43.9115 77.3693 44.6395 76.446C45.3734 75.5227 46.3026 74.8125 47.4272 74.3153C48.5576 73.8182 49.8271 73.5696 51.2358 73.5696C52.6917 73.5696 53.9169 73.8034 54.9112 74.271C55.9055 74.7326 56.6246 75.3836 57.0685 76.2241C57.5183 77.0645 57.6456 78.05 57.4502 79.1804C57.3319 79.8788 57.0685 80.5713 56.6601 81.2578C56.2577 81.9444 55.6096 82.7079 54.7159 83.5483C53.8281 84.3828 52.597 85.3771 51.0227 86.5312L49.0873 87.9517L49.0696 88.0582H56.1718L55.5149 92H41.5589ZM65.294 92.4972C63.6368 92.4972 62.2667 92.1184 61.1836 91.3608C60.1005 90.5973 59.3518 89.5024 58.9375 88.076C58.5232 86.6496 58.4877 84.9392 58.831 82.9446C59.1742 80.9441 59.7868 79.2455 60.6687 77.8487C61.5565 76.4519 62.6573 75.3896 63.9712 74.6616C65.2911 73.9336 66.7737 73.5696 68.419 73.5696C70.0644 73.5696 71.4257 73.9336 72.5028 74.6616C73.58 75.3896 74.3287 76.4519 74.7489 77.8487C75.1692 79.2396 75.2135 80.9382 74.8821 82.9446C74.5507 84.9451 73.9411 86.6585 73.0533 88.0849C72.1714 89.5112 71.0676 90.6032 69.7418 91.3608C68.422 92.1184 66.9394 92.4972 65.294 92.4972ZM65.9688 88.4844C66.821 88.4844 67.5845 88.0405 68.2592 87.1527C68.9399 86.259 69.4429 84.8563 69.7685 82.9446C69.9815 81.7017 70.0318 80.6837 69.9194 79.8906C69.8069 79.0916 69.5643 78.5027 69.1914 78.1239C68.8185 77.7392 68.348 77.5469 67.7798 77.5469C66.9276 77.5469 66.1522 77.9819 65.4538 78.8519C64.7614 79.716 64.2583 81.0803 63.9446 82.9446C63.7315 84.223 63.6842 85.2706 63.8026 86.0874C63.9209 86.9041 64.1695 87.5078 64.5483 87.8984C64.9271 88.2891 65.4006 88.4844 65.9688 88.4844ZM91.2178 85.9631H81.2391L81.8783 82.1278H91.6794C92.3127 82.1278 92.8424 82.0509 93.2685 81.897C93.7006 81.7372 94.035 81.5064 94.2717 81.2045C94.5144 80.8968 94.6683 80.518 94.7334 80.0682C94.8103 79.642 94.7837 79.2514 94.6535 78.8963C94.5292 78.5412 94.2954 78.2571 93.9521 78.044C93.6148 77.831 93.165 77.7244 92.6027 77.7244H89.9038L87.5246 92H82.624L85.6425 73.8182H93.2419C94.7393 73.8182 96.0059 74.0816 97.0416 74.6083C98.0833 75.1351 98.8379 75.863 99.3055 76.7923C99.779 77.7215 99.9121 78.7898 99.705 79.9972C99.4978 81.2992 98.9977 82.3942 98.2046 83.282C97.4115 84.1638 96.4113 84.8326 95.2039 85.2884C93.9965 85.7382 92.6678 85.9631 91.2178 85.9631ZM92.3541 86.7798L91.7149 90.6151H80.4933L81.1325 86.7798H92.3541Z" fill="#FF9500"/>
</g>
<rect x="1" width="128" height="128" rx="51.2" fill="#1D222B"/>
<g opacity="0.3" filter="url(#filter6_f_99_78)">
<circle cx="65" cy="64" r="46.375" fill="#0FA958" stroke="black" stroke-width="5.25"/>
<circle cx="65" cy="64" r="34.125" fill="#FFF4D9" stroke="black" stroke-width="5.25"/>
<path d="M64.125 85.8544C53.3833 85.3485 43.6515 75.6167 43.1456 64.875" stroke="black" stroke-width="5.25" stroke-linecap="round"/>
<path d="M62.375 45.625V61.375C62.375 64.2745 64.7255 66.625 67.625 66.625H80.75" stroke="black" stroke-width="5.25" stroke-linejoin="round"/>
<path d="M55.375 50.875C58.875 47.375 60.625 45.625 62.375 45.625C64.125 45.625 65.875 47.375 69.375 50.875" stroke="black" stroke-width="5.25" stroke-linecap="round"/>
<path d="M78.125 59.625C81.625 63.125 83.375 64.875 83.375 66.625C83.375 68.375 81.625 70.125 78.125 73.625" stroke="black" stroke-width="5.25" stroke-linecap="round"/>
</g>
<g filter="url(#filter7_d_99_78)">
<path d="M23.3008 52.2486C21.975 52.2486 20.7972 52.0089 19.7674 51.5295C18.7376 51.0501 17.9238 50.3902 17.326 49.5497C16.7341 48.7093 16.4264 47.7446 16.4027 46.6555H20.6641C20.6996 47.3243 20.9718 47.8629 21.4808 48.2713C21.9898 48.6738 22.5965 48.875 23.3008 48.875C23.8512 48.875 24.3395 48.7537 24.7656 48.511C25.1918 48.2683 25.5262 47.928 25.7688 47.4901C26.0115 47.0462 26.1299 46.5372 26.1239 45.9631C26.1299 45.3771 26.0085 44.8652 25.7599 44.4272C25.5173 43.9892 25.1799 43.6489 24.7479 43.4062C24.3217 43.1577 23.8305 43.0334 23.2741 43.0334C22.7474 43.0275 22.2473 43.1429 21.7738 43.3796C21.3062 43.6164 20.9511 43.9389 20.7085 44.3473L16.8288 43.6193L17.619 33.8182H29.2844V37.3604H21.2322L20.815 41.6484H20.9215C21.2234 41.1454 21.7087 40.7311 22.3775 40.4055C23.0522 40.0741 23.8187 39.9084 24.6768 39.9084C25.7659 39.9084 26.7365 40.1629 27.5888 40.6719C28.447 41.175 29.1217 41.8733 29.6129 42.767C30.1101 43.6607 30.3587 44.6847 30.3587 45.8388C30.3587 47.0876 30.0627 48.1944 29.4709 49.1591C28.8849 50.1238 28.0623 50.8814 27.0028 51.4318C25.9493 51.9763 24.7153 52.2486 23.3008 52.2486ZM49.9059 38.3636V52H45.8221V38.3636H49.9059ZM47.8373 44.1786V47.4989C47.6065 47.6173 47.281 47.7327 46.8608 47.8452C46.4465 47.9517 46.0085 48.0405 45.5469 48.1115C45.0911 48.1825 44.6857 48.218 44.3306 48.218C42.2354 48.218 40.593 47.8185 39.4034 47.0195C38.2197 46.2146 37.6278 44.9066 37.6278 43.0955V38.3548H41.685V43.0955C41.685 43.5631 41.759 43.9271 41.9069 44.1875C42.0608 44.4479 42.3272 44.6314 42.7059 44.7379C43.0907 44.8445 43.6322 44.8977 44.3306 44.8977C44.8633 44.8977 45.4078 44.8385 45.9641 44.7202C46.5264 44.5959 47.1508 44.4154 47.8373 44.1786ZM56.1139 52.2308C55.2439 52.2308 54.4715 52.0858 53.7968 51.7958C53.128 51.4999 52.5983 51.056 52.2077 50.4641C51.823 49.8664 51.6306 49.1177 51.6306 48.218C51.6306 47.4605 51.7638 46.8213 52.0301 46.3004C52.2964 45.7796 52.6634 45.3564 53.131 45.0309C53.5985 44.7054 54.1371 44.4598 54.7467 44.294C55.3563 44.1224 56.0074 44.007 56.6999 43.9478C57.4752 43.8768 58.0996 43.8028 58.5731 43.7259C59.0466 43.643 59.3898 43.5276 59.6029 43.3796C59.8219 43.2257 59.9314 43.0097 59.9314 42.7315V42.6871C59.9314 42.2314 59.7745 41.8793 59.4609 41.6307C59.1472 41.3821 58.724 41.2578 58.1913 41.2578C57.6172 41.2578 57.1556 41.3821 56.8064 41.6307C56.4572 41.8793 56.2353 42.2225 56.1406 42.6605L52.1366 42.5185C52.255 41.6899 52.5598 40.95 53.0511 40.299C53.5482 39.642 54.2289 39.1271 55.093 38.7543C55.963 38.3755 57.0076 38.1861 58.2268 38.1861C59.0969 38.1861 59.8988 38.2897 60.6327 38.4968C61.3666 38.698 62.0058 38.994 62.5504 39.3846C63.0949 39.7693 63.5151 40.2428 63.811 40.805C64.1129 41.3673 64.2638 42.0095 64.2638 42.7315V52H60.18V50.1001H60.0734C59.8308 50.5618 59.5201 50.9524 59.1413 51.272C58.7684 51.5916 58.3275 51.8313 57.8185 51.9911C57.3154 52.1509 56.7472 52.2308 56.1139 52.2308ZM57.4545 49.3899C57.922 49.3899 58.3423 49.2952 58.7151 49.1058C59.0939 48.9164 59.3958 48.656 59.6207 48.3246C59.8456 47.9872 59.958 47.5966 59.958 47.1527V45.8565C59.8337 45.9216 59.6828 45.9808 59.5053 46.0341C59.3336 46.0874 59.1442 46.1377 58.9371 46.185C58.7299 46.2324 58.5169 46.2738 58.2979 46.3093C58.0789 46.3448 57.8688 46.3774 57.6675 46.407C57.2592 46.4721 56.91 46.5727 56.62 46.7088C56.3359 46.8449 56.1169 47.0225 55.963 47.2415C55.815 47.4545 55.7411 47.709 55.7411 48.005C55.7411 48.4548 55.9009 48.7981 56.2205 49.0348C56.546 49.2715 56.9573 49.3899 57.4545 49.3899ZM73.0087 52.2575C71.5705 52.2575 70.3364 51.9615 69.3066 51.3697C68.2827 50.7778 67.4955 49.9551 66.9451 48.9016C66.3947 47.8422 66.1195 46.6171 66.1195 45.2262C66.1195 43.8294 66.3947 42.6043 66.9451 41.5508C67.5014 40.4914 68.2916 39.6657 69.3155 39.0739C70.3453 38.482 71.5734 38.1861 72.9998 38.1861C74.2604 38.1861 75.3583 38.4139 76.2935 38.8697C77.2345 39.3254 77.9684 39.9705 78.4952 40.805C79.0278 41.6336 79.309 42.6072 79.3386 43.7259H75.2814C75.1985 43.0275 74.9618 42.48 74.5712 42.0835C74.1865 41.6869 73.6834 41.4886 73.0619 41.4886C72.5589 41.4886 72.1179 41.6307 71.7391 41.9148C71.3603 42.1929 71.0644 42.6072 70.8514 43.1577C70.6442 43.7022 70.5406 44.3769 70.5406 45.1818C70.5406 45.9867 70.6442 46.6674 70.8514 47.2237C71.0644 47.7741 71.3603 48.1914 71.7391 48.4755C72.1179 48.7537 72.5589 48.8928 73.0619 48.8928C73.4644 48.8928 73.8195 48.8069 74.1273 48.6353C74.441 48.4637 74.6984 48.2121 74.8996 47.8807C75.1009 47.5433 75.2281 47.1349 75.2814 46.6555H79.3386C79.2971 47.7801 79.016 48.7625 78.4952 49.603C77.9803 50.4434 77.2552 51.0974 76.3201 51.565C75.3909 52.0266 74.2871 52.2575 73.0087 52.2575ZM87.6507 52.2575C86.2184 52.2575 84.9873 51.9645 83.9575 51.3786C82.9336 50.7867 82.1434 49.964 81.5871 48.9105C81.0367 47.8511 80.7615 46.623 80.7615 45.2262C80.7615 43.8235 81.0367 42.5954 81.5871 41.5419C82.1434 40.4825 82.9336 39.6598 83.9575 39.0739C84.9873 38.482 86.2184 38.1861 87.6507 38.1861C89.0829 38.1861 90.311 38.482 91.335 39.0739C92.3648 39.6598 93.1549 40.4825 93.7053 41.5419C94.2617 42.5954 94.5399 43.8235 94.5399 45.2262C94.5399 46.623 94.2617 47.8511 93.7053 48.9105C93.1549 49.964 92.3648 50.7867 91.335 51.3786C90.311 51.9645 89.0829 52.2575 87.6507 52.2575ZM87.6773 48.9815C88.1981 48.9815 88.6391 48.8217 89.0001 48.5021C89.3611 48.1825 89.6363 47.7386 89.8257 47.1705C90.021 46.6023 90.1187 45.9453 90.1187 45.1996C90.1187 44.442 90.021 43.7791 89.8257 43.2109C89.6363 42.6428 89.3611 42.1989 89.0001 41.8793C88.6391 41.5597 88.1981 41.3999 87.6773 41.3999C87.1387 41.3999 86.683 41.5597 86.3101 41.8793C85.9432 42.1989 85.662 42.6428 85.4667 43.2109C85.2773 43.7791 85.1826 44.442 85.1826 45.1996C85.1826 45.9453 85.2773 46.6023 85.4667 47.1705C85.662 47.7386 85.9432 48.1825 86.3101 48.5021C86.683 48.8217 87.1387 48.9815 87.6773 48.9815ZM96.4888 52V38.3636H102.375C104.133 38.3636 105.518 38.6803 106.53 39.3136C107.548 39.9409 108.057 40.8613 108.057 42.0746C108.057 42.7789 107.77 43.3855 107.195 43.8945C106.627 44.3976 105.819 44.7379 104.772 44.9155C105.695 44.9628 106.462 45.1463 107.071 45.4659C107.681 45.7855 108.136 46.1909 108.438 46.6822C108.74 47.1734 108.891 47.6972 108.891 48.2536C108.891 49.0585 108.675 49.7391 108.243 50.2955C107.811 50.8518 107.178 51.275 106.343 51.565C105.515 51.855 104.497 52 103.289 52H96.4888ZM100.528 48.8572H103.289C103.751 48.8572 104.112 48.7478 104.372 48.5288C104.639 48.3098 104.772 48.0079 104.772 47.6232C104.772 47.2089 104.639 46.8834 104.372 46.6467C104.112 46.4099 103.751 46.2915 103.289 46.2915H100.528V48.8572ZM100.528 43.9389H102.49C102.804 43.9389 103.073 43.8916 103.298 43.7969C103.523 43.7022 103.695 43.5661 103.813 43.3885C103.937 43.2109 103.999 42.9979 103.999 42.7493C103.999 42.3883 103.854 42.1042 103.564 41.897C103.28 41.6899 102.884 41.5863 102.375 41.5863H100.528V43.9389ZM113.206 52.2575C112.567 52.2575 112.019 52.0326 111.564 51.5827C111.114 51.1329 110.892 50.5884 110.898 49.9492C110.892 49.3219 111.114 48.7862 111.564 48.3423C112.019 47.8925 112.567 47.6676 113.206 47.6676C113.81 47.6676 114.342 47.8925 114.804 48.3423C115.272 48.7862 115.508 49.3219 115.514 49.9492C115.508 50.3754 115.396 50.763 115.177 51.1122C114.964 51.4614 114.683 51.7396 114.333 51.9467C113.99 52.1539 113.614 52.2575 113.206 52.2575ZM31.4069 86.9815V83.5547L38.8554 71.8182H41.9005V76.4702H40.1338L35.7748 83.3771V83.5192H46.5614V86.9815H31.4069ZM40.1871 90V85.9339L40.2759 84.4336V71.8182H44.3863V90H40.1871ZM55.8789 90.2486C54.8846 90.2486 53.9317 90.0888 53.0202 89.7692C52.1087 89.4437 51.2979 88.9287 50.5877 88.2244C49.8775 87.5142 49.3181 86.585 48.9098 85.4368C48.5014 84.2827 48.3002 82.877 48.3061 81.2198C48.312 79.7224 48.4955 78.3789 48.8565 77.1893C49.2175 75.9937 49.7324 74.9787 50.4012 74.1442C51.076 73.3097 51.8809 72.6734 52.816 72.2354C53.7571 71.7915 54.8076 71.5696 55.9677 71.5696C57.2401 71.5696 58.3617 71.8182 59.3324 72.3153C60.3089 72.8066 61.0902 73.4695 61.6761 74.304C62.262 75.1326 62.6083 76.0559 62.7148 77.0739H58.3913C58.2611 76.4998 57.974 76.0647 57.5302 75.7688C57.0922 75.467 56.5713 75.3161 55.9677 75.3161C54.855 75.3161 54.0234 75.7984 53.473 76.7631C52.9285 77.7279 52.6503 79.0181 52.6385 80.6339H52.7539C53.0025 80.0894 53.3605 79.6218 53.8281 79.2312C54.2957 78.8406 54.8313 78.5417 55.435 78.3345C56.0446 78.1214 56.6897 78.0149 57.3703 78.0149C58.4594 78.0149 59.4211 78.2665 60.2556 78.7695C61.0902 79.2726 61.7442 79.9621 62.2177 80.8381C62.6911 81.7081 62.9249 82.7054 62.919 83.8299C62.9249 85.0965 62.629 86.2151 62.0312 87.1857C61.4334 88.1504 60.6048 88.9021 59.5454 89.4407C58.4919 89.9793 57.2697 90.2486 55.8789 90.2486ZM55.8522 86.875C56.3908 86.875 56.8732 86.7478 57.2993 86.4933C57.7255 86.2388 58.0599 85.8925 58.3025 85.4545C58.5452 85.0166 58.6636 84.5224 58.6576 83.9719C58.6636 83.4156 58.5452 82.9214 58.3025 82.4893C58.0658 82.0573 57.7343 81.714 57.3082 81.4595C56.888 81.205 56.4056 81.0778 55.8611 81.0778C55.4646 81.0778 55.0947 81.1518 54.7514 81.2997C54.4081 81.4477 54.1092 81.6548 53.8547 81.9212C53.6061 82.1816 53.4108 82.4893 53.2688 82.8445C53.1267 83.1937 53.0528 83.5724 53.0468 83.9808C53.0528 84.5194 53.177 85.0077 53.4197 85.4457C53.6624 85.8836 53.9938 86.2328 54.414 86.4933C54.8342 86.7478 55.3136 86.875 55.8522 86.875ZM72.656 90.4439C71.0698 90.4439 69.7026 90.0681 68.5544 89.3164C67.4062 88.5588 66.5214 87.4728 65.8999 86.0582C65.2785 84.6378 64.9707 82.9303 64.9767 80.9357C64.9826 78.9412 65.2933 77.2485 65.9088 75.8576C66.5303 74.4608 67.4121 73.3984 68.5544 72.6705C69.7026 71.9366 71.0698 71.5696 72.656 71.5696C74.2422 71.5696 75.6093 71.9366 76.7575 72.6705C77.9117 73.3984 78.7994 74.4608 79.4209 75.8576C80.0423 77.2544 80.3501 78.9471 80.3442 80.9357C80.3442 82.9362 80.0335 84.6467 79.412 86.0671C78.7906 87.4876 77.9057 88.5736 76.7575 89.3253C75.6153 90.071 74.2481 90.4439 72.656 90.4439ZM72.656 86.8484C73.603 86.8484 74.3694 86.366 74.9553 85.4013C75.5413 84.4306 75.8313 82.9421 75.8254 80.9357C75.8254 79.6218 75.6922 78.5387 75.4259 77.6864C75.1595 76.8282 74.7896 76.189 74.3161 75.7688C73.8427 75.3486 73.2893 75.1385 72.656 75.1385C71.7149 75.1385 70.9544 75.6149 70.3744 76.5678C69.7944 77.5148 69.5014 78.9708 69.4955 80.9357C69.4896 82.2674 69.6168 83.3712 69.8772 84.2472C70.1436 85.1231 70.5164 85.7771 70.9958 86.2092C71.4752 86.6353 72.0286 86.8484 72.656 86.8484ZM97.4034 83.6967H87.5756V80.2344H97.2613C97.942 80.2344 98.4954 80.1426 98.9215 79.9592C99.3536 79.7698 99.6702 79.5034 99.8714 79.1602C100.079 78.811 100.179 78.3907 100.173 77.8995C100.179 77.426 100.079 76.9969 99.8714 76.6122C99.6702 76.2216 99.3624 75.9109 98.9481 75.68C98.5398 75.4492 98.0248 75.3338 97.4034 75.3338H94.4204V90H90.0525V71.8182H97.4034C98.8712 71.8182 100.144 72.0786 101.221 72.5994C102.298 73.1203 103.13 73.8335 103.716 74.739C104.301 75.6445 104.591 76.6773 104.586 77.8374C104.591 79.0803 104.293 80.1367 103.689 81.0067C103.091 81.8768 102.251 82.5426 101.168 83.0043C100.09 83.4659 98.8357 83.6967 97.4034 83.6967ZM98.3711 84.6911V88.1445H87.5756V84.6911H98.3711Z" fill="#FF9500"/>
</g>
<defs>
<filter id="filter0_f_99_78" x="4" y="4" width="120" height="120" filterUnits="userSpaceOnUse" color-interpolation-filters="sRGB">
<feFlood flood-opacity="0" result="BackgroundImageFix"/>
<feBlend mode="normal" in="SourceGraphic" in2="BackgroundImageFix" result="shape"/>
<feGaussianBlur stdDeviation="2" result="effect1_foregroundBlur_99_78"/>
</filter>
<filter id="filter1_d_99_78" x="26.963" y="35.8182" width="77.0527" height="64.679" filterUnits="userSpaceOnUse" color-interpolation-filters="sRGB">
<feFlood flood-opacity="0" result="BackgroundImageFix"/>
<feColorMatrix in="SourceAlpha" type="matrix" values="0 0 0 0 0 0 0 0 0 0 0 0 0 0 0 0 0 0 127 0" result="hardAlpha"/>
<feOffset dy="4"/>
<feGaussianBlur stdDeviation="2"/>
<feComposite in2="hardAlpha" operator="out"/>
<feColorMatrix type="matrix" values="0 0 0 0 0 0 0 0 0 0 0 0 0 0 0 0 0 0 0.25 0"/>
<feBlend mode="normal" in2="BackgroundImageFix" result="effect1_dropShadow_99_78"/>
<feBlend mode="normal" in="SourceGraphic" in2="effect1_dropShadow_99_78" result="shape"/>
</filter>
<filter id="filter2_f_99_78" x="4" y="4" width="120" height="120" filterUnits="userSpaceOnUse" color-interpolation-filters="sRGB">
<feFlood flood-opacity="0" result="BackgroundImageFix"/>
<feBlend mode="normal" in="SourceGraphic" in2="BackgroundImageFix" result="shape"/>
<feGaussianBlur stdDeviation="2" result="effect1_foregroundBlur_99_78"/>
</filter>
<filter id="filter3_d_99_78" x="26.963" y="35.8182" width="77.0527" height="64.679" filterUnits="userSpaceOnUse" color-interpolation-filters="sRGB">
<feFlood flood-opacity="0" result="BackgroundImageFix"/>
<feColorMatrix in="SourceAlpha" type="matrix" values="0 0 0 0 0 0 0 0 0 0 0 0 0 0 0 0 0 0 127 0" result="hardAlpha"/>
<feOffset dy="4"/>
<feGaussianBlur stdDeviation="2"/>
<feComposite in2="hardAlpha" operator="out"/>
<feColorMatrix type="matrix" values="0 0 0 0 0 0 0 0 0 0 0 0 0 0 0 0 0 0 0.25 0"/>
<feBlend mode="normal" in2="BackgroundImageFix" result="effect1_dropShadow_99_78"/>
<feBlend mode="normal" in="SourceGraphic" in2="effect1_dropShadow_99_78" result="shape"/>
</filter>
<filter id="filter4_f_99_78" x="4" y="4" width="120" height="120" filterUnits="userSpaceOnUse" color-interpolation-filters="sRGB">
<feFlood flood-opacity="0" result="BackgroundImageFix"/>
<feBlend mode="normal" in="SourceGraphic" in2="BackgroundImageFix" result="shape"/>
<feGaussianBlur stdDeviation="2" result="effect1_foregroundBlur_99_78"/>
</filter>
<filter id="filter5_d_99_78" x="26.963" y="35.8182" width="77.0527" height="64.679" filterUnits="userSpaceOnUse" color-interpolation-filters="sRGB">
<feFlood flood-opacity="0" result="BackgroundImageFix"/>
<feColorMatrix in="SourceAlpha" type="matrix" values="0 0 0 0 0 0 0 0 0 0 0 0 0 0 0 0 0 0 127 0" result="hardAlpha"/>
<feOffset dy="4"/>
<feGaussianBlur stdDeviation="2"/>
<feComposite in2="hardAlpha" operator="out"/>
<feColorMatrix type="matrix" values="0 0 0 0 0 0 0 0 0 0 0 0 0 0 0 0 0 0 0.25 0"/>
<feBlend mode="normal" in2="BackgroundImageFix" result="effect1_dropShadow_99_78"/>
<feBlend mode="normal" in="SourceGraphic" in2="effect1_dropShadow_99_78" result="shape"/>
</filter>
<filter id="filter6_f_99_78" x="5" y="4" width="120" height="120" filterUnits="userSpaceOnUse" color-interpolation-filters="sRGB">
<feFlood flood-opacity="0" result="BackgroundImageFix"/>
<feBlend mode="normal" in="SourceGraphic" in2="BackgroundImageFix" result="shape"/>
<feGaussianBlur stdDeviation="2" result="effect1_foregroundBlur_99_78"/>
</filter>
<filter id="filter7_d_99_78" x="12.4027" y="33.8182" width="107.111" height="64.6257" filterUnits="userSpaceOnUse" color-interpolation-filters="sRGB">
<feFlood flood-opacity="0" result="BackgroundImageFix"/>
<feColorMatrix in="SourceAlpha" type="matrix" values="0 0 0 0 0 0 0 0 0 0 0 0 0 0 0 0 0 0 127 0" result="hardAlpha"/>
<feOffset dy="4"/>
<feGaussianBlur stdDeviation="2"/>
<feComposite in2="hardAlpha" operator="out"/>
<feColorMatrix type="matrix" values="0 0 0 0 0 0 0 0 0 0 0 0 0 0 0 0 0 0 0.25 0"/>
<feBlend mode="normal" in2="BackgroundImageFix" result="effect1_dropShadow_99_78"/>
<feBlend mode="normal" in="SourceGraphic" in2="effect1_dropShadow_99_78" result="shape"/>
</filter>
</defs>
</svg>
