<svg width="128" height="128" viewBox="0 0 128 128" fill="none" xmlns="http://www.w3.org/2000/svg">
<rect width="128" height="128" rx="51.2" fill="#1D222B"/>
<g opacity="0.2" filter="url(#filter0_b_75_67)">
<circle cx="64" cy="64" r="46.375" fill="#0FA958" stroke="black" stroke-width="5.25"/>
<circle cx="64" cy="64" r="34.125" fill="#FFF4D9" stroke="black" stroke-width="5.25"/>
<path d="M63.125 85.8544C52.3833 85.3485 42.6515 75.6167 42.1456 64.875" stroke="black" stroke-width="5.25" stroke-linecap="round"/>
<path d="M61.375 45.625V61.375C61.375 64.2745 63.7255 66.625 66.625 66.625H79.75" stroke="black" stroke-width="5.25" stroke-linejoin="round"/>
<path d="M54.375 50.875C57.875 47.375 59.625 45.625 61.375 45.625C63.125 45.625 64.875 47.375 68.375 50.875" stroke="black" stroke-width="5.25" stroke-linecap="round"/>
<path d="M77.125 59.625C80.625 63.125 82.375 64.875 82.375 66.625C82.375 68.375 80.625 70.125 77.125 73.625" stroke="black" stroke-width="5.25" stroke-linecap="round"/>
</g>
<g filter="url(#filter1_d_75_67)">
<path d="M41.1192 35.8182L38.1008 54H33.1647L35.4374 40.3636H35.3309L30.963 42.7429L31.6377 38.5526L36.5738 35.8182H41.1192ZM61.2857 40.3636L59.013 54H54.432L56.7047 40.3636H61.2857ZM57.9476 46.0099L57.3439 49.6676C57.1664 49.7741 56.8645 49.8807 56.4384 49.9872C56.0182 50.0878 55.5802 50.1737 55.1245 50.2447C54.6687 50.3098 54.2959 50.3423 54.0059 50.3423C51.7746 50.3423 50.0996 49.9458 48.981 49.1527C47.8624 48.3596 47.454 47.0398 47.7559 45.1932L48.5726 40.3636H53.1181L52.3013 45.1932C52.2362 45.6075 52.2451 45.9212 52.3279 46.1342C52.4167 46.3473 52.6357 46.4923 52.9849 46.5692C53.34 46.6462 53.8816 46.6847 54.6096 46.6847C55.0594 46.6847 55.5506 46.6314 56.0833 46.5249C56.6219 46.4124 57.2433 46.2408 57.9476 46.0099ZM64.8526 54.2131C63.9885 54.2131 63.2457 54.071 62.6242 53.7869C62.0087 53.4969 61.5589 53.0589 61.2748 52.473C60.9966 51.8812 60.9345 51.1354 61.0884 50.2358C61.2127 49.4901 61.4464 48.8538 61.7897 48.3271C62.133 47.8003 62.5591 47.3683 63.0681 47.0309C63.5771 46.6935 64.1483 46.4361 64.7816 46.2585C65.4208 46.075 66.0955 45.9567 66.8057 45.9034C67.5751 45.8442 68.1995 45.7702 68.6789 45.6815C69.1583 45.5927 69.5164 45.4714 69.7531 45.3175C69.9899 45.1636 70.1319 44.9564 70.1793 44.696V44.6605C70.2325 44.3054 70.1378 44.0331 69.8952 43.8438C69.6584 43.6544 69.327 43.5597 68.9009 43.5597C68.4392 43.5597 68.0397 43.6603 67.7024 43.8615C67.3709 44.0627 67.1431 44.3764 67.0188 44.8026H62.5088C62.6982 43.974 63.0859 43.2105 63.6718 42.5121C64.2637 41.8078 65.0479 41.2455 66.0244 40.8253C67.0069 40.3991 68.1788 40.1861 69.5401 40.1861C70.5107 40.1861 71.363 40.3015 72.0969 40.5323C72.8308 40.7572 73.4374 41.0739 73.9168 41.4822C74.4022 41.8847 74.7425 42.3582 74.9378 42.9027C75.139 43.4413 75.1864 44.0272 75.0798 44.6605L73.5173 54H68.9364L69.256 52.0824H69.1494C68.7943 52.5914 68.3948 53.0027 67.9509 53.3164C67.513 53.6301 67.0336 53.858 66.5127 54C65.9978 54.142 65.4444 54.2131 64.8526 54.2131ZM66.9833 51.1236C67.3502 51.1236 67.7112 51.0466 68.0664 50.8928C68.4215 50.7389 68.7263 50.5169 68.9808 50.2269C69.2353 49.9369 69.398 49.5848 69.4691 49.1705L69.6466 48.0341C69.5164 48.0874 69.3714 48.1377 69.2116 48.185C69.0577 48.2264 68.895 48.2679 68.7233 48.3093C68.5576 48.3507 68.38 48.3892 68.1906 48.4247C68.0072 48.4602 67.8178 48.4957 67.6225 48.5312C67.2318 48.5904 66.9034 48.6881 66.637 48.8242C66.3707 48.9544 66.1635 49.1172 66.0156 49.3125C65.8676 49.5019 65.7759 49.715 65.7404 49.9517C65.6871 50.3246 65.7729 50.6146 65.9978 50.8217C66.2286 51.023 66.5571 51.1236 66.9833 51.1236ZM82.118 54.2486C80.6383 54.2486 79.4191 53.9556 78.4603 53.3697C77.5015 52.7778 76.8297 51.9551 76.445 50.9016C76.0603 49.8422 75.9863 48.6141 76.2231 47.2173C76.448 45.8205 76.9274 44.5954 77.6613 43.5419C78.4011 42.4825 79.3481 41.6598 80.5022 41.0739C81.6622 40.482 82.9821 40.1861 84.4617 40.1861C85.7993 40.1861 86.915 40.4287 87.8087 40.9141C88.7083 41.3935 89.3505 42.0741 89.7352 42.956C90.1258 43.8319 90.2264 44.8617 90.037 46.0455H85.4915C85.5448 45.3352 85.4294 44.7907 85.1453 44.4119C84.8671 44.0331 84.4617 43.8438 83.929 43.8438C83.4911 43.8438 83.0886 43.968 82.7217 44.2166C82.3606 44.4593 82.0499 44.8292 81.7895 45.3263C81.535 45.8176 81.3486 46.4361 81.2302 47.1818C81.1118 47.9276 81.097 48.549 81.1858 49.0462C81.2805 49.5374 81.464 49.9073 81.7362 50.1559C82.0144 50.3986 82.3665 50.5199 82.7927 50.5199C83.1596 50.5199 83.497 50.437 83.8048 50.2713C84.1184 50.0997 84.3877 49.8511 84.6126 49.5256C84.8435 49.1941 85.0181 48.7917 85.1364 48.3182H89.6819C89.457 49.5256 89.0042 50.5732 88.3236 51.4609C87.6429 52.3487 86.7759 53.0353 85.7224 53.5206C84.6689 54.0059 83.4674 54.2486 82.118 54.2486ZM93.2399 54.2841C92.5474 54.2841 91.9822 54.0444 91.5442 53.565C91.1122 53.0797 90.9317 52.4908 91.0027 51.7983C91.0737 51.1236 91.3785 50.5465 91.9171 50.0671C92.4616 49.5877 93.0801 49.348 93.7726 49.348C94.4295 49.348 94.977 49.5877 95.415 50.0671C95.8589 50.5465 96.0453 51.1236 95.9743 51.7983C95.9269 52.2599 95.7642 52.6802 95.486 53.0589C95.2137 53.4318 94.8764 53.7307 94.4739 53.9556C94.0774 54.1746 93.666 54.2841 93.2399 54.2841ZM41.1192 73.8182L38.1008 92H33.1647L35.4374 78.3636H35.3309L30.963 80.7429L31.6377 76.5526L36.5738 73.8182H41.1192ZM41.5589 92L42.1449 88.4489L49.8686 82.8381C50.3835 82.4652 50.8274 82.116 51.2002 81.7905C51.579 81.459 51.8838 81.1187 52.1147 80.7695C52.3455 80.4203 52.4964 80.0327 52.5674 79.6065C52.6444 79.139 52.6089 78.7395 52.4609 78.408C52.3189 78.0707 52.088 77.8132 51.7684 77.6357C51.4488 77.4581 51.0641 77.3693 50.6143 77.3693C50.1586 77.3693 49.7413 77.4611 49.3625 77.6445C48.9837 77.828 48.6671 78.0973 48.4126 78.4524C48.164 78.8075 47.9983 79.2396 47.9154 79.7486H43.2279C43.441 78.4702 43.9115 77.3693 44.6395 76.446C45.3734 75.5227 46.3026 74.8125 47.4272 74.3153C48.5576 73.8182 49.8271 73.5696 51.2358 73.5696C52.6917 73.5696 53.9169 73.8034 54.9112 74.271C55.9055 74.7326 56.6246 75.3836 57.0685 76.2241C57.5183 77.0645 57.6456 78.05 57.4502 79.1804C57.3319 79.8788 57.0685 80.5713 56.6601 81.2578C56.2577 81.9444 55.6096 82.7079 54.7159 83.5483C53.8281 84.3828 52.597 85.3771 51.0227 86.5312L49.0873 87.9517L49.0696 88.0582H56.1718L55.5149 92H41.5589ZM65.294 92.4972C63.6368 92.4972 62.2667 92.1184 61.1836 91.3608C60.1005 90.5973 59.3518 89.5024 58.9375 88.076C58.5232 86.6496 58.4877 84.9392 58.831 82.9446C59.1742 80.9441 59.7868 79.2455 60.6687 77.8487C61.5565 76.4519 62.6573 75.3896 63.9712 74.6616C65.2911 73.9336 66.7737 73.5696 68.419 73.5696C70.0644 73.5696 71.4257 73.9336 72.5028 74.6616C73.58 75.3896 74.3287 76.4519 74.7489 77.8487C75.1692 79.2396 75.2135 80.9382 74.8821 82.9446C74.5507 84.9451 73.9411 86.6585 73.0533 88.0849C72.1714 89.5112 71.0676 90.6032 69.7418 91.3608C68.422 92.1184 66.9394 92.4972 65.294 92.4972ZM65.9688 88.4844C66.821 88.4844 67.5845 88.0405 68.2592 87.1527C68.9399 86.259 69.4429 84.8563 69.7685 82.9446C69.9815 81.7017 70.0318 80.6837 69.9194 79.8906C69.8069 79.0916 69.5643 78.5027 69.1914 78.1239C68.8185 77.7392 68.348 77.5469 67.7798 77.5469C66.9276 77.5469 66.1522 77.9819 65.4538 78.8519C64.7614 79.716 64.2583 81.0803 63.9446 82.9446C63.7315 84.223 63.6842 85.2706 63.8026 86.0874C63.9209 86.9041 64.1695 87.5078 64.5483 87.8984C64.9271 88.2891 65.4006 88.4844 65.9688 88.4844ZM91.2178 85.9631H81.2391L81.8783 82.1278H91.6794C92.3127 82.1278 92.8424 82.0509 93.2685 81.897C93.7006 81.7372 94.035 81.5064 94.2717 81.2045C94.5144 80.8968 94.6683 80.518 94.7334 80.0682C94.8103 79.642 94.7837 79.2514 94.6535 78.8963C94.5292 78.5412 94.2954 78.2571 93.9521 78.044C93.6148 77.831 93.165 77.7244 92.6027 77.7244H89.9038L87.5246 92H82.624L85.6425 73.8182H93.2419C94.7393 73.8182 96.0059 74.0816 97.0416 74.6083C98.0833 75.1351 98.8379 75.863 99.3055 76.7923C99.779 77.7215 99.9121 78.7898 99.705 79.9972C99.4978 81.2992 98.9977 82.3942 98.2046 83.282C97.4115 84.1638 96.4113 84.8326 95.2039 85.2884C93.9965 85.7382 92.6678 85.9631 91.2178 85.9631ZM92.3541 86.7798L91.7149 90.6151H80.4933L81.1325 86.7798H92.3541Z" fill="#FF9500"/>
</g>
<defs>
<filter id="filter0_b_75_67" x="4" y="4" width="120" height="120" filterUnits="userSpaceOnUse" color-interpolation-filters="sRGB">
<feFlood flood-opacity="0" result="BackgroundImageFix"/>
<feGaussianBlur in="BackgroundImageFix" stdDeviation="2"/>
<feComposite in2="SourceAlpha" operator="in" result="effect1_backgroundBlur_75_67"/>
<feBlend mode="normal" in="SourceGraphic" in2="effect1_backgroundBlur_75_67" result="shape"/>
</filter>
<filter id="filter1_d_75_67" x="26.963" y="35.8182" width="77.0527" height="64.679" filterUnits="userSpaceOnUse" color-interpolation-filters="sRGB">
<feFlood flood-opacity="0" result="BackgroundImageFix"/>
<feColorMatrix in="SourceAlpha" type="matrix" values="0 0 0 0 0 0 0 0 0 0 0 0 0 0 0 0 0 0 127 0" result="hardAlpha"/>
<feOffset dy="4"/>
<feGaussianBlur stdDeviation="2"/>
<feComposite in2="hardAlpha" operator="out"/>
<feColorMatrix type="matrix" values="0 0 0 0 0 0 0 0 0 0 0 0 0 0 0 0 0 0 0.25 0"/>
<feBlend mode="normal" in2="BackgroundImageFix" result="effect1_dropShadow_75_67"/>
<feBlend mode="normal" in="SourceGraphic" in2="effect1_dropShadow_75_67" result="shape"/>
</filter>
</defs>
</svg>
