<svg width="128" height="128" viewBox="0 0 128 128" fill="none" xmlns="http://www.w3.org/2000/svg">
<rect width="128" height="128" rx="51.2" fill="#1D222B"/>
<g opacity="0.3" filter="url(#filter0_f_75_67)">
<circle cx="64" cy="64" r="46.375" fill="#0FA958" stroke="black" stroke-width="5.25"/>
<circle cx="64" cy="64" r="34.125" fill="#FFF4D9" stroke="black" stroke-width="5.25"/>
<path d="M63.125 85.8544C52.3833 85.3485 42.6515 75.6167 42.1456 64.875" stroke="black" stroke-width="5.25" stroke-linecap="round"/>
<path d="M61.375 45.625V61.375C61.375 64.2745 63.7255 66.625 66.625 66.625H79.75" stroke="black" stroke-width="5.25" stroke-linejoin="round"/>
<path d="M54.375 50.875C57.875 47.375 59.625 45.625 61.375 45.625C63.125 45.625 64.875 47.375 68.375 50.875" stroke="black" stroke-width="5.25" stroke-linecap="round"/>
<path d="M77.125 59.625C80.625 63.125 82.375 64.875 82.375 66.625C82.375 68.375 80.625 70.125 77.125 73.625" stroke="black" stroke-width="5.25" stroke-linecap="round"/>
</g>
<g filter="url(#filter1_d_75_67)">
<path d="M40.0362 35.8182V54H35.6505V39.9197H35.544L31.4779 42.4055V38.6058L35.9612 35.8182H40.0362ZM61.1903 40.3636V54H57.1064V40.3636H61.1903ZM59.1217 46.1786V49.4989C58.8909 49.6173 58.5654 49.7327 58.1452 49.8452C57.7309 49.9517 57.2929 50.0405 56.8312 50.1115C56.3755 50.1825 55.9701 50.218 55.615 50.218C53.5198 50.218 51.8774 49.8185 50.6878 49.0195C49.5041 48.2146 48.9122 46.9066 48.9122 45.0955V40.3548H52.9694V45.0955C52.9694 45.5631 53.0434 45.9271 53.1913 46.1875C53.3452 46.4479 53.6115 46.6314 53.9903 46.7379C54.375 46.8445 54.9166 46.8977 55.615 46.8977C56.1476 46.8977 56.6921 46.8385 57.2485 46.7202C57.8108 46.5959 58.4352 46.4154 59.1217 46.1786ZM67.3983 54.2308C66.5283 54.2308 65.7559 54.0858 65.0812 53.7958C64.4124 53.4999 63.8827 53.056 63.492 52.4641C63.1073 51.8664 62.915 51.1177 62.915 50.218C62.915 49.4605 63.0482 48.8213 63.3145 48.3004C63.5808 47.7796 63.9478 47.3564 64.4153 47.0309C64.8829 46.7054 65.4215 46.4598 66.0311 46.294C66.6407 46.1224 67.2918 46.007 67.9842 45.9478C68.7596 45.8768 69.384 45.8028 69.8575 45.7259C70.3309 45.643 70.6742 45.5276 70.8873 45.3796C71.1063 45.2257 71.2158 45.0097 71.2158 44.7315V44.6871C71.2158 44.2314 71.0589 43.8793 70.7452 43.6307C70.4316 43.3821 70.0084 43.2578 69.4757 43.2578C68.9016 43.2578 68.44 43.3821 68.0908 43.6307C67.7416 43.8793 67.5196 44.2225 67.4249 44.6605L63.421 44.5185C63.5394 43.6899 63.8442 42.95 64.3354 42.299C64.8326 41.642 65.5132 41.1271 66.3773 40.7543C67.2474 40.3755 68.292 40.1861 69.5112 40.1861C70.3812 40.1861 71.1832 40.2897 71.9171 40.4968C72.651 40.698 73.2902 40.994 73.8347 41.3846C74.3792 41.7693 74.7995 42.2428 75.0954 42.805C75.3972 43.3673 75.5482 44.0095 75.5482 44.7315V54H71.4643V52.1001H71.3578C71.1152 52.5618 70.8044 52.9524 70.4256 53.272C70.0528 53.5916 69.6118 53.8313 69.1028 53.9911C68.5998 54.1509 68.0316 54.2308 67.3983 54.2308ZM68.7388 51.3899C69.2064 51.3899 69.6266 51.2952 69.9995 51.1058C70.3783 50.9164 70.6801 50.656 70.905 50.3246C71.1299 49.9872 71.2424 49.5966 71.2424 49.1527V47.8565C71.1181 47.9216 70.9672 47.9808 70.7896 48.0341C70.618 48.0874 70.4286 48.1377 70.2214 48.185C70.0143 48.2324 69.8012 48.2738 69.5822 48.3093C69.3633 48.3448 69.1531 48.3774 68.9519 48.407C68.5435 48.4721 68.1943 48.5727 67.9043 48.7088C67.6202 48.8449 67.4013 49.0225 67.2474 49.2415C67.0994 49.4545 67.0254 49.709 67.0254 50.005C67.0254 50.4548 67.1852 50.7981 67.5048 51.0348C67.8303 51.2715 68.2417 51.3899 68.7388 51.3899ZM84.293 54.2575C82.8548 54.2575 81.6208 53.9615 80.591 53.3697C79.5671 52.7778 78.7799 51.9551 78.2295 50.9016C77.679 49.8422 77.4038 48.6171 77.4038 47.2262C77.4038 45.8294 77.679 44.6043 78.2295 43.5508C78.7858 42.4914 79.5759 41.6657 80.5999 41.0739C81.6297 40.482 82.8578 40.1861 84.2842 40.1861C85.5448 40.1861 86.6427 40.4139 87.5778 40.8697C88.5189 41.3254 89.2528 41.9705 89.7795 42.805C90.3122 43.6336 90.5933 44.6072 90.6229 45.7259H86.5658C86.4829 45.0275 86.2462 44.48 85.8555 44.0835C85.4708 43.6869 84.9678 43.4886 84.3463 43.4886C83.8432 43.4886 83.4023 43.6307 83.0235 43.9148C82.6447 44.1929 82.3488 44.6072 82.1357 45.1577C81.9286 45.7022 81.825 46.3769 81.825 47.1818C81.825 47.9867 81.9286 48.6674 82.1357 49.2237C82.3488 49.7741 82.6447 50.1914 83.0235 50.4755C83.4023 50.7537 83.8432 50.8928 84.3463 50.8928C84.7488 50.8928 85.1039 50.8069 85.4116 50.6353C85.7253 50.4637 85.9828 50.2121 86.184 49.8807C86.3853 49.5433 86.5125 49.1349 86.5658 48.6555H90.6229C90.5815 49.7801 90.3004 50.7625 89.7795 51.603C89.2646 52.4434 88.5396 53.0974 87.6045 53.565C86.6753 54.0266 85.5714 54.2575 84.293 54.2575ZM95.011 54.2575C94.3718 54.2575 93.8244 54.0326 93.3686 53.5827C92.9188 53.1329 92.6969 52.5884 92.7028 51.9492C92.6969 51.3219 92.9188 50.7862 93.3686 50.3423C93.8244 49.8925 94.3718 49.6676 95.011 49.6676C95.6147 49.6676 96.1474 49.8925 96.609 50.3423C97.0766 50.7862 97.3133 51.3219 97.3193 51.9492C97.3133 52.3754 97.2009 52.763 96.9819 53.1122C96.7688 53.4614 96.4877 53.7396 96.1385 53.9467C95.7952 54.1539 95.4194 54.2575 95.011 54.2575ZM40.0362 73.8182V92H35.6505V77.9197H35.544L31.4779 80.4055V76.6058L35.9612 73.8182H40.0362ZM43.7806 92V88.8395L50.4123 83.0334C50.9095 82.5836 51.3327 82.1722 51.6819 81.7994C52.0311 81.4206 52.2974 81.0418 52.4809 80.663C52.6644 80.2783 52.7561 79.861 52.7561 79.4112C52.7561 78.9081 52.6466 78.479 52.4276 78.1239C52.2086 77.7629 51.9068 77.4847 51.5221 77.2894C51.1374 77.0941 50.6964 76.9964 50.1993 76.9964C49.6962 76.9964 49.2553 77.1 48.8765 77.3072C48.4977 77.5084 48.2018 77.8014 47.9887 78.1861C47.7815 78.5708 47.678 79.0384 47.678 79.5888H43.5143C43.5143 78.3518 43.7924 77.2835 44.3488 76.3839C44.9051 75.4843 45.6864 74.7918 46.6925 74.3065C47.7046 73.8152 48.8794 73.5696 50.217 73.5696C51.5961 73.5696 52.7946 73.8004 53.8126 74.2621C54.8305 74.7237 55.6177 75.3688 56.1741 76.1974C56.7363 77.0201 57.0175 77.976 57.0175 79.065C57.0175 79.7575 56.8784 80.444 56.6002 81.1246C56.322 81.8053 55.8219 82.5569 55.0998 83.3796C54.3837 84.2023 53.3657 85.1877 52.0459 86.3359L49.8708 88.3423V88.4577H57.2394V92H43.7806ZM66.9675 92.4439C65.3813 92.4439 64.0141 92.0681 62.8659 91.3164C61.7177 90.5588 60.8329 89.4728 60.2115 88.0582C59.59 86.6378 59.2823 84.9303 59.2882 82.9357C59.2941 80.9412 59.6048 79.2485 60.2203 77.8576C60.8418 76.4608 61.7237 75.3984 62.8659 74.6705C64.0141 73.9366 65.3813 73.5696 66.9675 73.5696C68.5537 73.5696 69.9209 73.9366 71.0691 74.6705C72.2232 75.3984 73.111 76.4608 73.7324 77.8576C74.3539 79.2544 74.6616 80.9471 74.6557 82.9357C74.6557 84.9362 74.345 86.6467 73.7235 88.0671C73.1021 89.4876 72.2173 90.5736 71.0691 91.3253C69.9268 92.071 68.5596 92.4439 66.9675 92.4439ZM66.9675 88.8484C67.9145 88.8484 68.6809 88.366 69.2669 87.4013C69.8528 86.4306 70.1428 84.9421 70.1369 82.9357C70.1369 81.6218 70.0037 80.5387 69.7374 79.6864C69.4711 78.8282 69.1011 78.189 68.6277 77.7688C68.1542 77.3486 67.6008 77.1385 66.9675 77.1385C66.0265 77.1385 65.2659 77.6149 64.6859 78.5678C64.1059 79.5148 63.8129 80.9708 63.807 82.9357C63.8011 84.2674 63.9283 85.3712 64.1887 86.2472C64.4551 87.1231 64.8279 87.7771 65.3074 88.2092C65.7868 88.6353 66.3401 88.8484 66.9675 88.8484ZM91.7149 85.6967H81.8871V82.2344H91.5729C92.2535 82.2344 92.8069 82.1426 93.233 81.9592C93.6651 81.7698 93.9817 81.5034 94.183 81.1602C94.3901 80.811 94.4907 80.3907 94.4848 79.8995C94.4907 79.426 94.3901 78.9969 94.183 78.6122C93.9817 78.2216 93.674 77.9109 93.2597 77.68C92.8513 77.4492 92.3364 77.3338 91.7149 77.3338H88.732V92H84.3641V73.8182H91.7149C93.1827 73.8182 94.4552 74.0786 95.5324 74.5994C96.6096 75.1203 97.4411 75.8335 98.0271 76.739C98.613 77.6445 98.903 78.6773 98.8971 79.8374C98.903 81.0803 98.6041 82.1367 98.0004 83.0067C97.4026 83.8768 96.5622 84.5426 95.4791 85.0043C94.4019 85.4659 93.1472 85.6967 91.7149 85.6967ZM92.6826 86.6911V90.1445H81.8871V86.6911H92.6826Z" fill="#FF9500"/>
</g>
<defs>
<filter id="filter0_f_75_67" x="4" y="4" width="120" height="120" filterUnits="userSpaceOnUse" color-interpolation-filters="sRGB">
<feFlood flood-opacity="0" result="BackgroundImageFix"/>
<feBlend mode="normal" in="SourceGraphic" in2="BackgroundImageFix" result="shape"/>
<feGaussianBlur stdDeviation="2" result="effect1_foregroundBlur_75_67"/>
</filter>
<filter id="filter1_d_75_67" x="27.4779" y="35.8182" width="75.428" height="64.6257" filterUnits="userSpaceOnUse" color-interpolation-filters="sRGB">
<feFlood flood-opacity="0" result="BackgroundImageFix"/>
<feColorMatrix in="SourceAlpha" type="matrix" values="0 0 0 0 0 0 0 0 0 0 0 0 0 0 0 0 0 0 127 0" result="hardAlpha"/>
<feOffset dy="4"/>
<feGaussianBlur stdDeviation="2"/>
<feComposite in2="hardAlpha" operator="out"/>
<feColorMatrix type="matrix" values="0 0 0 0 0 0 0 0 0 0 0 0 0 0 0 0 0 0 0.25 0"/>
<feBlend mode="normal" in2="BackgroundImageFix" result="effect1_dropShadow_75_67"/>
<feBlend mode="normal" in="SourceGraphic" in2="effect1_dropShadow_75_67" result="shape"/>
</filter>
</defs>
</svg>
