<svg width="166" height="128" viewBox="0 0 166 128" fill="none" xmlns="http://www.w3.org/2000/svg">
<rect width="128" height="128" rx="51.2" fill="#1D222B"/>
<g opacity="0.2">
<circle cx="64" cy="64" r="46.375" fill="#0FA958" stroke="black" stroke-width="5.25"/>
<circle cx="64" cy="64" r="34.125" fill="#FFF4D9" stroke="black" stroke-width="5.25"/>
<path d="M63.125 85.8544C52.3833 85.3485 42.6515 75.6167 42.1456 64.875" stroke="black" stroke-width="5.25" stroke-linecap="round"/>
<path d="M61.375 45.625V61.375C61.375 64.2745 63.7255 66.625 66.625 66.625H79.75" stroke="black" stroke-width="5.25" stroke-linejoin="round"/>
<path d="M54.375 50.875C57.875 47.375 59.625 45.625 61.375 45.625C63.125 45.625 64.875 47.375 68.375 50.875" stroke="black" stroke-width="5.25" stroke-linecap="round"/>
<path d="M77.125 59.625C80.625 63.125 82.375 64.875 82.375 66.625C82.375 68.375 80.625 70.125 77.125 73.625" stroke="black" stroke-width="5.25" stroke-linecap="round"/>
</g>
<path d="M29.6818 61.3636L27.75 73H24.5909L26.0455 64.2727H25.9773L23.1818 65.7955L23.6136 63.1136L26.7727 61.3636H29.6818ZM42.5883 64.2727L41.1338 73H38.202L39.6565 64.2727H42.5883ZM40.452 67.8864L40.0656 70.2273C39.952 70.2955 39.7588 70.3636 39.4861 70.4318C39.2171 70.4962 38.9368 70.5511 38.6452 70.5966C38.3535 70.6383 38.1149 70.6591 37.9292 70.6591C36.5012 70.6591 35.4292 70.4053 34.7133 69.8977C33.9974 69.3902 33.7361 68.5455 33.9292 67.3636L34.452 64.2727H37.3611L36.8383 67.3636C36.7967 67.6288 36.8024 67.8295 36.8554 67.9659C36.9122 68.1023 37.0524 68.1951 37.2758 68.2443C37.5031 68.2936 37.8497 68.3182 38.3156 68.3182C38.6035 68.3182 38.9179 68.2841 39.2588 68.2159C39.6035 68.1439 40.0012 68.0341 40.452 67.8864ZM44.8711 73.1364C44.3181 73.1364 43.8427 73.0455 43.445 72.8636C43.0511 72.678 42.7632 72.3977 42.5814 72.0227C42.4033 71.6439 42.3636 71.1667 42.4621 70.5909C42.5416 70.1136 42.6912 69.7064 42.9109 69.3693C43.1306 69.0322 43.4033 68.7557 43.7291 68.5398C44.0549 68.3239 44.4204 68.1591 44.8257 68.0455C45.2348 67.928 45.6666 67.8523 46.1211 67.8182C46.6136 67.7803 47.0132 67.733 47.32 67.6761C47.6268 67.6193 47.856 67.5417 48.0075 67.4432C48.159 67.3447 48.2499 67.2121 48.2802 67.0455V67.0227C48.3143 66.7955 48.2537 66.6212 48.0984 66.5C47.9469 66.3788 47.7348 66.3182 47.4621 66.3182C47.1666 66.3182 46.9109 66.3826 46.695 66.5114C46.4829 66.6402 46.3371 66.8409 46.2575 67.1136H43.3711C43.4924 66.5833 43.7405 66.0947 44.1155 65.6477C44.4943 65.197 44.9961 64.8371 45.6211 64.5682C46.2499 64.2955 46.9999 64.1591 47.8711 64.1591C48.4924 64.1591 49.0378 64.233 49.5075 64.3807C49.9772 64.5246 50.3655 64.7273 50.6723 64.9886C50.9829 65.2462 51.2007 65.5492 51.3257 65.8977C51.4545 66.2424 51.4848 66.6174 51.4166 67.0227L50.4166 73H47.4848L47.6893 71.7727H47.6211C47.3939 72.0985 47.1382 72.3617 46.8541 72.5625C46.5738 72.7633 46.267 72.9091 45.9336 73C45.6041 73.0909 45.2499 73.1364 44.8711 73.1364ZM46.2348 71.1591C46.4696 71.1591 46.7007 71.1098 46.928 71.0114C47.1552 70.9129 47.3503 70.7708 47.5132 70.5852C47.6761 70.3996 47.7802 70.1742 47.8257 69.9091L47.9393 69.1818C47.856 69.2159 47.7632 69.2481 47.6609 69.2784C47.5624 69.3049 47.4583 69.3314 47.3484 69.358C47.2424 69.3845 47.1287 69.4091 47.0075 69.4318C46.8901 69.4545 46.7689 69.4773 46.6439 69.5C46.3939 69.5379 46.1836 69.6004 46.0132 69.6875C45.8427 69.7708 45.7102 69.875 45.6155 70C45.5208 70.1212 45.4621 70.2576 45.4393 70.4091C45.4052 70.6477 45.4602 70.8333 45.6041 70.9659C45.7518 71.0947 45.9621 71.1591 46.2348 71.1591ZM55.921 73.1591C54.974 73.1591 54.1937 72.9716 53.5801 72.5966C52.9665 72.2178 52.5365 71.6913 52.2903 71.017C52.0441 70.339 51.9968 69.553 52.1483 68.6591C52.2922 67.7652 52.599 66.9811 53.0687 66.3068C53.5422 65.6288 54.1483 65.1023 54.8869 64.7273C55.6293 64.3485 56.474 64.1591 57.421 64.1591C58.2771 64.1591 58.9911 64.3144 59.563 64.625C60.1388 64.9318 60.5498 65.3674 60.796 65.9318C61.046 66.4924 61.1104 67.1515 60.9892 67.9091H58.0801C58.1142 67.4545 58.0403 67.1061 57.8585 66.8636C57.6805 66.6212 57.421 66.5 57.0801 66.5C56.7998 66.5 56.5422 66.5795 56.3074 66.7386C56.0763 66.8939 55.8774 67.1307 55.7108 67.4489C55.5479 67.7633 55.4286 68.1591 55.3528 68.6364C55.2771 69.1136 55.2676 69.5114 55.3244 69.8295C55.385 70.1439 55.5024 70.3807 55.6767 70.5398C55.8547 70.6951 56.0801 70.7727 56.3528 70.7727C56.5877 70.7727 56.8036 70.7197 57.0005 70.6136C57.2013 70.5038 57.3736 70.3447 57.5176 70.1364C57.6653 69.9242 57.7771 69.6667 57.8528 69.3636H60.7619C60.618 70.1364 60.3282 70.8068 59.8926 71.375C59.457 71.9432 58.9021 72.3826 58.2278 72.6932C57.5536 73.0038 56.7846 73.1591 55.921 73.1591ZM63.039 73.1818C62.5958 73.1818 62.2341 73.0284 61.9538 72.7216C61.6773 72.411 61.5618 72.0341 61.6072 71.5909C61.6527 71.1591 61.8477 70.7898 62.1924 70.483C62.5409 70.1761 62.9368 70.0227 63.3799 70.0227C63.8004 70.0227 64.1508 70.1761 64.4311 70.483C64.7152 70.7898 64.8345 71.1591 64.789 71.5909C64.7587 71.8864 64.6546 72.1553 64.4765 72.3977C64.3023 72.6364 64.0864 72.8277 63.8288 72.9716C63.575 73.1117 63.3118 73.1818 63.039 73.1818ZM75.8092 61.3636L73.8774 73H70.7183L72.1728 64.2727H72.1046L69.3092 65.7955L69.741 63.1136L72.9001 61.3636H75.8092ZM76.0906 73L76.4656 70.7273L81.4088 67.1364C81.7383 66.8977 82.0224 66.6742 82.261 66.4659C82.5035 66.2538 82.6985 66.036 82.8463 65.8125C82.994 65.589 83.0906 65.3409 83.136 65.0682C83.1853 64.7689 83.1625 64.5133 83.0678 64.3011C82.9769 64.0852 82.8292 63.9205 82.6247 63.8068C82.4201 63.6932 82.1739 63.6364 81.886 63.6364C81.5944 63.6364 81.3273 63.6951 81.0849 63.8125C80.8425 63.9299 80.6398 64.1023 80.4769 64.3295C80.3178 64.5568 80.2118 64.8333 80.1588 65.1591H77.1588C77.2951 64.3409 77.5963 63.6364 78.0622 63.0455C78.5319 62.4545 79.1266 62 79.8463 61.6818C80.5697 61.3636 81.3822 61.2045 82.2838 61.2045C83.2156 61.2045 83.9997 61.3542 84.636 61.6534C85.2724 61.9489 85.7326 62.3655 86.0167 62.9034C86.3046 63.4413 86.386 64.072 86.261 64.7955C86.1853 65.2424 86.0167 65.6856 85.7553 66.125C85.4978 66.5644 85.083 67.053 84.511 67.5909C83.9428 68.125 83.155 68.7614 82.1474 69.5L80.9088 70.4091L80.8974 70.4773H85.4428L85.0224 73H76.0906ZM91.281 73.3182C90.2204 73.3182 89.3435 73.0758 88.6504 72.5909C87.9572 72.1023 87.478 71.4015 87.2129 70.4886C86.9477 69.5758 86.925 68.4811 87.1447 67.2045C87.3644 65.9242 87.7564 64.8371 88.3208 63.9432C88.889 63.0492 89.5935 62.3693 90.4345 61.9034C91.2792 61.4375 92.228 61.2045 93.281 61.2045C94.3341 61.2045 95.2053 61.4375 95.8947 61.9034C96.5841 62.3693 97.0632 63.0492 97.3322 63.9432C97.6011 64.8333 97.6295 65.9205 97.4174 67.2045C97.2053 68.4848 96.8151 69.5814 96.247 70.4943C95.6826 71.4072 94.9761 72.1061 94.1276 72.5909C93.2829 73.0758 92.3341 73.3182 91.281 73.3182ZM91.7129 70.75C92.2583 70.75 92.747 70.4659 93.1788 69.8977C93.6144 69.3258 93.9364 68.428 94.1447 67.2045C94.281 66.4091 94.3132 65.7576 94.2413 65.25C94.1693 64.7386 94.014 64.3617 93.7754 64.1193C93.5367 63.8731 93.2356 63.75 92.872 63.75C92.3265 63.75 91.8303 64.0284 91.3833 64.5852C90.9401 65.1383 90.6182 66.0114 90.4174 67.2045C90.281 68.0227 90.2507 68.6932 90.3265 69.2159C90.4023 69.7386 90.5614 70.125 90.8038 70.375C91.0462 70.625 91.3492 70.75 91.7129 70.75ZM107.872 69.1364H101.486L101.895 66.6818H108.168C108.573 66.6818 108.912 66.6326 109.185 66.5341C109.461 66.4318 109.675 66.2841 109.827 66.0909C109.982 65.8939 110.081 65.6515 110.122 65.3636C110.171 65.0909 110.154 64.8409 110.071 64.6136C109.992 64.3864 109.842 64.2045 109.622 64.0682C109.406 63.9318 109.118 63.8636 108.759 63.8636H107.031L105.509 73H102.372L104.304 61.3636H109.168C110.126 61.3636 110.937 61.5322 111.6 61.8693C112.266 62.2064 112.749 62.6723 113.048 63.267C113.351 63.8617 113.437 64.5455 113.304 65.3182C113.171 66.1515 112.851 66.8523 112.344 67.4205C111.836 67.9848 111.196 68.4129 110.423 68.7045C109.651 68.9924 108.8 69.1364 107.872 69.1364ZM108.6 69.6591L108.19 72.1136H101.009L101.418 69.6591H108.6Z" fill="#FFA629"/>
</svg>
