<svg width="128" height="128" viewBox="0 0 128 128" fill="none" xmlns="http://www.w3.org/2000/svg">
<rect width="128" height="128" rx="51.2" fill="#1D222B"/>
<g opacity="0.3" filter="url(#filter0_f_99_66)">
<circle cx="64" cy="64" r="46.375" fill="#0FA958" stroke="black" stroke-width="5.25"/>
<circle cx="64" cy="64" r="34.125" fill="#FFF4D9" stroke="black" stroke-width="5.25"/>
<path d="M63.125 85.8544C52.3833 85.3485 42.6515 75.6167 42.1456 64.875" stroke="black" stroke-width="5.25" stroke-linecap="round"/>
<path d="M61.375 45.625V61.375C61.375 64.2745 63.7255 66.625 66.625 66.625H79.75" stroke="black" stroke-width="5.25" stroke-linejoin="round"/>
<path d="M54.375 50.875C57.875 47.375 59.625 45.625 61.375 45.625C63.125 45.625 64.875 47.375 68.375 50.875" stroke="black" stroke-width="5.25" stroke-linecap="round"/>
<path d="M77.125 59.625C80.625 63.125 82.375 64.875 82.375 66.625C82.375 68.375 80.625 70.125 77.125 73.625" stroke="black" stroke-width="5.25" stroke-linecap="round"/>
</g>
<g filter="url(#filter1_d_99_66)">
<path d="M12.7479 35.8182V54H8.36222V39.9197H8.25568L4.18963 42.4055V38.6058L8.67294 35.8182H12.7479ZM24.0118 54.4439C22.4257 54.4439 21.0585 54.0681 19.9103 53.3164C18.7621 52.5588 17.8773 51.4728 17.2558 50.0582C16.6344 48.6378 16.3266 46.9303 16.3325 44.9357C16.3384 42.9412 16.6492 41.2485 17.2647 39.8576C17.8861 38.4608 18.768 37.3984 19.9103 36.6705C21.0585 35.9366 22.4257 35.5696 24.0118 35.5696C25.598 35.5696 26.9652 35.9366 28.1134 36.6705C29.2675 37.3984 30.1553 38.4608 30.7768 39.8576C31.3982 41.2544 31.706 42.9471 31.7001 44.9357C31.7001 46.9362 31.3893 48.6467 30.7679 50.0671C30.1464 51.4876 29.2616 52.5736 28.1134 53.3253C26.9711 54.071 25.6039 54.4439 24.0118 54.4439ZM24.0118 50.8484C24.9588 50.8484 25.7253 50.366 26.3112 49.4013C26.8971 48.4306 27.1872 46.9421 27.1812 44.9357C27.1812 43.6218 27.0481 42.5387 26.7817 41.6864C26.5154 40.8282 26.1455 40.189 25.672 39.7688C25.1985 39.3486 24.6451 39.1385 24.0118 39.1385C23.0708 39.1385 22.3103 39.6149 21.7302 40.5678C21.1502 41.5148 20.8573 42.9708 20.8513 44.9357C20.8454 46.2674 20.9727 47.3712 21.2331 48.2472C21.4994 49.1231 21.8723 49.7771 22.3517 50.2092C22.8311 50.6353 23.3845 50.8484 24.0118 50.8484ZM51.3516 40.3636V54H47.2678V40.3636H51.3516ZM49.283 46.1786V49.4989C49.0522 49.6173 48.7267 49.7327 48.3065 49.8452C47.8922 49.9517 47.4542 50.0405 46.9926 50.1115C46.5368 50.1825 46.1314 50.218 45.7763 50.218C43.6811 50.218 42.0387 49.8185 40.8491 49.0195C39.6654 48.2146 39.0735 46.9066 39.0735 45.0955V40.3548H43.1307V45.0955C43.1307 45.5631 43.2047 45.9271 43.3526 46.1875C43.5065 46.4479 43.7729 46.6314 44.1517 46.7379C44.5364 46.8445 45.0779 46.8977 45.7763 46.8977C46.309 46.8977 46.8535 46.8385 47.4098 46.7202C47.9721 46.5959 48.5965 46.4154 49.283 46.1786ZM57.5596 54.2308C56.6896 54.2308 55.9172 54.0858 55.2425 53.7958C54.5737 53.4999 54.044 53.056 53.6534 52.4641C53.2687 51.8664 53.0763 51.1177 53.0763 50.218C53.0763 49.4605 53.2095 48.8213 53.4758 48.3004C53.7422 47.7796 54.1091 47.3564 54.5767 47.0309C55.0442 46.7054 55.5828 46.4598 56.1924 46.294C56.802 46.1224 57.4531 46.007 58.1456 45.9478C58.9209 45.8768 59.5453 45.8028 60.0188 45.7259C60.4923 45.643 60.8355 45.5276 61.0486 45.3796C61.2676 45.2257 61.3771 45.0097 61.3771 44.7315V44.6871C61.3771 44.2314 61.2203 43.8793 60.9066 43.6307C60.5929 43.3821 60.1697 43.2578 59.637 43.2578C59.0629 43.2578 58.6013 43.3821 58.2521 43.6307C57.9029 43.8793 57.681 44.2225 57.5863 44.6605L53.5824 44.5185C53.7007 43.6899 54.0055 42.95 54.4968 42.299C54.9939 41.642 55.6746 41.1271 56.5387 40.7543C57.4087 40.3755 58.4533 40.1861 59.6726 40.1861C60.5426 40.1861 61.3445 40.2897 62.0784 40.4968C62.8123 40.698 63.4516 40.994 63.9961 41.3846C64.5406 41.7693 64.9608 42.2428 65.2567 42.805C65.5586 43.3673 65.7095 44.0095 65.7095 44.7315V54H61.6257V52.1001H61.5191C61.2765 52.5618 60.9658 52.9524 60.587 53.272C60.2141 53.5916 59.7732 53.8313 59.2642 53.9911C58.7611 54.1509 58.1929 54.2308 57.5596 54.2308ZM58.9002 51.3899C59.3677 51.3899 59.788 51.2952 60.1608 51.1058C60.5396 50.9164 60.8415 50.656 61.0664 50.3246C61.2913 49.9872 61.4037 49.5966 61.4037 49.1527V47.8565C61.2794 47.9216 61.1285 47.9808 60.951 48.0341C60.7793 48.0874 60.5899 48.1377 60.3828 48.185C60.1756 48.2324 59.9626 48.2738 59.7436 48.3093C59.5246 48.3448 59.3145 48.3774 59.1132 48.407C58.7049 48.4721 58.3557 48.5727 58.0657 48.7088C57.7816 48.8449 57.5626 49.0225 57.4087 49.2415C57.2607 49.4545 57.1868 49.709 57.1868 50.005C57.1868 50.4548 57.3466 50.7981 57.6662 51.0348C57.9917 51.2715 58.403 51.3899 58.9002 51.3899ZM74.4544 54.2575C73.0162 54.2575 71.7821 53.9615 70.7523 53.3697C69.7284 52.7778 68.9412 51.9551 68.3908 50.9016C67.8404 49.8422 67.5652 48.6171 67.5652 47.2262C67.5652 45.8294 67.8404 44.6043 68.3908 43.5508C68.9471 42.4914 69.7373 41.6657 70.7612 41.0739C71.791 40.482 73.0191 40.1861 74.4455 40.1861C75.7061 40.1861 76.804 40.4139 77.7392 40.8697C78.6802 41.3254 79.4141 41.9705 79.9409 42.805C80.4735 43.6336 80.7547 44.6072 80.7843 45.7259H76.7271C76.6442 45.0275 76.4075 44.48 76.0169 44.0835C75.6322 43.6869 75.1291 43.4886 74.5076 43.4886C74.0046 43.4886 73.5636 43.6307 73.1848 43.9148C72.806 44.1929 72.5101 44.6072 72.2971 45.1577C72.0899 45.7022 71.9863 46.3769 71.9863 47.1818C71.9863 47.9867 72.0899 48.6674 72.2971 49.2237C72.5101 49.7741 72.806 50.1914 73.1848 50.4755C73.5636 50.7537 74.0046 50.8928 74.5076 50.8928C74.9101 50.8928 75.2652 50.8069 75.573 50.6353C75.8867 50.4637 76.1441 50.2121 76.3453 49.8807C76.5466 49.5433 76.6738 49.1349 76.7271 48.6555H80.7843C80.7428 49.7801 80.4617 50.7625 79.9409 51.603C79.426 52.4434 78.7009 53.0974 77.7658 53.565C76.8366 54.0266 75.7328 54.2575 74.4544 54.2575ZM89.0964 54.2575C87.6641 54.2575 86.433 53.9645 85.4032 53.3786C84.3793 52.7867 83.5891 51.964 83.0328 50.9105C82.4824 49.8511 82.2072 48.623 82.2072 47.2262C82.2072 45.8235 82.4824 44.5954 83.0328 43.5419C83.5891 42.4825 84.3793 41.6598 85.4032 41.0739C86.433 40.482 87.6641 40.1861 89.0964 40.1861C90.5287 40.1861 91.7568 40.482 92.7807 41.0739C93.8105 41.6598 94.6006 42.4825 95.151 43.5419C95.7074 44.5954 95.9856 45.8235 95.9856 47.2262C95.9856 48.623 95.7074 49.8511 95.151 50.9105C94.6006 51.964 93.8105 52.7867 92.7807 53.3786C91.7568 53.9645 90.5287 54.2575 89.0964 54.2575ZM89.123 50.9815C89.6438 50.9815 90.0848 50.8217 90.4458 50.5021C90.8068 50.1825 91.082 49.7386 91.2714 49.1705C91.4667 48.6023 91.5644 47.9453 91.5644 47.1996C91.5644 46.442 91.4667 45.7791 91.2714 45.2109C91.082 44.6428 90.8068 44.1989 90.4458 43.8793C90.0848 43.5597 89.6438 43.3999 89.123 43.3999C88.5844 43.3999 88.1287 43.5597 87.7558 43.8793C87.3889 44.1989 87.1077 44.6428 86.9124 45.2109C86.723 45.7791 86.6283 46.442 86.6283 47.1996C86.6283 47.9453 86.723 48.6023 86.9124 49.1705C87.1077 49.7386 87.3889 50.1825 87.7558 50.5021C88.1287 50.8217 88.5844 50.9815 89.123 50.9815ZM97.9345 54V40.3636H103.82C105.578 40.3636 106.963 40.6803 107.975 41.3136C108.993 41.9409 109.502 42.8613 109.502 44.0746C109.502 44.7789 109.215 45.3855 108.641 45.8945C108.073 46.3976 107.265 46.7379 106.217 46.9155C107.141 46.9628 107.907 47.1463 108.517 47.4659C109.126 47.7855 109.582 48.1909 109.884 48.6822C110.186 49.1734 110.337 49.6972 110.337 50.2536C110.337 51.0585 110.121 51.7391 109.689 52.2955C109.257 52.8518 108.623 53.275 107.789 53.565C106.96 53.855 105.942 54 104.735 54H97.9345ZM101.974 50.8572H104.735C105.197 50.8572 105.558 50.7478 105.818 50.5288C106.084 50.3098 106.217 50.0079 106.217 49.6232C106.217 49.2089 106.084 48.8834 105.818 48.6467C105.558 48.4099 105.197 48.2915 104.735 48.2915H101.974V50.8572ZM101.974 45.9389H103.936C104.25 45.9389 104.519 45.8916 104.744 45.7969C104.969 45.7022 105.14 45.5661 105.259 45.3885C105.383 45.2109 105.445 44.9979 105.445 44.7493C105.445 44.3883 105.3 44.1042 105.01 43.897C104.726 43.6899 104.329 43.5863 103.82 43.5863H101.974V45.9389ZM114.652 54.2575C114.012 54.2575 113.465 54.0326 113.009 53.5827C112.559 53.1329 112.337 52.5884 112.343 51.9492C112.337 51.3219 112.559 50.7862 113.009 50.3423C113.465 49.8925 114.012 49.6676 114.652 49.6676C115.255 49.6676 115.788 49.8925 116.25 50.3423C116.717 50.7862 116.954 51.3219 116.96 51.9492C116.954 52.3754 116.842 52.763 116.623 53.1122C116.409 53.4614 116.128 53.7396 115.779 53.9467C115.436 54.1539 115.06 54.2575 114.652 54.2575ZM37.1097 92.2486C36.1154 92.2486 35.1625 92.0888 34.2511 91.7692C33.3396 91.4437 32.5288 90.9287 31.8185 90.2244C31.1083 89.5142 30.549 88.585 30.1406 87.4368C29.7322 86.2827 29.531 84.877 29.5369 83.2198C29.5429 81.7224 29.7263 80.3789 30.0874 79.1893C30.4484 77.9937 30.9633 76.9787 31.6321 76.1442C32.3068 75.3097 33.1117 74.6734 34.0469 74.2354C34.9879 73.7915 36.0385 73.5696 37.1985 73.5696C38.471 73.5696 39.5926 73.8182 40.5632 74.3153C41.5398 74.8066 42.321 75.4695 42.907 76.304C43.4929 77.1326 43.8391 78.0559 43.9457 79.0739H39.6222C39.492 78.4998 39.2049 78.0647 38.761 77.7688C38.323 77.467 37.8022 77.3161 37.1985 77.3161C36.0858 77.3161 35.2543 77.7984 34.7038 78.7631C34.1593 79.7279 33.8812 81.0181 33.8693 82.6339H33.9847C34.2333 82.0894 34.5914 81.6218 35.0589 81.2312C35.5265 80.8406 36.0621 80.5417 36.6658 80.3345C37.2755 80.1214 37.9206 80.0149 38.6012 80.0149C39.6902 80.0149 40.652 80.2665 41.4865 80.7695C42.321 81.2726 42.975 81.9621 43.4485 82.8381C43.922 83.7081 44.1558 84.7054 44.1499 85.8299C44.1558 87.0965 43.8598 88.2151 43.2621 89.1857C42.6643 90.1504 41.8357 90.9021 40.7763 91.4407C39.7228 91.9793 38.5006 92.2486 37.1097 92.2486ZM37.0831 88.875C37.6217 88.875 38.104 88.7478 38.5302 88.4933C38.9563 88.2388 39.2907 87.8925 39.5334 87.4545C39.776 87.0166 39.8944 86.5224 39.8885 85.9719C39.8944 85.4156 39.776 84.9214 39.5334 84.4893C39.2966 84.0573 38.9652 83.714 38.5391 83.4595C38.1188 83.205 37.6365 83.0778 37.092 83.0778C36.6954 83.0778 36.3255 83.1518 35.9822 83.2997C35.639 83.4477 35.3401 83.6548 35.0856 83.9212C34.837 84.1816 34.6417 84.4893 34.4996 84.8445C34.3576 85.1937 34.2836 85.5724 34.2777 85.9808C34.2836 86.5194 34.4079 87.0077 34.6506 87.4457C34.8932 87.8836 35.2247 88.2328 35.6449 88.4933C36.0651 88.7478 36.5445 88.875 37.0831 88.875ZM53.3275 92.2486C52.0018 92.2486 50.824 92.0089 49.7942 91.5295C48.7643 91.0501 47.9505 90.3902 47.3528 89.5497C46.7609 88.7093 46.4531 87.7446 46.4295 86.6555H50.6908C50.7263 87.3243 50.9986 87.8629 51.5076 88.2713C52.0166 88.6738 52.6232 88.875 53.3275 88.875C53.878 88.875 54.3662 88.7537 54.7924 88.511C55.2185 88.2683 55.5529 87.928 55.7956 87.4901C56.0382 87.0462 56.1566 86.5372 56.1507 85.9631C56.1566 85.3771 56.0353 84.8652 55.7867 84.4272C55.544 83.9892 55.2067 83.6489 54.7746 83.4062C54.3485 83.1577 53.8572 83.0334 53.3009 83.0334C52.7742 83.0275 52.274 83.1429 51.8005 83.3796C51.333 83.6164 50.9779 83.9389 50.7352 84.3473L46.8556 83.6193L47.6457 73.8182H59.3112V77.3604H51.259L50.8417 81.6484H50.9483C51.2501 81.1454 51.7354 80.7311 52.4042 80.4055C53.079 80.0741 53.8454 79.9084 54.7036 79.9084C55.7926 79.9084 56.7633 80.1629 57.6155 80.6719C58.4737 81.175 59.1484 81.8733 59.6397 82.767C60.1368 83.6607 60.3854 84.6847 60.3854 85.8388C60.3854 87.0876 60.0895 88.1944 59.4976 89.1591C58.9117 90.1238 58.089 90.8814 57.0296 91.4318C55.9761 91.9763 54.7421 92.2486 53.3275 92.2486ZM70.0425 92.4439C68.4563 92.4439 67.0891 92.0681 65.9409 91.3164C64.7927 90.5588 63.9079 89.4728 63.2865 88.0582C62.665 86.6378 62.3573 84.9303 62.3632 82.9357C62.3691 80.9412 62.6798 79.2485 63.2953 77.8576C63.9168 76.4608 64.7987 75.3984 65.9409 74.6705C67.0891 73.9366 68.4563 73.5696 70.0425 73.5696C71.6287 73.5696 72.9959 73.9366 74.1441 74.6705C75.2982 75.3984 76.186 76.4608 76.8074 77.8576C77.4289 79.2544 77.7366 80.9471 77.7307 82.9357C77.7307 84.9362 77.42 86.6467 76.7985 88.0671C76.1771 89.4876 75.2923 90.5736 74.1441 91.3253C73.0018 92.071 71.6346 92.4439 70.0425 92.4439ZM70.0425 88.8484C70.9895 88.8484 71.7559 88.366 72.3419 87.4013C72.9278 86.4306 73.2178 84.9421 73.2119 82.9357C73.2119 81.6218 73.0787 80.5387 72.8124 79.6864C72.5461 78.8282 72.1761 78.189 71.7027 77.7688C71.2292 77.3486 70.6758 77.1385 70.0425 77.1385C69.1015 77.1385 68.3409 77.6149 67.7609 78.5678C67.1809 79.5148 66.8879 80.9708 66.882 82.9357C66.8761 84.2674 67.0033 85.3712 67.2637 86.2472C67.5301 87.1231 67.9029 87.7771 68.3824 88.2092C68.8618 88.6353 69.4151 88.8484 70.0425 88.8484ZM94.7899 85.6967H84.9621V82.2344H94.6479C95.3285 82.2344 95.8819 82.1426 96.308 81.9592C96.7401 81.7698 97.0567 81.5034 97.258 81.1602C97.4651 80.811 97.5657 80.3907 97.5598 79.8995C97.5657 79.426 97.4651 78.9969 97.258 78.6122C97.0567 78.2216 96.749 77.9109 96.3347 77.68C95.9263 77.4492 95.4114 77.3338 94.7899 77.3338H91.807V92H87.4391V73.8182H94.7899C96.2577 73.8182 97.5302 74.0786 98.6074 74.5994C99.6846 75.1203 100.516 75.8335 101.102 76.739C101.688 77.6445 101.978 78.6773 101.972 79.8374C101.978 81.0803 101.679 82.1367 101.075 83.0067C100.478 83.8768 99.6372 84.5426 98.5541 85.0043C97.4769 85.4659 96.2222 85.6967 94.7899 85.6967ZM95.7576 86.6911V90.1445H84.9621V86.6911H95.7576Z" fill="#FF9500"/>
</g>
<defs>
<filter id="filter0_f_99_66" x="4" y="4" width="120" height="120" filterUnits="userSpaceOnUse" color-interpolation-filters="sRGB">
<feFlood flood-opacity="0" result="BackgroundImageFix"/>
<feBlend mode="normal" in="SourceGraphic" in2="BackgroundImageFix" result="shape"/>
<feGaussianBlur stdDeviation="2" result="effect1_foregroundBlur_99_66"/>
</filter>
<filter id="filter1_d_99_66" x="0.189636" y="35.5696" width="120.77" height="64.8743" filterUnits="userSpaceOnUse" color-interpolation-filters="sRGB">
<feFlood flood-opacity="0" result="BackgroundImageFix"/>
<feColorMatrix in="SourceAlpha" type="matrix" values="0 0 0 0 0 0 0 0 0 0 0 0 0 0 0 0 0 0 127 0" result="hardAlpha"/>
<feOffset dy="4"/>
<feGaussianBlur stdDeviation="2"/>
<feComposite in2="hardAlpha" operator="out"/>
<feColorMatrix type="matrix" values="0 0 0 0 0 0 0 0 0 0 0 0 0 0 0 0 0 0 0.25 0"/>
<feBlend mode="normal" in2="BackgroundImageFix" result="effect1_dropShadow_99_66"/>
<feBlend mode="normal" in="SourceGraphic" in2="effect1_dropShadow_99_66" result="shape"/>
</filter>
</defs>
</svg>
