<svg width="128" height="128" viewBox="0 0 128 128" fill="none" xmlns="http://www.w3.org/2000/svg">
<rect width="128" height="128" rx="51.2" fill="#1D222B"/>
<g opacity="0.3" filter="url(#filter0_f_99_66)">
<circle cx="64" cy="64" r="46.375" fill="#0FA958" stroke="black" stroke-width="5.25"/>
<circle cx="64" cy="64" r="34.125" fill="#FFF4D9" stroke="black" stroke-width="5.25"/>
<path d="M63.125 85.8544C52.3833 85.3485 42.6515 75.6167 42.1456 64.875" stroke="black" stroke-width="5.25" stroke-linecap="round"/>
<path d="M61.375 45.625V61.375C61.375 64.2745 63.7255 66.625 66.625 66.625H79.75" stroke="black" stroke-width="5.25" stroke-linejoin="round"/>
<path d="M54.375 50.875C57.875 47.375 59.625 45.625 61.375 45.625C63.125 45.625 64.875 47.375 68.375 50.875" stroke="black" stroke-width="5.25" stroke-linecap="round"/>
<path d="M77.125 59.625C80.625 63.125 82.375 64.875 82.375 66.625C82.375 68.375 80.625 70.125 77.125 73.625" stroke="black" stroke-width="5.25" stroke-linecap="round"/>
</g>
<g filter="url(#filter1_d_99_66)">
<path d="M15.0028 35.8182L11.9844 54H7.0483L9.32102 40.3636H9.21449L4.84659 42.7429L5.52131 38.5526L10.4574 35.8182H15.0028ZM23.2905 54.4972C21.6333 54.4972 20.2632 54.1184 19.1801 53.3608C18.097 52.5973 17.3483 51.5024 16.934 50.076C16.5197 48.6496 16.4842 46.9392 16.8275 44.9446C17.1707 42.9441 17.7833 41.2455 18.6652 39.8487C19.5529 38.4519 20.6538 37.3896 21.9677 36.6616C23.2876 35.9336 24.7702 35.5696 26.4155 35.5696C28.0609 35.5696 29.4221 35.9336 30.4993 36.6616C31.5765 37.3896 32.3252 38.4519 32.7454 39.8487C33.1656 41.2396 33.21 42.9382 32.8786 44.9446C32.5471 46.9451 31.9375 48.6585 31.0498 50.0849C30.1679 51.5112 29.0641 52.6032 27.7383 53.3608C26.4185 54.1184 24.9359 54.4972 23.2905 54.4972ZM23.9652 50.4844C24.8175 50.4844 25.581 50.0405 26.2557 49.1527C26.9364 48.259 27.4394 46.8563 27.765 44.9446C27.978 43.7017 28.0283 42.6837 27.9159 41.8906C27.8034 41.0916 27.5608 40.5027 27.1879 40.1239C26.815 39.7392 26.3445 39.5469 25.7763 39.5469C24.924 39.5469 24.1487 39.9819 23.4503 40.8519C22.7578 41.716 22.2548 43.0803 21.9411 44.9446C21.728 46.223 21.6807 47.2706 21.799 48.0874C21.9174 48.9041 22.166 49.5078 22.5448 49.8984C22.9236 50.2891 23.3971 50.4844 23.9652 50.4844ZM53.156 40.3636L50.8833 54H46.3023L48.575 40.3636H53.156ZM49.8179 46.0099L49.2142 49.6676C49.0367 49.7741 48.7348 49.8807 48.3087 49.9872C47.8885 50.0878 47.4505 50.1737 46.9948 50.2447C46.5391 50.3098 46.1662 50.3423 45.8762 50.3423C43.6449 50.3423 41.9699 49.9458 40.8513 49.1527C39.7327 48.3596 39.3243 47.0398 39.6262 45.1932L40.4429 40.3636H44.9884L44.1716 45.1932C44.1065 45.6075 44.1154 45.9212 44.1983 46.1342C44.287 46.3473 44.506 46.4923 44.8552 46.5692C45.2103 46.6462 45.7519 46.6847 46.4799 46.6847C46.9297 46.6847 47.4209 46.6314 47.9536 46.5249C48.4922 46.4124 49.1136 46.2408 49.8179 46.0099ZM56.7229 54.2131C55.8588 54.2131 55.116 54.071 54.4946 53.7869C53.879 53.4969 53.4292 53.0589 53.1451 52.473C52.8669 51.8812 52.8048 51.1354 52.9587 50.2358C53.083 49.4901 53.3168 48.8538 53.66 48.3271C54.0033 47.8003 54.4294 47.3683 54.9384 47.0309C55.4474 46.6935 56.0186 46.4361 56.6519 46.2585C57.2911 46.075 57.9658 45.9567 58.676 45.9034C59.4454 45.8442 60.0698 45.7702 60.5492 45.6815C61.0286 45.5927 61.3867 45.4714 61.6235 45.3175C61.8602 45.1636 62.0022 44.9564 62.0496 44.696V44.6605C62.1029 44.3054 62.0082 44.0331 61.7655 43.8438C61.5288 43.6544 61.1973 43.5597 60.7712 43.5597C60.3095 43.5597 59.91 43.6603 59.5727 43.8615C59.2412 44.0627 59.0134 44.3764 58.8891 44.8026H54.3791C54.5685 43.974 54.9562 43.2105 55.5421 42.5121C56.134 41.8078 56.9182 41.2455 57.8948 40.8253C58.8772 40.3991 60.0491 40.1861 61.4104 40.1861C62.381 40.1861 63.2333 40.3015 63.9672 40.5323C64.7011 40.7572 65.3078 41.0739 65.7872 41.4822C66.2725 41.8847 66.6128 42.3582 66.8081 42.9027C67.0093 43.4413 67.0567 44.0272 66.9502 44.6605L65.3877 54H60.8067L61.1263 52.0824H61.0198C60.6647 52.5914 60.2651 53.0027 59.8213 53.3164C59.3833 53.6301 58.9039 53.858 58.383 54C57.8681 54.142 57.3147 54.2131 56.7229 54.2131ZM58.8536 51.1236C59.2205 51.1236 59.5816 51.0466 59.9367 50.8928C60.2918 50.7389 60.5966 50.5169 60.8511 50.2269C61.1056 49.9369 61.2683 49.5848 61.3394 49.1705L61.5169 48.0341C61.3867 48.0874 61.2417 48.1377 61.0819 48.185C60.928 48.2264 60.7653 48.2679 60.5936 48.3093C60.4279 48.3507 60.2504 48.3892 60.061 48.4247C59.8775 48.4602 59.6881 48.4957 59.4928 48.5312C59.1021 48.5904 58.7737 48.6881 58.5073 48.8242C58.241 48.9544 58.0338 49.1172 57.8859 49.3125C57.7379 49.5019 57.6462 49.715 57.6107 49.9517C57.5574 50.3246 57.6432 50.6146 57.8681 50.8217C58.099 51.023 58.4274 51.1236 58.8536 51.1236ZM73.9883 54.2486C72.5086 54.2486 71.2894 53.9556 70.3306 53.3697C69.3718 52.7778 68.7 51.9551 68.3153 50.9016C67.9306 49.8422 67.8567 48.6141 68.0934 47.2173C68.3183 45.8205 68.7977 44.5954 69.5316 43.5419C70.2714 42.4825 71.2184 41.6598 72.3725 41.0739C73.5326 40.482 74.8524 40.1861 76.332 40.1861C77.6696 40.1861 78.7853 40.4287 79.679 40.9141C80.5786 41.3935 81.2208 42.0741 81.6055 42.956C81.9961 43.8319 82.0967 44.8617 81.9073 46.0455H77.3619C77.4151 45.3352 77.2997 44.7907 77.0156 44.4119C76.7375 44.0331 76.332 43.8438 75.7994 43.8438C75.3614 43.8438 74.9589 43.968 74.592 44.2166C74.2309 44.4593 73.9202 44.8292 73.6598 45.3263C73.4053 45.8176 73.2189 46.4361 73.1005 47.1818C72.9821 47.9276 72.9673 48.549 73.0561 49.0462C73.1508 49.5374 73.3343 49.9073 73.6065 50.1559C73.8847 50.3986 74.2369 50.5199 74.663 50.5199C75.0299 50.5199 75.3673 50.437 75.6751 50.2713C75.9888 50.0997 76.258 49.8511 76.483 49.5256C76.7138 49.1941 76.8884 48.7917 77.0067 48.3182H81.5522C81.3273 49.5256 80.8745 50.5732 80.1939 51.4609C79.5133 52.3487 78.6462 53.0353 77.5927 53.5206C76.5392 54.0059 75.3377 54.2486 73.9883 54.2486ZM88.8744 54.2486C87.3948 54.2486 86.1755 53.9556 85.2167 53.3697C84.2639 52.7778 83.5951 51.9551 83.2104 50.9016C82.8256 49.8422 82.7487 48.6141 82.9795 47.2173C83.2104 45.8205 83.6927 44.5954 84.4266 43.5419C85.1605 42.4825 86.1045 41.6598 87.2586 41.0739C88.4128 40.482 89.7326 40.1861 91.2182 40.1861C92.6919 40.1861 93.9052 40.482 94.8581 41.0739C95.8169 41.6598 96.4886 42.4825 96.8733 43.5419C97.264 44.5954 97.3439 45.8205 97.113 47.2173C96.8822 48.6141 96.3969 49.8422 95.6571 50.9016C94.9173 51.9551 93.9703 52.7778 92.8162 53.3697C91.668 53.9556 90.3541 54.2486 88.8744 54.2486ZM89.4781 50.6264C89.9042 50.6264 90.2919 50.4873 90.6411 50.2092C90.9962 49.931 91.2981 49.5344 91.5466 49.0195C91.8011 48.5046 91.9876 47.892 92.1059 47.1818C92.2243 46.4657 92.2421 45.8531 92.1592 45.3441C92.0764 44.8292 91.9047 44.4326 91.6443 44.1545C91.3839 43.8763 91.0406 43.7372 90.6145 43.7372C90.1883 43.7372 89.7977 43.8763 89.4426 44.1545C89.0875 44.4326 88.7856 44.8292 88.5371 45.3441C88.2885 45.8531 88.105 46.4657 87.9866 47.1818C87.8683 47.892 87.8475 48.5046 87.9245 49.0195C88.0073 49.5344 88.179 49.931 88.4394 50.2092C88.7057 50.4873 89.052 50.6264 89.4781 50.6264ZM97.7258 54L99.9986 40.3636H105.964C107.787 40.3636 109.172 40.6744 110.119 41.2958C111.066 41.9173 111.433 42.8494 111.22 44.0923C111.114 44.767 110.723 45.3648 110.048 45.8857C109.374 46.4065 108.462 46.7557 107.314 46.9332C108.338 46.9806 109.143 47.17 109.729 47.5014C110.321 47.8269 110.726 48.2353 110.945 48.7266C111.164 49.2119 111.232 49.715 111.149 50.2358C111.013 51.0644 110.673 51.7598 110.128 52.3221C109.584 52.8784 108.85 53.2987 107.926 53.5827C107.003 53.8609 105.899 54 104.615 54H97.7258ZM102.839 50.5554H105.183C105.586 50.5554 105.917 50.4607 106.178 50.2713C106.438 50.0819 106.592 49.8215 106.639 49.4901C106.704 49.1468 106.636 48.8775 106.435 48.6822C106.24 48.4869 105.941 48.3892 105.538 48.3892H103.195L102.839 50.5554ZM103.621 45.9034H105.183C105.438 45.9034 105.66 45.8649 105.849 45.788C106.044 45.7051 106.204 45.5897 106.328 45.4418C106.453 45.2938 106.533 45.1162 106.568 44.9091C106.616 44.5954 106.53 44.3527 106.311 44.1811C106.098 44.0036 105.781 43.9148 105.361 43.9148H103.94L103.621 45.9034ZM114.882 54.2841C114.19 54.2841 113.625 54.0444 113.187 53.565C112.755 53.0797 112.574 52.4908 112.645 51.7983C112.716 51.1236 113.021 50.5465 113.56 50.0671C114.104 49.5877 114.723 49.348 115.415 49.348C116.072 49.348 116.62 49.5877 117.058 50.0671C117.501 50.5465 117.688 51.1236 117.617 51.7983C117.57 52.2599 117.407 52.6802 117.129 53.0589C116.856 53.4318 116.519 53.7307 116.116 53.9556C115.72 54.1746 115.309 54.2841 114.882 54.2841ZM34.3754 92.2486C33.2863 92.2486 32.2831 92.074 31.3658 91.7248C30.4484 91.3756 29.676 90.8281 29.0487 90.0824C28.4213 89.3307 27.9922 88.3601 27.7614 87.1705C27.5305 85.9808 27.5572 84.5485 27.8413 82.8736C28.0839 81.4235 28.4834 80.1274 29.0398 78.9851C29.5961 77.8369 30.2797 76.8603 31.0906 76.0554C31.9014 75.2446 32.8158 74.629 33.8338 74.2088C34.8518 73.7827 35.9438 73.5696 37.1097 73.5696C38.4592 73.5696 39.6103 73.8241 40.5632 74.3331C41.522 74.8362 42.2441 75.5168 42.7294 76.375C43.2147 77.2273 43.4248 78.1742 43.3597 79.2159H38.5657C38.5657 78.6892 38.3911 78.3163 38.0419 78.0973C37.6927 77.8724 37.2754 77.7599 36.7901 77.7599C35.7189 77.7599 34.84 78.2334 34.1534 79.1804C33.4669 80.1214 32.9845 81.3288 32.7063 82.8026L32.8484 82.554C33.1739 81.9976 33.5941 81.5301 34.109 81.1513C34.6299 80.7725 35.204 80.4854 35.8313 80.2901C36.4646 80.0948 37.1156 79.9972 37.7844 79.9972C38.9149 79.9972 39.8648 80.2576 40.6342 80.7784C41.4036 81.2992 41.9511 82.0124 42.2766 82.918C42.6022 83.8235 42.6673 84.8504 42.4719 85.9986C42.2648 87.2652 41.7854 88.366 41.0337 89.3011C40.2821 90.2363 39.3321 90.9613 38.1839 91.4762C37.0357 91.9911 35.7662 92.2486 34.3754 92.2486ZM34.5529 88.5199C35.0797 88.5199 35.5709 88.3986 36.0266 88.1559C36.4883 87.9073 36.873 87.57 37.1808 87.1438C37.4885 86.7118 37.6779 86.2235 37.7489 85.679C37.82 85.2173 37.7844 84.8119 37.6424 84.4627C37.5063 84.1076 37.2814 83.8324 36.9677 83.6371C36.654 83.4358 36.2634 83.3352 35.7958 83.3352C35.4111 83.3352 35.0412 83.4062 34.6861 83.5483C34.331 83.6903 34.0084 83.8886 33.7184 84.1431C33.4284 84.3976 33.1857 84.6995 32.9904 85.0487C32.7951 85.3919 32.6649 85.7678 32.5998 86.1761C32.5347 86.6555 32.5732 87.0698 32.7152 87.419C32.8572 87.7682 33.0851 88.0405 33.3988 88.2358C33.7184 88.4252 34.1031 88.5199 34.5529 88.5199ZM50.6819 92.2486C49.2911 92.2486 48.0955 92 47.0953 91.5028C46.0951 91.0057 45.3582 90.3221 44.8847 89.4521C44.4112 88.582 44.2603 87.5848 44.4319 86.4602H49.226C49.1431 87.0817 49.3029 87.5818 49.7054 87.9606C50.1078 88.3335 50.6346 88.5199 51.2856 88.5199C51.8005 88.5199 52.2681 88.4134 52.6883 88.2003C53.1086 87.9813 53.4607 87.6765 53.7448 87.2859C54.0289 86.8893 54.2153 86.4247 54.3041 85.892C54.3929 85.3594 54.3603 84.8977 54.2064 84.5071C54.0526 84.1106 53.801 83.8058 53.4518 83.5927C53.1026 83.3737 52.6765 83.2642 52.1734 83.2642C51.6467 83.2642 51.1436 83.3915 50.6642 83.646C50.1848 83.8945 49.8001 84.2408 49.5101 84.6847L45.3197 83.8324L47.699 73.8182H59.9149L59.2757 77.7599H51.1081L50.0782 81.7727H50.1848C50.5636 81.2223 51.1318 80.7666 51.8893 80.4055C52.6528 80.0386 53.4933 79.8551 54.4106 79.8551C55.4937 79.8551 56.417 80.1067 57.1805 80.6097C57.944 81.1128 58.4974 81.8082 58.8407 82.696C59.184 83.5838 59.2579 84.6018 59.0626 85.75C58.8673 87.0166 58.3879 88.1381 57.6244 89.1147C56.8609 90.0913 55.8844 90.8577 54.6947 91.4141C53.5051 91.9704 52.1675 92.2486 50.6819 92.2486ZM67.7343 92.4972C66.0771 92.4972 64.7069 92.1184 63.6238 91.3608C62.5407 90.5973 61.792 89.5024 61.3777 88.076C60.9634 86.6496 60.9279 84.9392 61.2712 82.9446C61.6145 80.9441 62.227 79.2455 63.1089 77.8487C63.9967 76.4519 65.0976 75.3896 66.4115 74.6616C67.7313 73.9336 69.2139 73.5696 70.8593 73.5696C72.5046 73.5696 73.8659 73.9336 74.9431 74.6616C76.0203 75.3896 76.769 76.4519 77.1892 77.8487C77.6094 79.2396 77.6538 80.9382 77.3223 82.9446C76.9909 84.9451 76.3813 86.6585 75.4935 88.0849C74.6116 89.5112 73.5078 90.6032 72.1821 91.3608C70.8622 92.1184 69.3796 92.4972 67.7343 92.4972ZM68.409 88.4844C69.2613 88.4844 70.0248 88.0405 70.6995 87.1527C71.3801 86.259 71.8832 84.8563 72.2087 82.9446C72.4218 81.7017 72.4721 80.6837 72.3596 79.8906C72.2472 79.0916 72.0045 78.5027 71.6316 78.1239C71.2588 77.7392 70.7882 77.5469 70.2201 77.5469C69.3678 77.5469 68.5925 77.9819 67.8941 78.8519C67.2016 79.716 66.6985 81.0803 66.3848 82.9446C66.1718 84.223 66.1244 85.2706 66.2428 86.0874C66.3612 86.9041 66.6097 87.5078 66.9885 87.8984C67.3673 88.2891 67.8408 88.4844 68.409 88.4844ZM93.658 85.9631H83.6793L84.3185 82.1278H94.1196C94.7529 82.1278 95.2826 82.0509 95.7088 81.897C96.1408 81.7372 96.4752 81.5064 96.712 81.2045C96.9546 80.8968 97.1085 80.518 97.1736 80.0682C97.2506 79.642 97.2239 79.2514 97.0937 78.8963C96.9694 78.5412 96.7356 78.2571 96.3924 78.044C96.055 77.831 95.6052 77.7244 95.0429 77.7244H92.3441L89.9648 92H85.0642L88.0827 73.8182H95.6821C97.1795 73.8182 98.4461 74.0816 99.4819 74.6083C100.524 75.1351 101.278 75.863 101.746 76.7923C102.219 77.7215 102.352 78.7898 102.145 79.9972C101.938 81.2992 101.438 82.3942 100.645 83.282C99.8518 84.1638 98.8515 84.8326 97.6441 85.2884C96.4368 85.7382 95.108 85.9631 93.658 85.9631ZM94.7944 86.7798L94.1552 90.6151H82.9336L83.5728 86.7798H94.7944Z" fill="#FF9500"/>
</g>
<defs>
<filter id="filter0_f_99_66" x="4" y="4" width="120" height="120" filterUnits="userSpaceOnUse" color-interpolation-filters="sRGB">
<feFlood flood-opacity="0" result="BackgroundImageFix"/>
<feBlend mode="normal" in="SourceGraphic" in2="BackgroundImageFix" result="shape"/>
<feGaussianBlur stdDeviation="2" result="effect1_foregroundBlur_99_66"/>
</filter>
<filter id="filter1_d_99_66" x="0.846619" y="35.5696" width="120.877" height="64.9276" filterUnits="userSpaceOnUse" color-interpolation-filters="sRGB">
<feFlood flood-opacity="0" result="BackgroundImageFix"/>
<feColorMatrix in="SourceAlpha" type="matrix" values="0 0 0 0 0 0 0 0 0 0 0 0 0 0 0 0 0 0 127 0" result="hardAlpha"/>
<feOffset dy="4"/>
<feGaussianBlur stdDeviation="2"/>
<feComposite in2="hardAlpha" operator="out"/>
<feColorMatrix type="matrix" values="0 0 0 0 0 0 0 0 0 0 0 0 0 0 0 0 0 0 0.25 0"/>
<feBlend mode="normal" in2="BackgroundImageFix" result="effect1_dropShadow_99_66"/>
<feBlend mode="normal" in="SourceGraphic" in2="effect1_dropShadow_99_66" result="shape"/>
</filter>
</defs>
</svg>
