<svg width="147" height="128" viewBox="0 0 147 128" fill="none" xmlns="http://www.w3.org/2000/svg">
<rect width="128" height="128" rx="51.2" fill="#1D222B"/>
<g opacity="0.2">
<circle cx="64" cy="64" r="46.375" fill="#0FA958" stroke="black" stroke-width="5.25"/>
<circle cx="64" cy="64" r="34.125" fill="#FFF4D9" stroke="black" stroke-width="5.25"/>
<path d="M63.125 85.8544C52.3833 85.3485 42.6515 75.6167 42.1456 64.875" stroke="black" stroke-width="5.25" stroke-linecap="round"/>
<path d="M61.375 45.625V61.375C61.375 64.2745 63.7255 66.625 66.625 66.625H79.75" stroke="black" stroke-width="5.25" stroke-linejoin="round"/>
<path d="M54.375 50.875C57.875 47.375 59.625 45.625 61.375 45.625C63.125 45.625 64.875 47.375 68.375 50.875" stroke="black" stroke-width="5.25" stroke-linecap="round"/>
<path d="M77.125 59.625C80.625 63.125 82.375 64.875 82.375 66.625C82.375 68.375 80.625 70.125 77.125 73.625" stroke="black" stroke-width="5.25" stroke-linecap="round"/>
</g>
<path d="M10.6818 61.3636L8.75 73H5.59091L7.04545 64.2727H6.97727L4.18182 65.7955L4.61364 63.1136L7.77273 61.3636H10.6818ZM15.9859 73.3182C14.9253 73.3182 14.0484 73.0758 13.3552 72.5909C12.6621 72.1023 12.1829 71.4015 11.9177 70.4886C11.6526 69.5758 11.6299 68.4811 11.8496 67.2045C12.0693 65.9242 12.4613 64.8371 13.0257 63.9432C13.5939 63.0492 14.2984 62.3693 15.1393 61.9034C15.984 61.4375 16.9329 61.2045 17.9859 61.2045C19.039 61.2045 19.9102 61.4375 20.5996 61.9034C21.289 62.3693 21.7681 63.0492 22.0371 63.9432C22.306 64.8333 22.3344 65.9205 22.1223 67.2045C21.9102 68.4848 21.52 69.5814 20.9518 70.4943C20.3874 71.4072 19.681 72.1061 18.8325 72.5909C17.9878 73.0758 17.039 73.3182 15.9859 73.3182ZM16.4177 70.75C16.9632 70.75 17.4518 70.4659 17.8837 69.8977C18.3193 69.3258 18.6412 68.428 18.8496 67.2045C18.9859 66.4091 19.0181 65.7576 18.9462 65.25C18.8742 64.7386 18.7189 64.3617 18.4802 64.1193C18.2416 63.8731 17.9405 63.75 17.5768 63.75C17.0314 63.75 16.5352 64.0284 16.0882 64.5852C15.645 65.1383 15.3231 66.0114 15.1223 67.2045C14.9859 68.0227 14.9556 68.6932 15.0314 69.2159C15.1071 69.7386 15.2662 70.125 15.5087 70.375C15.7511 70.625 16.0541 70.75 16.4177 70.75ZM35.0998 64.2727L33.6453 73H30.7135L32.168 64.2727H35.0998ZM32.9635 67.8864L32.5771 70.2273C32.4635 70.2955 32.2703 70.3636 31.9976 70.4318C31.7286 70.4962 31.4483 70.5511 31.1567 70.5966C30.865 70.6383 30.6264 70.6591 30.4407 70.6591C29.0127 70.6591 27.9407 70.4053 27.2248 69.8977C26.5089 69.3902 26.2476 68.5455 26.4407 67.3636L26.9635 64.2727H29.8726L29.3498 67.3636C29.3082 67.6288 29.3139 67.8295 29.3669 67.9659C29.4237 68.1023 29.5639 68.1951 29.7873 68.2443C30.0146 68.2936 30.3612 68.3182 30.8271 68.3182C31.115 68.3182 31.4294 68.2841 31.7703 68.2159C32.115 68.1439 32.5127 68.0341 32.9635 67.8864ZM37.3826 73.1364C36.8296 73.1364 36.3542 73.0455 35.9565 72.8636C35.5626 72.678 35.2747 72.3977 35.0929 72.0227C34.9148 71.6439 34.8751 71.1667 34.9736 70.5909C35.0531 70.1136 35.2027 69.7064 35.4224 69.3693C35.6421 69.0322 35.9148 68.7557 36.2406 68.5398C36.5664 68.3239 36.9319 68.1591 37.3372 68.0455C37.7463 67.928 38.1781 67.8523 38.6326 67.8182C39.1251 67.7803 39.5247 67.733 39.8315 67.6761C40.1383 67.6193 40.3675 67.5417 40.519 67.4432C40.6705 67.3447 40.7614 67.2121 40.7917 67.0455V67.0227C40.8258 66.7955 40.7652 66.6212 40.6099 66.5C40.4584 66.3788 40.2463 66.3182 39.9736 66.3182C39.6781 66.3182 39.4224 66.3826 39.2065 66.5114C38.9944 66.6402 38.8486 66.8409 38.769 67.1136H35.8826C36.0039 66.5833 36.252 66.0947 36.627 65.6477C37.0058 65.197 37.5076 64.8371 38.1326 64.5682C38.7614 64.2955 39.5114 64.1591 40.3826 64.1591C41.0039 64.1591 41.5493 64.233 42.019 64.3807C42.4887 64.5246 42.877 64.7273 43.1838 64.9886C43.4944 65.2462 43.7122 65.5492 43.8372 65.8977C43.966 66.2424 43.9963 66.6174 43.9281 67.0227L42.9281 73H39.9963L40.2008 71.7727H40.1326C39.9054 72.0985 39.6497 72.3617 39.3656 72.5625C39.0853 72.7633 38.7785 72.9091 38.4451 73C38.1156 73.0909 37.7614 73.1364 37.3826 73.1364ZM38.7463 71.1591C38.9811 71.1591 39.2122 71.1098 39.4395 71.0114C39.6667 70.9129 39.8618 70.7708 40.0247 70.5852C40.1876 70.3996 40.2917 70.1742 40.3372 69.9091L40.4508 69.1818C40.3675 69.2159 40.2747 69.2481 40.1724 69.2784C40.0739 69.3049 39.9698 69.3314 39.8599 69.358C39.7539 69.3845 39.6402 69.4091 39.519 69.4318C39.4016 69.4545 39.2804 69.4773 39.1554 69.5C38.9054 69.5379 38.6951 69.6004 38.5247 69.6875C38.3542 69.7708 38.2217 69.875 38.127 70C38.0323 70.1212 37.9736 70.2576 37.9508 70.4091C37.9167 70.6477 37.9717 70.8333 38.1156 70.9659C38.2633 71.0947 38.4736 71.1591 38.7463 71.1591ZM48.4325 73.1591C47.4855 73.1591 46.7052 72.9716 46.0916 72.5966C45.4779 72.2178 45.048 71.6913 44.8018 71.017C44.5556 70.339 44.5083 69.553 44.6598 68.6591C44.8037 67.7652 45.1105 66.9811 45.5802 66.3068C46.0537 65.6288 46.6598 65.1023 47.3984 64.7273C48.1408 64.3485 48.9855 64.1591 49.9325 64.1591C50.7886 64.1591 51.5026 64.3144 52.0745 64.625C52.6503 64.9318 53.0613 65.3674 53.3075 65.9318C53.5575 66.4924 53.6219 67.1515 53.5007 67.9091H50.5916C50.6257 67.4545 50.5518 67.1061 50.37 66.8636C50.192 66.6212 49.9325 66.5 49.5916 66.5C49.3113 66.5 49.0537 66.5795 48.8189 66.7386C48.5878 66.8939 48.3889 67.1307 48.2223 67.4489C48.0594 67.7633 47.9401 68.1591 47.8643 68.6364C47.7886 69.1136 47.7791 69.5114 47.8359 69.8295C47.8965 70.1439 48.0139 70.3807 48.1882 70.5398C48.3662 70.6951 48.5916 70.7727 48.8643 70.7727C49.0992 70.7727 49.3151 70.7197 49.512 70.6136C49.7128 70.5038 49.8851 70.3447 50.0291 70.1364C50.1768 69.9242 50.2886 69.6667 50.3643 69.3636H53.2734C53.1295 70.1364 52.8397 70.8068 52.4041 71.375C51.9685 71.9432 51.4136 72.3826 50.7393 72.6932C50.0651 73.0038 49.2961 73.1591 48.4325 73.1591ZM57.9596 73.1591C57.0127 73.1591 56.2323 72.9716 55.6187 72.5966C55.0089 72.2178 54.5808 71.6913 54.3346 71.017C54.0884 70.339 54.0392 69.553 54.1869 68.6591C54.3346 67.7652 54.6433 66.9811 55.113 66.3068C55.5827 65.6288 56.1869 65.1023 56.9255 64.7273C57.6642 64.3485 58.5089 64.1591 59.4596 64.1591C60.4028 64.1591 61.1793 64.3485 61.7892 64.7273C62.4028 65.1023 62.8327 65.6288 63.0789 66.3068C63.3289 66.9811 63.3801 67.7652 63.2323 68.6591C63.0846 69.553 62.774 70.339 62.3005 71.017C61.827 71.6913 61.221 72.2178 60.4823 72.5966C59.7475 72.9716 58.9066 73.1591 57.9596 73.1591ZM58.346 70.8409C58.6187 70.8409 58.8668 70.7519 59.0903 70.5739C59.3176 70.3958 59.5108 70.142 59.6698 69.8125C59.8327 69.483 59.952 69.0909 60.0278 68.6364C60.1036 68.178 60.1149 67.786 60.0619 67.4602C60.0089 67.1307 59.899 66.8769 59.7323 66.6989C59.5657 66.5208 59.346 66.4318 59.0733 66.4318C58.8005 66.4318 58.5505 66.5208 58.3233 66.6989C58.096 66.8769 57.9028 67.1307 57.7437 67.4602C57.5846 67.786 57.4672 68.178 57.3914 68.6364C57.3157 69.0909 57.3024 69.483 57.3517 69.8125C57.4047 70.142 57.5145 70.3958 57.6812 70.5739C57.8517 70.7519 58.0733 70.8409 58.346 70.8409ZM63.6245 73L65.0791 64.2727H68.8973C70.0639 64.2727 70.9503 64.4716 71.5563 64.8693C72.1624 65.267 72.3973 65.8636 72.2609 66.6591C72.1927 67.0909 71.9427 67.4735 71.5109 67.8068C71.0791 68.1402 70.4957 68.3636 69.7609 68.4773C70.4162 68.5076 70.9313 68.6288 71.3063 68.8409C71.6851 69.0492 71.9446 69.3106 72.0848 69.625C72.2249 69.9356 72.2685 70.2576 72.2154 70.5909C72.1283 71.1212 71.9105 71.5663 71.562 71.9261C71.2135 72.2822 70.7438 72.5511 70.1529 72.733C69.562 72.911 68.8556 73 68.0336 73H63.6245ZM66.8973 70.7955H68.3973C68.6548 70.7955 68.867 70.7348 69.0336 70.6136C69.2003 70.4924 69.2988 70.3258 69.3291 70.1136C69.3707 69.8939 69.3272 69.7216 69.1984 69.5966C69.0734 69.4716 68.8821 69.4091 68.6245 69.4091H67.1245L66.8973 70.7955ZM67.3973 67.8182H68.3973C68.5601 67.8182 68.7022 67.7936 68.8234 67.7443C68.9484 67.6913 69.0507 67.6174 69.1302 67.5227C69.2098 67.428 69.2609 67.3144 69.2836 67.1818C69.3139 66.9811 69.259 66.8258 69.1188 66.7159C68.9825 66.6023 68.7798 66.5455 68.5109 66.5455H67.6018L67.3973 67.8182ZM74.6048 73.1818C74.1616 73.1818 73.7999 73.0284 73.5196 72.7216C73.243 72.411 73.1275 72.0341 73.173 71.5909C73.2184 71.1591 73.4135 70.7898 73.7582 70.483C74.1067 70.1761 74.5025 70.0227 74.9457 70.0227C75.3661 70.0227 75.7165 70.1761 75.9968 70.483C76.2809 70.7898 76.4002 71.1591 76.3548 71.5909C76.3245 71.8864 76.2203 72.1553 76.0423 72.3977C75.868 72.6364 75.6521 72.8277 75.3946 72.9716C75.1408 73.1117 74.8775 73.1818 74.6048 73.1818ZM84.7158 73.1591C84.0189 73.1591 83.3768 73.0473 82.7897 72.8239C82.2026 72.6004 81.7083 72.25 81.3068 71.7727C80.9052 71.2917 80.6306 70.6705 80.4829 69.9091C80.3352 69.1477 80.3522 68.2311 80.534 67.1591C80.6893 66.2311 80.945 65.4015 81.3011 64.6705C81.6571 63.9356 82.0946 63.3106 82.6136 62.7955C83.1325 62.2765 83.7177 61.8826 84.3693 61.6136C85.0208 61.3409 85.7196 61.2045 86.4658 61.2045C87.3295 61.2045 88.0662 61.3674 88.6761 61.6932C89.2897 62.0152 89.7518 62.4508 90.0624 63C90.373 63.5455 90.5075 64.1515 90.4658 64.8182H87.3977C87.3977 64.4811 87.2859 64.2424 87.0624 64.1023C86.8389 63.9583 86.5719 63.8864 86.2613 63.8864C85.5757 63.8864 85.0132 64.1894 84.5738 64.7955C84.1344 65.3977 83.8257 66.1705 83.6477 67.1136L83.7386 66.9545C83.9469 66.5985 84.2158 66.2992 84.5454 66.0568C84.8787 65.8144 85.2461 65.6307 85.6477 65.5057C86.053 65.3807 86.4696 65.3182 86.8977 65.3182C87.6211 65.3182 88.2291 65.4848 88.7215 65.8182C89.2139 66.1515 89.5643 66.608 89.7727 67.1875C89.981 67.767 90.0227 68.4242 89.8977 69.1591C89.7651 69.9697 89.4583 70.6742 88.9772 71.2727C88.4961 71.8712 87.8882 72.3352 87.1533 72.6648C86.4185 72.9943 85.606 73.1591 84.7158 73.1591ZM84.8295 70.7727C85.1666 70.7727 85.481 70.6951 85.7727 70.5398C86.0681 70.3807 86.3143 70.1648 86.5113 69.892C86.7083 69.6155 86.8295 69.303 86.8749 68.9545C86.9204 68.6591 86.8977 68.3996 86.8068 68.1761C86.7196 67.9489 86.5757 67.7727 86.3749 67.6477C86.1742 67.5189 85.9242 67.4545 85.6249 67.4545C85.3787 67.4545 85.142 67.5 84.9147 67.5909C84.6874 67.6818 84.481 67.8087 84.2954 67.9716C84.1098 68.1345 83.9545 68.3277 83.8295 68.5511C83.7045 68.7708 83.6211 69.0114 83.5795 69.2727C83.5378 69.5795 83.5624 69.8447 83.6533 70.0682C83.7443 70.2917 83.8901 70.4659 84.0908 70.5909C84.2954 70.7121 84.5416 70.7727 84.8295 70.7727ZM95.1521 73.1591C94.2619 73.1591 93.4968 73 92.8566 72.6818C92.2164 72.3636 91.7449 71.9261 91.4418 71.3693C91.1388 70.8125 91.0422 70.1742 91.1521 69.4545H94.2202C94.1672 69.8523 94.2695 70.1723 94.5271 70.4148C94.7846 70.6534 95.1218 70.7727 95.5384 70.7727C95.868 70.7727 96.1672 70.7045 96.4361 70.5682C96.7051 70.428 96.9305 70.233 97.1123 69.983C97.2941 69.7292 97.4134 69.4318 97.4702 69.0909C97.5271 68.75 97.5062 68.4545 97.4077 68.2045C97.3093 67.9508 97.1483 67.7557 96.9248 67.6193C96.7013 67.4792 96.4286 67.4091 96.1066 67.4091C95.7695 67.4091 95.4475 67.4905 95.1407 67.6534C94.8339 67.8125 94.5877 68.0341 94.4021 68.3182L91.7202 67.7727L93.243 61.3636H101.061L100.652 63.8864H95.4248L94.7657 66.4545H94.8339C95.0763 66.1023 95.4399 65.8106 95.9248 65.5795C96.4134 65.3447 96.9513 65.2273 97.5384 65.2273C98.2316 65.2273 98.8225 65.3883 99.3111 65.7102C99.7998 66.0322 100.154 66.4773 100.374 67.0455C100.593 67.6136 100.641 68.2652 100.516 69C100.391 69.8106 100.084 70.5284 99.5952 71.1534C99.1066 71.7784 98.4816 72.2689 97.7202 72.625C96.9589 72.9811 96.1028 73.1591 95.1521 73.1591ZM106.066 73.3182C105.005 73.3182 104.128 73.0758 103.435 72.5909C102.742 72.1023 102.263 71.4015 101.997 70.4886C101.732 69.5758 101.709 68.4811 101.929 67.2045C102.149 65.9242 102.541 64.8371 103.105 63.9432C103.674 63.0492 104.378 62.3693 105.219 61.9034C106.064 61.4375 107.013 61.2045 108.066 61.2045C109.119 61.2045 109.99 61.4375 110.679 61.9034C111.369 62.3693 111.848 63.0492 112.117 63.9432C112.386 64.8333 112.414 65.9205 112.202 67.2045C111.99 68.4848 111.6 69.5814 111.031 70.4943C110.467 71.4072 109.761 72.1061 108.912 72.5909C108.067 73.0758 107.119 73.3182 106.066 73.3182ZM106.497 70.75C107.043 70.75 107.531 70.4659 107.963 69.8977C108.399 69.3258 108.721 68.428 108.929 67.2045C109.066 66.4091 109.098 65.7576 109.026 65.25C108.954 64.7386 108.799 64.3617 108.56 64.1193C108.321 63.8731 108.02 63.75 107.656 63.75C107.111 63.75 106.615 64.0284 106.168 64.5852C105.725 65.1383 105.403 66.0114 105.202 67.2045C105.066 68.0227 105.035 68.6932 105.111 69.2159C105.187 69.7386 105.346 70.125 105.588 70.375C105.831 70.625 106.134 70.75 106.497 70.75ZM122.657 69.1364H116.27L116.679 66.6818H122.952C123.357 66.6818 123.696 66.6326 123.969 66.5341C124.246 66.4318 124.46 66.2841 124.611 66.0909C124.767 65.8939 124.865 65.6515 124.907 65.3636C124.956 65.0909 124.939 64.8409 124.856 64.6136C124.776 64.3864 124.626 64.2045 124.407 64.0682C124.191 63.9318 123.903 63.8636 123.543 63.8636H121.816L120.293 73H117.157L119.089 61.3636H123.952C124.911 61.3636 125.721 61.5322 126.384 61.8693C127.051 62.2064 127.534 62.6723 127.833 63.267C128.136 63.8617 128.221 64.5455 128.089 65.3182C127.956 66.1515 127.636 66.8523 127.128 67.4205C126.621 67.9848 125.981 68.4129 125.208 68.7045C124.435 68.9924 123.585 69.1364 122.657 69.1364ZM123.384 69.6591L122.975 72.1136H115.793L116.202 69.6591H123.384Z" fill="#FFA629"/>
</svg>
