<svg width="128" height="128" viewBox="0 0 128 128" fill="none" xmlns="http://www.w3.org/2000/svg">
<rect width="128" height="128" rx="51.2" fill="#1D222B"/>
<g opacity="0.4" filter="url(#filter0_f_75_67)">
<circle cx="64" cy="64" r="46.375" fill="#0FA958" stroke="black" stroke-width="5.25"/>
<circle cx="64" cy="64" r="34.125" fill="#FFF4D9" stroke="black" stroke-width="5.25"/>
<path d="M63.125 85.8544C52.3833 85.3485 42.6515 75.6167 42.1456 64.875" stroke="black" stroke-width="5.25" stroke-linecap="round"/>
<path d="M61.375 45.625V61.375C61.375 64.2745 63.7255 66.625 66.625 66.625H79.75" stroke="black" stroke-width="5.25" stroke-linejoin="round"/>
<path d="M54.375 50.875C57.875 47.375 59.625 45.625 61.375 45.625C63.125 45.625 64.875 47.375 68.375 50.875" stroke="black" stroke-width="5.25" stroke-linecap="round"/>
<path d="M77.125 59.625C80.625 63.125 82.375 64.875 82.375 66.625C82.375 68.375 80.625 70.125 77.125 73.625" stroke="black" stroke-width="5.25" stroke-linecap="round"/>
</g>
<g filter="url(#filter1_d_75_67)">
<path d="M19.0028 35.8182L15.9844 54H11.0483L13.321 40.3636H13.2145L8.84659 42.7429L9.52131 38.5526L14.4574 35.8182H19.0028ZM27.2905 54.4972C25.6333 54.4972 24.2632 54.1184 23.1801 53.3608C22.097 52.5973 21.3483 51.5024 20.934 50.076C20.5197 48.6496 20.4842 46.9392 20.8275 44.9446C21.1707 42.9441 21.7833 41.2455 22.6652 39.8487C23.5529 38.4519 24.6538 37.3896 25.9677 36.6616C27.2876 35.9336 28.7702 35.5696 30.4155 35.5696C32.0609 35.5696 33.4221 35.9336 34.4993 36.6616C35.5765 37.3896 36.3252 38.4519 36.7454 39.8487C37.1656 41.2396 37.21 42.9382 36.8786 44.9446C36.5471 46.9451 35.9375 48.6585 35.0498 50.0849C34.1679 51.5112 33.0641 52.6032 31.7383 53.3608C30.4185 54.1184 28.9359 54.4972 27.2905 54.4972ZM27.9652 50.4844C28.8175 50.4844 29.581 50.0405 30.2557 49.1527C30.9364 48.259 31.4394 46.8563 31.765 44.9446C31.978 43.7017 32.0283 42.6837 31.9159 41.8906C31.8034 41.0916 31.5608 40.5027 31.1879 40.1239C30.815 39.7392 30.3445 39.5469 29.7763 39.5469C28.924 39.5469 28.1487 39.9819 27.4503 40.8519C26.7578 41.716 26.2548 43.0803 25.9411 44.9446C25.728 46.223 25.6807 47.2706 25.799 48.0874C25.9174 48.9041 26.166 49.5078 26.5448 49.8984C26.9236 50.2891 27.3971 50.4844 27.9652 50.4844ZM57.156 40.3636L54.8833 54H50.3023L52.575 40.3636H57.156ZM53.8179 46.0099L53.2142 49.6676C53.0367 49.7741 52.7348 49.8807 52.3087 49.9872C51.8885 50.0878 51.4505 50.1737 50.9948 50.2447C50.5391 50.3098 50.1662 50.3423 49.8762 50.3423C47.6449 50.3423 45.9699 49.9458 44.8513 49.1527C43.7327 48.3596 43.3243 47.0398 43.6262 45.1932L44.4429 40.3636H48.9884L48.1716 45.1932C48.1065 45.6075 48.1154 45.9212 48.1983 46.1342C48.287 46.3473 48.506 46.4923 48.8552 46.5692C49.2103 46.6462 49.7519 46.6847 50.4799 46.6847C50.9297 46.6847 51.4209 46.6314 51.9536 46.5249C52.4922 46.4124 53.1136 46.2408 53.8179 46.0099ZM60.7229 54.2131C59.8588 54.2131 59.116 54.071 58.4946 53.7869C57.879 53.4969 57.4292 53.0589 57.1451 52.473C56.8669 51.8812 56.8048 51.1354 56.9587 50.2358C57.083 49.4901 57.3168 48.8538 57.66 48.3271C58.0033 47.8003 58.4294 47.3683 58.9384 47.0309C59.4474 46.6935 60.0186 46.4361 60.6519 46.2585C61.2911 46.075 61.9658 45.9567 62.676 45.9034C63.4454 45.8442 64.0698 45.7702 64.5492 45.6815C65.0286 45.5927 65.3867 45.4714 65.6235 45.3175C65.8602 45.1636 66.0022 44.9564 66.0496 44.696V44.6605C66.1029 44.3054 66.0082 44.0331 65.7655 43.8438C65.5288 43.6544 65.1973 43.5597 64.7712 43.5597C64.3095 43.5597 63.91 43.6603 63.5727 43.8615C63.2412 44.0627 63.0134 44.3764 62.8891 44.8026H58.3791C58.5685 43.974 58.9562 43.2105 59.5421 42.5121C60.134 41.8078 60.9182 41.2455 61.8948 40.8253C62.8772 40.3991 64.0491 40.1861 65.4104 40.1861C66.381 40.1861 67.2333 40.3015 67.9672 40.5323C68.7011 40.7572 69.3078 41.0739 69.7872 41.4822C70.2725 41.8847 70.6128 42.3582 70.8081 42.9027C71.0093 43.4413 71.0567 44.0272 70.9502 44.6605L69.3877 54H64.8067L65.1263 52.0824H65.0198C64.6647 52.5914 64.2651 53.0027 63.8213 53.3164C63.3833 53.6301 62.9039 53.858 62.383 54C61.8681 54.142 61.3147 54.2131 60.7229 54.2131ZM62.8536 51.1236C63.2205 51.1236 63.5816 51.0466 63.9367 50.8928C64.2918 50.7389 64.5966 50.5169 64.8511 50.2269C65.1056 49.9369 65.2683 49.5848 65.3394 49.1705L65.5169 48.0341C65.3867 48.0874 65.2417 48.1377 65.0819 48.185C64.928 48.2264 64.7653 48.2679 64.5936 48.3093C64.4279 48.3507 64.2504 48.3892 64.061 48.4247C63.8775 48.4602 63.6881 48.4957 63.4928 48.5312C63.1021 48.5904 62.7737 48.6881 62.5073 48.8242C62.241 48.9544 62.0338 49.1172 61.8859 49.3125C61.7379 49.5019 61.6462 49.715 61.6107 49.9517C61.5574 50.3246 61.6432 50.6146 61.8681 50.8217C62.099 51.023 62.4274 51.1236 62.8536 51.1236ZM77.9883 54.2486C76.5086 54.2486 75.2894 53.9556 74.3306 53.3697C73.3718 52.7778 72.7 51.9551 72.3153 50.9016C71.9306 49.8422 71.8567 48.6141 72.0934 47.2173C72.3183 45.8205 72.7977 44.5954 73.5316 43.5419C74.2714 42.4825 75.2184 41.6598 76.3725 41.0739C77.5326 40.482 78.8524 40.1861 80.332 40.1861C81.6696 40.1861 82.7853 40.4287 83.679 40.9141C84.5786 41.3935 85.2208 42.0741 85.6055 42.956C85.9961 43.8319 86.0967 44.8617 85.9073 46.0455H81.3619C81.4151 45.3352 81.2997 44.7907 81.0156 44.4119C80.7375 44.0331 80.332 43.8438 79.7994 43.8438C79.3614 43.8438 78.9589 43.968 78.592 44.2166C78.2309 44.4593 77.9202 44.8292 77.6598 45.3263C77.4053 45.8176 77.2189 46.4361 77.1005 47.1818C76.9821 47.9276 76.9673 48.549 77.0561 49.0462C77.1508 49.5374 77.3343 49.9073 77.6065 50.1559C77.8847 50.3986 78.2369 50.5199 78.663 50.5199C79.0299 50.5199 79.3673 50.437 79.6751 50.2713C79.9888 50.0997 80.258 49.8511 80.483 49.5256C80.7138 49.1941 80.8884 48.7917 81.0067 48.3182H85.5522C85.3273 49.5256 84.8745 50.5732 84.1939 51.4609C83.5133 52.3487 82.6462 53.0353 81.5927 53.5206C80.5392 54.0059 79.3377 54.2486 77.9883 54.2486ZM92.8744 54.2486C91.3948 54.2486 90.1755 53.9556 89.2167 53.3697C88.2639 52.7778 87.5951 51.9551 87.2104 50.9016C86.8256 49.8422 86.7487 48.6141 86.9795 47.2173C87.2104 45.8205 87.6927 44.5954 88.4266 43.5419C89.1605 42.4825 90.1045 41.6598 91.2586 41.0739C92.4128 40.482 93.7326 40.1861 95.2182 40.1861C96.6919 40.1861 97.9052 40.482 98.8581 41.0739C99.8169 41.6598 100.489 42.4825 100.873 43.5419C101.264 44.5954 101.344 45.8205 101.113 47.2173C100.882 48.6141 100.397 49.8422 99.6571 50.9016C98.9173 51.9551 97.9703 52.7778 96.8162 53.3697C95.668 53.9556 94.3541 54.2486 92.8744 54.2486ZM93.4781 50.6264C93.9042 50.6264 94.2919 50.4873 94.6411 50.2092C94.9962 49.931 95.2981 49.5344 95.5466 49.0195C95.8011 48.5046 95.9876 47.892 96.1059 47.1818C96.2243 46.4657 96.2421 45.8531 96.1592 45.3441C96.0764 44.8292 95.9047 44.4326 95.6443 44.1545C95.3839 43.8763 95.0406 43.7372 94.6145 43.7372C94.1883 43.7372 93.7977 43.8763 93.4426 44.1545C93.0875 44.4326 92.7856 44.8292 92.5371 45.3441C92.2885 45.8531 92.105 46.4657 91.9866 47.1818C91.8683 47.892 91.8475 48.5046 91.9245 49.0195C92.0073 49.5344 92.179 49.931 92.4394 50.2092C92.7057 50.4873 93.052 50.6264 93.4781 50.6264ZM101.726 54L103.999 40.3636H109.964C111.787 40.3636 113.172 40.6744 114.119 41.2958C115.066 41.9173 115.433 42.8494 115.22 44.0923C115.114 44.767 114.723 45.3648 114.048 45.8857C113.374 46.4065 112.462 46.7557 111.314 46.9332C112.338 46.9806 113.143 47.17 113.729 47.5014C114.321 47.8269 114.726 48.2353 114.945 48.7266C115.164 49.2119 115.232 49.715 115.149 50.2358C115.013 51.0644 114.673 51.7598 114.128 52.3221C113.584 52.8784 112.85 53.2987 111.926 53.5827C111.003 53.8609 109.899 54 108.615 54H101.726ZM106.839 50.5554H109.183C109.586 50.5554 109.917 50.4607 110.178 50.2713C110.438 50.0819 110.592 49.8215 110.639 49.4901C110.704 49.1468 110.636 48.8775 110.435 48.6822C110.24 48.4869 109.941 48.3892 109.538 48.3892H107.195L106.839 50.5554ZM107.621 45.9034H109.183C109.438 45.9034 109.66 45.8649 109.849 45.788C110.044 45.7051 110.204 45.5897 110.328 45.4418C110.453 45.2938 110.533 45.1162 110.568 44.9091C110.616 44.5954 110.53 44.3527 110.311 44.1811C110.098 44.0036 109.781 43.9148 109.361 43.9148H107.94L107.621 45.9034ZM118.882 54.2841C118.19 54.2841 117.625 54.0444 117.187 53.565C116.755 53.0797 116.574 52.4908 116.645 51.7983C116.716 51.1236 117.021 50.5465 117.56 50.0671C118.104 49.5877 118.723 49.348 119.415 49.348C120.072 49.348 120.62 49.5877 121.058 50.0671C121.501 50.5465 121.688 51.1236 121.617 51.7983C121.57 52.2599 121.407 52.6802 121.129 53.0589C120.856 53.4318 120.519 53.7307 120.116 53.9556C119.72 54.1746 119.309 54.2841 118.882 54.2841ZM38.3754 92.2486C37.2863 92.2486 36.2831 92.074 35.3658 91.7248C34.4484 91.3756 33.676 90.8281 33.0487 90.0824C32.4213 89.3307 31.9922 88.3601 31.7614 87.1705C31.5305 85.9808 31.5572 84.5485 31.8413 82.8736C32.0839 81.4235 32.4834 80.1274 33.0398 78.9851C33.5961 77.8369 34.2797 76.8603 35.0906 76.0554C35.9014 75.2446 36.8158 74.629 37.8338 74.2088C38.8518 73.7827 39.9438 73.5696 41.1097 73.5696C42.4592 73.5696 43.6103 73.8241 44.5632 74.3331C45.522 74.8362 46.2441 75.5168 46.7294 76.375C47.2147 77.2273 47.4248 78.1742 47.3597 79.2159H42.5657C42.5657 78.6892 42.3911 78.3163 42.0419 78.0973C41.6927 77.8724 41.2754 77.7599 40.7901 77.7599C39.7189 77.7599 38.84 78.2334 38.1534 79.1804C37.4669 80.1214 36.9845 81.3288 36.7063 82.8026L36.8484 82.554C37.1739 81.9976 37.5941 81.5301 38.109 81.1513C38.6299 80.7725 39.204 80.4854 39.8313 80.2901C40.4646 80.0948 41.1156 79.9972 41.7844 79.9972C42.9149 79.9972 43.8648 80.2576 44.6342 80.7784C45.4036 81.2992 45.9511 82.0124 46.2766 82.918C46.6022 83.8235 46.6673 84.8504 46.4719 85.9986C46.2648 87.2652 45.7854 88.366 45.0337 89.3011C44.2821 90.2363 43.3321 90.9613 42.1839 91.4762C41.0357 91.9911 39.7662 92.2486 38.3754 92.2486ZM38.5529 88.5199C39.0797 88.5199 39.5709 88.3986 40.0266 88.1559C40.4883 87.9073 40.873 87.57 41.1808 87.1438C41.4885 86.7118 41.6779 86.2235 41.7489 85.679C41.82 85.2173 41.7844 84.8119 41.6424 84.4627C41.5063 84.1076 41.2814 83.8324 40.9677 83.6371C40.654 83.4358 40.2634 83.3352 39.7958 83.3352C39.4111 83.3352 39.0412 83.4062 38.6861 83.5483C38.331 83.6903 38.0084 83.8886 37.7184 84.1431C37.4284 84.3976 37.1857 84.6995 36.9904 85.0487C36.7951 85.3919 36.6649 85.7678 36.5998 86.1761C36.5347 86.6555 36.5732 87.0698 36.7152 87.419C36.8572 87.7682 37.0851 88.0405 37.3988 88.2358C37.7184 88.4252 38.1031 88.5199 38.5529 88.5199ZM54.6819 92.2486C53.2911 92.2486 52.0955 92 51.0953 91.5028C50.0951 91.0057 49.3582 90.3221 48.8847 89.4521C48.4112 88.582 48.2603 87.5848 48.4319 86.4602H53.226C53.1431 87.0817 53.3029 87.5818 53.7054 87.9606C54.1078 88.3335 54.6346 88.5199 55.2856 88.5199C55.8005 88.5199 56.2681 88.4134 56.6883 88.2003C57.1086 87.9813 57.4607 87.6765 57.7448 87.2859C58.0289 86.8893 58.2153 86.4247 58.3041 85.892C58.3929 85.3594 58.3603 84.8977 58.2064 84.5071C58.0526 84.1106 57.801 83.8058 57.4518 83.5927C57.1026 83.3737 56.6765 83.2642 56.1734 83.2642C55.6467 83.2642 55.1436 83.3915 54.6642 83.646C54.1848 83.8945 53.8001 84.2408 53.5101 84.6847L49.3197 83.8324L51.699 73.8182H63.9149L63.2757 77.7599H55.1081L54.0782 81.7727H54.1848C54.5636 81.2223 55.1318 80.7666 55.8893 80.4055C56.6528 80.0386 57.4933 79.8551 58.4106 79.8551C59.4937 79.8551 60.417 80.1067 61.1805 80.6097C61.944 81.1128 62.4974 81.8082 62.8407 82.696C63.184 83.5838 63.2579 84.6018 63.0626 85.75C62.8673 87.0166 62.3879 88.1381 61.6244 89.1147C60.8609 90.0913 59.8844 90.8577 58.6947 91.4141C57.5051 91.9704 56.1675 92.2486 54.6819 92.2486ZM71.7343 92.4972C70.0771 92.4972 68.7069 92.1184 67.6238 91.3608C66.5407 90.5973 65.792 89.5024 65.3777 88.076C64.9634 86.6496 64.9279 84.9392 65.2712 82.9446C65.6145 80.9441 66.227 79.2455 67.1089 77.8487C67.9967 76.4519 69.0976 75.3896 70.4115 74.6616C71.7313 73.9336 73.2139 73.5696 74.8593 73.5696C76.5046 73.5696 77.8659 73.9336 78.9431 74.6616C80.0203 75.3896 80.769 76.4519 81.1892 77.8487C81.6094 79.2396 81.6538 80.9382 81.3223 82.9446C80.9909 84.9451 80.3813 86.6585 79.4935 88.0849C78.6116 89.5112 77.5078 90.6032 76.1821 91.3608C74.8622 92.1184 73.3796 92.4972 71.7343 92.4972ZM72.409 88.4844C73.2613 88.4844 74.0248 88.0405 74.6995 87.1527C75.3801 86.259 75.8832 84.8563 76.2087 82.9446C76.4218 81.7017 76.4721 80.6837 76.3596 79.8906C76.2472 79.0916 76.0045 78.5027 75.6316 78.1239C75.2588 77.7392 74.7882 77.5469 74.2201 77.5469C73.3678 77.5469 72.5925 77.9819 71.8941 78.8519C71.2016 79.716 70.6985 81.0803 70.3848 82.9446C70.1718 84.223 70.1244 85.2706 70.2428 86.0874C70.3612 86.9041 70.6097 87.5078 70.9885 87.8984C71.3673 88.2891 71.8408 88.4844 72.409 88.4844ZM97.658 85.9631H87.6793L88.3185 82.1278H98.1196C98.7529 82.1278 99.2826 82.0509 99.7088 81.897C100.141 81.7372 100.475 81.5064 100.712 81.2045C100.955 80.8968 101.109 80.518 101.174 80.0682C101.251 79.642 101.224 79.2514 101.094 78.8963C100.969 78.5412 100.736 78.2571 100.392 78.044C100.055 77.831 99.6052 77.7244 99.0429 77.7244H96.3441L93.9648 92H89.0642L92.0827 73.8182H99.6821C101.18 73.8182 102.446 74.0816 103.482 74.6083C104.524 75.1351 105.278 75.863 105.746 76.7923C106.219 77.7215 106.352 78.7898 106.145 79.9972C105.938 81.2992 105.438 82.3942 104.645 83.282C103.852 84.1638 102.852 84.8326 101.644 85.2884C100.437 85.7382 99.108 85.9631 97.658 85.9631ZM98.7944 86.7798L98.1552 90.6151H86.9336L87.5728 86.7798H98.7944Z" fill="#FF9500"/>
</g>
<defs>
<filter id="filter0_f_75_67" x="4" y="4" width="120" height="120" filterUnits="userSpaceOnUse" color-interpolation-filters="sRGB">
<feFlood flood-opacity="0" result="BackgroundImageFix"/>
<feBlend mode="normal" in="SourceGraphic" in2="BackgroundImageFix" result="shape"/>
<feGaussianBlur stdDeviation="2" result="effect1_foregroundBlur_75_67"/>
</filter>
<filter id="filter1_d_75_67" x="4.84659" y="35.5696" width="120.877" height="64.9276" filterUnits="userSpaceOnUse" color-interpolation-filters="sRGB">
<feFlood flood-opacity="0" result="BackgroundImageFix"/>
<feColorMatrix in="SourceAlpha" type="matrix" values="0 0 0 0 0 0 0 0 0 0 0 0 0 0 0 0 0 0 127 0" result="hardAlpha"/>
<feOffset dy="4"/>
<feGaussianBlur stdDeviation="2"/>
<feComposite in2="hardAlpha" operator="out"/>
<feColorMatrix type="matrix" values="0 0 0 0 0 0 0 0 0 0 0 0 0 0 0 0 0 0 0.25 0"/>
<feBlend mode="normal" in2="BackgroundImageFix" result="effect1_dropShadow_75_67"/>
<feBlend mode="normal" in="SourceGraphic" in2="effect1_dropShadow_75_67" result="shape"/>
</filter>
</defs>
</svg>
