<svg width="128" height="128" viewBox="0 0 128 128" fill="none" xmlns="http://www.w3.org/2000/svg">
<rect width="128" height="128" rx="51.2" fill="#1D222B"/>
<g opacity="0.2" filter="url(#filter0_b_99_138)">
<circle cx="64" cy="64" r="46.375" fill="#0FA958" stroke="black" stroke-width="5.25"/>
<circle cx="64" cy="64" r="34.125" fill="#FFF4D9" stroke="black" stroke-width="5.25"/>
<path d="M63.125 85.8544C52.3833 85.3485 42.6515 75.6167 42.1456 64.875" stroke="black" stroke-width="5.25" stroke-linecap="round"/>
<path d="M61.375 45.625V61.375C61.375 64.2745 63.7255 66.625 66.625 66.625H79.75" stroke="black" stroke-width="5.25" stroke-linejoin="round"/>
<path d="M54.375 50.875C57.875 47.375 59.625 45.625 61.375 45.625C63.125 45.625 64.875 47.375 68.375 50.875" stroke="black" stroke-width="5.25" stroke-linecap="round"/>
<path d="M77.125 59.625C80.625 63.125 82.375 64.875 82.375 66.625C82.375 68.375 80.625 70.125 77.125 73.625" stroke="black" stroke-width="5.25" stroke-linecap="round"/>
</g>
<g filter="url(#filter1_d_99_138)">
<path d="M32.5028 54.2486C31.0231 54.2486 29.7536 54.003 28.6942 53.5117C27.6348 53.0146 26.8535 52.331 26.3504 51.4609C25.8533 50.5909 25.7023 49.5907 25.8977 48.4602H30.7982C30.7331 48.8094 30.7775 49.1231 30.9314 49.4013C31.0912 49.6735 31.3339 49.8866 31.6594 50.0405C31.9849 50.1944 32.3607 50.2713 32.7869 50.2713C33.2959 50.2713 33.7545 50.1677 34.1629 49.9606C34.5772 49.7534 34.9146 49.4841 35.175 49.1527C35.4413 48.8213 35.6041 48.4721 35.6633 48.1051C35.7284 47.7263 35.6662 47.4186 35.4768 47.1818C35.2875 46.9392 35.0063 46.7616 34.6335 46.6491C34.2606 46.5308 33.8226 46.4716 33.3195 46.4716H31.3664L31.9346 43.0625H33.6746C34.1777 43.0625 34.6394 42.9708 35.0596 42.7873C35.4798 42.6038 35.829 42.3523 36.1072 42.0327C36.3853 41.7071 36.557 41.3402 36.6221 40.9318C36.6754 40.6181 36.6487 40.3459 36.5422 40.1151C36.4416 39.8783 36.2611 39.6948 36.0006 39.5646C35.7461 39.4344 35.4088 39.3693 34.9886 39.3693C34.5328 39.3693 34.0949 39.4492 33.6746 39.609C33.2544 39.7688 32.9023 39.9908 32.6182 40.2749C32.3341 40.5589 32.1654 40.8845 32.1121 41.2514H27.4246C27.6081 40.1387 28.0668 39.1562 28.8007 38.304C29.5346 37.4517 30.4579 36.7829 31.5706 36.2976C32.6892 35.8123 33.9114 35.5696 35.2371 35.5696C36.6221 35.5696 37.7999 35.8241 38.7705 36.3331C39.7412 36.8421 40.4544 37.5168 40.9101 38.3572C41.3658 39.1977 41.5108 40.1151 41.3451 41.1094C41.1675 42.1806 40.6852 42.9915 39.898 43.5419C39.1108 44.0923 38.1254 44.4179 36.9417 44.5185V44.6605C38.2319 44.8085 39.2292 45.282 39.9335 46.081C40.6378 46.88 40.8953 47.8625 40.7059 49.0284C40.5461 50.0227 40.0874 50.9135 39.3298 51.7006C38.5723 52.4878 37.6016 53.1093 36.4179 53.565C35.2401 54.0207 33.9351 54.2486 32.5028 54.2486ZM61.5093 40.3636L59.2366 54H54.6556L56.9284 40.3636H61.5093ZM58.1713 46.0099L57.5676 49.6676C57.39 49.7741 57.0882 49.8807 56.662 49.9872C56.2418 50.0878 55.8038 50.1737 55.3481 50.2447C54.8924 50.3098 54.5195 50.3423 54.2295 50.3423C51.9982 50.3423 50.3232 49.9458 49.2046 49.1527C48.086 48.3596 47.6776 47.0398 47.9795 45.1932L48.7963 40.3636H53.3417L52.5249 45.1932C52.4598 45.6075 52.4687 45.9212 52.5516 46.1342C52.6404 46.3473 52.8593 46.4923 53.2085 46.5692C53.5637 46.6462 54.1052 46.6847 54.8332 46.6847C55.283 46.6847 55.7742 46.6314 56.3069 46.5249C56.8455 46.4124 57.4669 46.2408 58.1713 46.0099ZM65.0762 54.2131C64.2121 54.2131 63.4693 54.071 62.8479 53.7869C62.2323 53.4969 61.7825 53.0589 61.4984 52.473C61.2203 51.8812 61.1581 51.1354 61.312 50.2358C61.4363 49.4901 61.6701 48.8538 62.0134 48.3271C62.3566 47.8003 62.7828 47.3683 63.2918 47.0309C63.8008 46.6935 64.3719 46.4361 65.0052 46.2585C65.6444 46.075 66.3191 45.9567 67.0293 45.9034C67.7987 45.8442 68.4232 45.7702 68.9026 45.6815C69.382 45.5927 69.74 45.4714 69.9768 45.3175C70.2135 45.1636 70.3556 44.9564 70.4029 44.696V44.6605C70.4562 44.3054 70.3615 44.0331 70.1188 43.8438C69.8821 43.6544 69.5506 43.5597 69.1245 43.5597C68.6629 43.5597 68.2634 43.6603 67.926 43.8615C67.5946 44.0627 67.3667 44.3764 67.2424 44.8026H62.7325C62.9218 43.974 63.3095 43.2105 63.8955 42.5121C64.4873 41.8078 65.2715 41.2455 66.2481 40.8253C67.2306 40.3991 68.4024 40.1861 69.7637 40.1861C70.7344 40.1861 71.5866 40.3015 72.3205 40.5323C73.0544 40.7572 73.6611 41.0739 74.1405 41.4822C74.6258 41.8847 74.9661 42.3582 75.1614 42.9027C75.3627 43.4413 75.41 44.0272 75.3035 44.6605L73.741 54H69.16L69.4796 52.0824H69.3731C69.018 52.5914 68.6185 53.0027 68.1746 53.3164C67.7366 53.6301 67.2572 53.858 66.7364 54C66.2214 54.142 65.6681 54.2131 65.0762 54.2131ZM67.2069 51.1236C67.5738 51.1236 67.9349 51.0466 68.29 50.8928C68.6451 50.7389 68.9499 50.5169 69.2044 50.2269C69.4589 49.9369 69.6217 49.5848 69.6927 49.1705L69.8702 48.0341C69.74 48.0874 69.595 48.1377 69.4352 48.185C69.2813 48.2264 69.1186 48.2679 68.9469 48.3093C68.7812 48.3507 68.6037 48.3892 68.4143 48.4247C68.2308 48.4602 68.0414 48.4957 67.8461 48.5312C67.4555 48.5904 67.127 48.6881 66.8607 48.8242C66.5943 48.9544 66.3872 49.1172 66.2392 49.3125C66.0912 49.5019 65.9995 49.715 65.964 49.9517C65.9107 50.3246 65.9965 50.6146 66.2214 50.8217C66.4523 51.023 66.7808 51.1236 67.2069 51.1236ZM82.3416 54.2486C80.862 54.2486 79.6427 53.9556 78.6839 53.3697C77.7251 52.7778 77.0534 51.9551 76.6687 50.9016C76.284 49.8422 76.21 48.6141 76.4467 47.2173C76.6716 45.8205 77.151 44.5954 77.8849 43.5419C78.6247 42.4825 79.5717 41.6598 80.7258 41.0739C81.8859 40.482 83.2057 40.1861 84.6853 40.1861C86.0229 40.1861 87.1386 40.4287 88.0323 40.9141C88.9319 41.3935 89.5741 42.0741 89.9588 42.956C90.3494 43.8319 90.45 44.8617 90.2606 46.0455H85.7152C85.7684 45.3352 85.653 44.7907 85.3689 44.4119C85.0908 44.0331 84.6853 43.8438 84.1527 43.8438C83.7147 43.8438 83.3122 43.968 82.9453 44.2166C82.5843 44.4593 82.2735 44.8292 82.0131 45.3263C81.7586 45.8176 81.5722 46.4361 81.4538 47.1818C81.3354 47.9276 81.3206 48.549 81.4094 49.0462C81.5041 49.5374 81.6876 49.9073 81.9599 50.1559C82.238 50.3986 82.5902 50.5199 83.0163 50.5199C83.3833 50.5199 83.7206 50.437 84.0284 50.2713C84.3421 50.0997 84.6114 49.8511 84.8363 49.5256C85.0671 49.1941 85.2417 48.7917 85.3601 48.3182H89.9055C89.6806 49.5256 89.2278 50.5732 88.5472 51.4609C87.8666 52.3487 86.9995 53.0353 85.946 53.5206C84.8925 54.0059 83.691 54.2486 82.3416 54.2486ZM94.4579 54.2131C93.5937 54.2131 92.851 54.071 92.2295 53.7869C91.614 53.4969 91.1642 53.0589 90.8801 52.473C90.6019 51.8812 90.5398 51.1354 90.6936 50.2358C90.8179 49.4901 91.0517 48.8538 91.395 48.3271C91.7383 47.8003 92.1644 47.3683 92.6734 47.0309C93.1824 46.6935 93.7535 46.4361 94.3868 46.2585C95.026 46.075 95.7007 45.9567 96.411 45.9034C97.1804 45.8442 97.8048 45.7702 98.2842 45.6815C98.7636 45.5927 99.1217 45.4714 99.3584 45.3175C99.5952 45.1636 99.7372 44.9564 99.7846 44.696V44.6605C99.8378 44.3054 99.7431 44.0331 99.5005 43.8438C99.2637 43.6544 98.9323 43.5597 98.5061 43.5597C98.0445 43.5597 97.645 43.6603 97.3076 43.8615C96.9762 44.0627 96.7483 44.3764 96.624 44.8026H92.1141C92.3035 43.974 92.6912 43.2105 93.2771 42.5121C93.869 41.8078 94.6532 41.2455 95.6297 40.8253C96.6122 40.3991 97.7841 40.1861 99.1454 40.1861C100.116 40.1861 100.968 40.3015 101.702 40.5323C102.436 40.7572 103.043 41.0739 103.522 41.4822C104.007 41.8847 104.348 42.3582 104.543 42.9027C104.744 43.4413 104.792 44.0272 104.685 44.6605L103.123 54H98.5417L98.8613 52.0824H98.7547C98.3996 52.5914 98.0001 53.0027 97.5562 53.3164C97.1182 53.6301 96.6388 53.858 96.118 54C95.6031 54.142 95.0497 54.2131 94.4579 54.2131ZM96.5885 51.1236C96.9555 51.1236 97.3165 51.0466 97.6716 50.8928C98.0267 50.7389 98.3315 50.5169 98.586 50.2269C98.8405 49.9369 99.0033 49.5848 99.0743 49.1705L99.2519 48.0341C99.1217 48.0874 98.9767 48.1377 98.8169 48.185C98.663 48.2264 98.5002 48.2679 98.3286 48.3093C98.1629 48.3507 97.9853 48.3892 97.7959 48.4247C97.6124 48.4602 97.423 48.4957 97.2277 48.5312C96.8371 48.5904 96.5086 48.6881 96.2423 48.8242C95.976 48.9544 95.7688 49.1172 95.6208 49.3125C95.4729 49.5019 95.3811 49.715 95.3456 49.9517C95.2924 50.3246 95.3782 50.6146 95.6031 50.8217C95.8339 51.023 96.1624 51.1236 96.5885 51.1236ZM107.959 54.2841C107.267 54.2841 106.701 54.0444 106.263 53.565C105.831 53.0797 105.651 52.4908 105.722 51.7983C105.793 51.1236 106.098 50.5465 106.636 50.0671C107.181 49.5877 107.799 49.348 108.492 49.348C109.149 49.348 109.696 49.5877 110.134 50.0671C110.578 50.5465 110.764 51.1236 110.693 51.7983C110.646 52.2599 110.483 52.6802 110.205 53.0589C109.933 53.4318 109.596 53.7307 109.193 53.9556C108.797 54.1746 108.385 54.2841 107.959 54.2841ZM25.1874 92L25.7734 88.4489L33.4971 82.8381C34.012 82.4652 34.4559 82.116 34.8288 81.7905C35.2076 81.459 35.5124 81.1187 35.7432 80.7695C35.974 80.4203 36.1249 80.0327 36.196 79.6065C36.2729 79.139 36.2374 78.7395 36.0894 78.408C35.9474 78.0707 35.7165 77.8132 35.3969 77.6357C35.0773 77.4581 34.6926 77.3693 34.2428 77.3693C33.7871 77.3693 33.3698 77.4611 32.9911 77.6445C32.6123 77.828 32.2956 78.0973 32.0411 78.4524C31.7925 78.8075 31.6268 79.2396 31.544 79.7486H26.8565C27.0695 78.4702 27.5401 77.3693 28.268 76.446C29.0019 75.5227 29.9312 74.8125 31.0557 74.3153C32.1861 73.8182 33.4557 73.5696 34.8643 73.5696C36.3202 73.5696 37.5454 73.8034 38.5397 74.271C39.534 74.7326 40.2531 75.3836 40.697 76.2241C41.1468 77.0645 41.2741 78.05 41.0788 79.1804C40.9604 79.8788 40.697 80.5713 40.2886 81.2578C39.8862 81.9444 39.2381 82.7079 38.3444 83.5483C37.4566 84.3828 36.2255 85.3771 34.6512 86.5312L32.7158 87.9517L32.6981 88.0582H39.8004L39.1434 92H25.1874ZM48.8515 92.2486C47.7625 92.2486 46.7593 92.074 45.8419 91.7248C44.9246 91.3756 44.1522 90.8281 43.5248 90.0824C42.8975 89.3307 42.4684 88.3601 42.2375 87.1705C42.0067 85.9808 42.0333 84.5485 42.3174 82.8736C42.5601 81.4235 42.9596 80.1274 43.5159 78.9851C44.0723 77.8369 44.7559 76.8603 45.5667 76.0554C46.3776 75.2446 47.292 74.629 48.31 74.2088C49.328 73.7827 50.4199 73.5696 51.5859 73.5696C52.9353 73.5696 54.0865 73.8241 55.0394 74.3331C55.9982 74.8362 56.7203 75.5168 57.2056 76.375C57.6909 77.2273 57.901 78.1742 57.8359 79.2159H53.0419C53.0419 78.6892 52.8673 78.3163 52.5181 78.0973C52.1689 77.8724 51.7516 77.7599 51.2663 77.7599C50.195 77.7599 49.3161 78.2334 48.6296 79.1804C47.943 80.1214 47.4607 81.3288 47.1825 82.8026L47.3245 82.554C47.6501 81.9976 48.0703 81.5301 48.5852 81.1513C49.106 80.7725 49.6801 80.4854 50.3075 80.2901C50.9408 80.0948 51.5918 79.9972 52.2606 79.9972C53.3911 79.9972 54.341 80.2576 55.1104 80.7784C55.8798 81.2992 56.4273 82.0124 56.7528 82.918C57.0783 83.8235 57.1434 84.8504 56.9481 85.9986C56.741 87.2652 56.2616 88.366 55.5099 89.3011C54.7583 90.2363 53.8083 90.9613 52.6601 91.4762C51.5119 91.9911 50.2424 92.2486 48.8515 92.2486ZM49.0291 88.5199C49.5558 88.5199 50.0471 88.3986 50.5028 88.1559C50.9645 87.9073 51.3492 87.57 51.6569 87.1438C51.9647 86.7118 52.1541 86.2235 52.2251 85.679C52.2961 85.2173 52.2606 84.8119 52.1186 84.4627C51.9824 84.1076 51.7575 83.8324 51.4439 83.6371C51.1302 83.4358 50.7395 83.3352 50.272 83.3352C49.8873 83.3352 49.5174 83.4062 49.1623 83.5483C48.8071 83.6903 48.4846 83.8886 48.1946 84.1431C47.9046 84.3976 47.6619 84.6995 47.4666 85.0487C47.2713 85.3919 47.1411 85.7678 47.076 86.1761C47.0109 86.6555 47.0493 87.0698 47.1914 87.419C47.3334 87.7682 47.5613 88.0405 47.875 88.2358C48.1946 88.4252 48.5793 88.5199 49.0291 88.5199ZM65.7618 92.4972C64.1046 92.4972 62.7345 92.1184 61.6514 91.3608C60.5683 90.5973 59.8196 89.5024 59.4053 88.076C58.991 86.6496 58.9555 84.9392 59.2987 82.9446C59.642 80.9441 60.2546 79.2455 61.1365 77.8487C62.0242 76.4519 63.1251 75.3896 64.439 74.6616C65.7588 73.9336 67.2414 73.5696 68.8868 73.5696C70.5322 73.5696 71.8934 73.9336 72.9706 74.6616C74.0478 75.3896 74.7965 76.4519 75.2167 77.8487C75.6369 79.2396 75.6813 80.9382 75.3499 82.9446C75.0184 84.9451 74.4088 86.6585 73.521 88.0849C72.6392 89.5112 71.5354 90.6032 70.2096 91.3608C68.8898 92.1184 67.4072 92.4972 65.7618 92.4972ZM66.4365 88.4844C67.2888 88.4844 68.0523 88.0405 68.727 87.1527C69.4076 86.259 69.9107 84.8563 70.2362 82.9446C70.4493 81.7017 70.4996 80.6837 70.3872 79.8906C70.2747 79.0916 70.032 78.5027 69.6592 78.1239C69.2863 77.7392 68.8158 77.5469 68.2476 77.5469C67.3953 77.5469 66.62 77.9819 65.9216 78.8519C65.2291 79.716 64.7261 81.0803 64.4124 82.9446C64.1993 84.223 64.152 85.2706 64.2703 86.0874C64.3887 86.9041 64.6373 87.5078 65.0161 87.8984C65.3949 88.2891 65.8683 88.4844 66.4365 88.4844ZM91.6855 85.9631H81.7068L82.346 82.1278H92.1472C92.7805 82.1278 93.3102 82.0509 93.7363 81.897C94.1684 81.7372 94.5028 81.5064 94.7395 81.2045C94.9822 80.8968 95.136 80.518 95.2012 80.0682C95.2781 79.642 95.2515 79.2514 95.1213 78.8963C94.997 78.5412 94.7632 78.2571 94.4199 78.044C94.0825 77.831 93.6327 77.7244 93.0705 77.7244H90.3716L87.9923 92H83.0918L86.1102 73.8182H93.7097C95.2071 73.8182 96.4736 74.0816 97.5094 74.6083C98.5511 75.1351 99.3057 75.863 99.7732 76.7923C100.247 77.7215 100.38 78.7898 100.173 79.9972C99.9656 81.2992 99.4655 82.3942 98.6724 83.282C97.8793 84.1638 96.8791 84.8326 95.6717 85.2884C94.4643 85.7382 93.1356 85.9631 91.6855 85.9631ZM92.8219 86.7798L92.1827 90.6151H80.9611L81.6003 86.7798H92.8219Z" fill="#FF9500"/>
</g>
<defs>
<filter id="filter0_b_99_138" x="4" y="4" width="120" height="120" filterUnits="userSpaceOnUse" color-interpolation-filters="sRGB">
<feFlood flood-opacity="0" result="BackgroundImageFix"/>
<feGaussianBlur in="BackgroundImageFix" stdDeviation="2"/>
<feComposite in2="SourceAlpha" operator="in" result="effect1_backgroundBlur_99_138"/>
<feBlend mode="normal" in="SourceGraphic" in2="effect1_backgroundBlur_99_138" result="shape"/>
</filter>
<filter id="filter1_d_99_138" x="21.1874" y="35.5696" width="93.6125" height="64.9276" filterUnits="userSpaceOnUse" color-interpolation-filters="sRGB">
<feFlood flood-opacity="0" result="BackgroundImageFix"/>
<feColorMatrix in="SourceAlpha" type="matrix" values="0 0 0 0 0 0 0 0 0 0 0 0 0 0 0 0 0 0 127 0" result="hardAlpha"/>
<feOffset dy="4"/>
<feGaussianBlur stdDeviation="2"/>
<feComposite in2="hardAlpha" operator="out"/>
<feColorMatrix type="matrix" values="0 0 0 0 0 0 0 0 0 0 0 0 0 0 0 0 0 0 0.25 0"/>
<feBlend mode="normal" in2="BackgroundImageFix" result="effect1_dropShadow_99_138"/>
<feBlend mode="normal" in="SourceGraphic" in2="effect1_dropShadow_99_138" result="shape"/>
</filter>
</defs>
</svg>
