<svg width="128" height="128" viewBox="0 0 128 128" fill="none" xmlns="http://www.w3.org/2000/svg">
<rect width="128" height="128" rx="51.2" fill="#1D222B"/>
<g opacity="0.3" filter="url(#filter0_f_99_138)">
<circle cx="64" cy="64" r="46.375" fill="#0FA958" stroke="black" stroke-width="5.25"/>
<circle cx="64" cy="64" r="34.125" fill="#FFF4D9" stroke="black" stroke-width="5.25"/>
<path d="M63.125 85.8544C52.3833 85.3485 42.6515 75.6167 42.1456 64.875" stroke="black" stroke-width="5.25" stroke-linecap="round"/>
<path d="M61.375 45.625V61.375C61.375 64.2745 63.7255 66.625 66.625 66.625H79.75" stroke="black" stroke-width="5.25" stroke-linejoin="round"/>
<path d="M54.375 50.875C57.875 47.375 59.625 45.625 61.375 45.625C63.125 45.625 64.875 47.375 68.375 50.875" stroke="black" stroke-width="5.25" stroke-linecap="round"/>
<path d="M77.125 59.625C80.625 63.125 82.375 64.875 82.375 66.625C82.375 68.375 80.625 70.125 77.125 73.625" stroke="black" stroke-width="5.25" stroke-linecap="round"/>
</g>
<g filter="url(#filter1_d_99_138)">
<path d="M34.5447 54.2486C33.1597 54.2486 31.9316 54.0118 30.8604 53.5384C29.795 53.0589 28.9546 52.399 28.3391 51.5586C27.7235 50.7182 27.4098 49.7505 27.398 48.6555H31.8192C31.8369 49.0521 31.9642 49.4042 32.2009 49.712C32.4377 50.0138 32.7602 50.2506 33.1686 50.4222C33.577 50.5939 34.0416 50.6797 34.5624 50.6797C35.0833 50.6797 35.542 50.5879 35.9385 50.4045C36.341 50.2151 36.6546 49.9576 36.8795 49.6321C37.1045 49.3007 37.2139 48.9219 37.208 48.4957C37.2139 48.0696 37.0926 47.6908 36.844 47.3594C36.5955 47.0279 36.2433 46.7705 35.7876 46.587C35.3378 46.4035 34.8051 46.3118 34.1896 46.3118H32.4229V43.1868H34.1896C34.7281 43.1868 35.2016 43.098 35.61 42.9205C36.0243 42.7429 36.3469 42.4943 36.5777 42.1747C36.8085 41.8492 36.921 41.4763 36.9151 41.0561C36.921 40.6477 36.8233 40.2897 36.6221 39.9819C36.4268 39.6682 36.1516 39.4255 35.7964 39.2539C35.4473 39.0823 35.0418 38.9964 34.5802 38.9964C34.0949 38.9964 33.6539 39.0823 33.2574 39.2539C32.8668 39.4255 32.556 39.6682 32.3252 39.9819C32.0944 40.2956 31.9731 40.6596 31.9612 41.0739H27.762C27.7738 39.9908 28.0757 39.0379 28.6675 38.2152C29.2594 37.3866 30.0643 36.7385 31.0823 36.271C32.1062 35.8034 33.2722 35.5696 34.5802 35.5696C35.8823 35.5696 37.0275 35.7975 38.0159 36.2532C39.0043 36.7089 39.7737 37.3304 40.3241 38.1175C40.8746 38.8988 41.1498 39.7836 41.1498 40.772C41.1557 41.7959 40.8213 42.6393 40.1466 43.3022C39.4778 43.9651 38.6166 44.3735 37.5631 44.5273V44.6694C38.9718 44.8351 40.0341 45.2908 40.7503 46.0366C41.4723 46.7823 41.8304 47.7145 41.8245 48.8331C41.8245 49.8866 41.5138 50.8217 40.8923 51.6385C40.2768 52.4493 39.4186 53.0885 38.3178 53.5561C37.2228 54.0178 35.9651 54.2486 34.5447 54.2486ZM61.4383 40.3636V54H57.3545V40.3636H61.4383ZM59.3698 46.1786V49.4989C59.1389 49.6173 58.8134 49.7327 58.3932 49.8452C57.9789 49.9517 57.5409 50.0405 57.0793 50.1115C56.6236 50.1825 56.2181 50.218 55.863 50.218C53.7678 50.218 52.1254 49.8185 50.9358 49.0195C49.7521 48.2146 49.1602 46.9066 49.1602 45.0955V40.3548H53.2174V45.0955C53.2174 45.5631 53.2914 45.9271 53.4394 46.1875C53.5932 46.4479 53.8596 46.6314 54.2384 46.7379C54.6231 46.8445 55.1646 46.8977 55.863 46.8977C56.3957 46.8977 56.9402 46.8385 57.4965 46.7202C58.0588 46.5959 58.6832 46.4154 59.3698 46.1786ZM67.6463 54.2308C66.7763 54.2308 66.0039 54.0858 65.3292 53.7958C64.6604 53.4999 64.1307 53.056 63.7401 52.4641C63.3554 51.8664 63.163 51.1177 63.163 50.218C63.163 49.4605 63.2962 48.8213 63.5625 48.3004C63.8289 47.7796 64.1958 47.3564 64.6634 47.0309C65.131 46.7054 65.6695 46.4598 66.2792 46.294C66.8888 46.1224 67.5398 46.007 68.2323 45.9478C69.0076 45.8768 69.632 45.8028 70.1055 45.7259C70.579 45.643 70.9223 45.5276 71.1353 45.3796C71.3543 45.2257 71.4638 45.0097 71.4638 44.7315V44.6871C71.4638 44.2314 71.307 43.8793 70.9933 43.6307C70.6796 43.3821 70.2564 43.2578 69.7238 43.2578C69.1497 43.2578 68.688 43.3821 68.3388 43.6307C67.9896 43.8793 67.7677 44.2225 67.673 44.6605L63.6691 44.5185C63.7874 43.6899 64.0922 42.95 64.5835 42.299C65.0806 41.642 65.7613 41.1271 66.6254 40.7543C67.4954 40.3755 68.54 40.1861 69.7593 40.1861C70.6293 40.1861 71.4313 40.2897 72.1652 40.4968C72.8991 40.698 73.5383 40.994 74.0828 41.3846C74.6273 41.7693 75.0475 42.2428 75.3434 42.805C75.6453 43.3673 75.7962 44.0095 75.7962 44.7315V54H71.7124V52.1001H71.6059C71.3632 52.5618 71.0525 52.9524 70.6737 53.272C70.3008 53.5916 69.8599 53.8313 69.3509 53.9911C68.8478 54.1509 68.2796 54.2308 67.6463 54.2308ZM68.9869 51.3899C69.4545 51.3899 69.8747 51.2952 70.2475 51.1058C70.6263 50.9164 70.9282 50.656 71.1531 50.3246C71.378 49.9872 71.4904 49.5966 71.4904 49.1527V47.8565C71.3662 47.9216 71.2152 47.9808 71.0377 48.0341C70.866 48.0874 70.6766 48.1377 70.4695 48.185C70.2623 48.2324 70.0493 48.2738 69.8303 48.3093C69.6113 48.3448 69.4012 48.3774 69.2 48.407C68.7916 48.4721 68.4424 48.5727 68.1524 48.7088C67.8683 48.8449 67.6493 49.0225 67.4954 49.2415C67.3475 49.4545 67.2735 49.709 67.2735 50.005C67.2735 50.4548 67.4333 50.7981 67.7529 51.0348C68.0784 51.2715 68.4897 51.3899 68.9869 51.3899ZM84.5411 54.2575C83.1029 54.2575 81.8689 53.9615 80.839 53.3697C79.8151 52.7778 79.0279 51.9551 78.4775 50.9016C77.9271 49.8422 77.6519 48.6171 77.6519 47.2262C77.6519 45.8294 77.9271 44.6043 78.4775 43.5508C79.0339 42.4914 79.824 41.6657 80.8479 41.0739C81.8777 40.482 83.1058 40.1861 84.5322 40.1861C85.7929 40.1861 86.8908 40.4139 87.8259 40.8697C88.7669 41.3254 89.5008 41.9705 90.0276 42.805C90.5603 43.6336 90.8414 44.6072 90.871 45.7259H86.8138C86.731 45.0275 86.4942 44.48 86.1036 44.0835C85.7189 43.6869 85.2158 43.4886 84.5944 43.4886C84.0913 43.4886 83.6503 43.6307 83.2716 43.9148C82.8928 44.1929 82.5968 44.6072 82.3838 45.1577C82.1766 45.7022 82.073 46.3769 82.073 47.1818C82.073 47.9867 82.1766 48.6674 82.3838 49.2237C82.5968 49.7741 82.8928 50.1914 83.2716 50.4755C83.6503 50.7537 84.0913 50.8928 84.5944 50.8928C84.9968 50.8928 85.3519 50.8069 85.6597 50.6353C85.9734 50.4637 86.2308 50.2121 86.4321 49.8807C86.6333 49.5433 86.7605 49.1349 86.8138 48.6555H90.871C90.8296 49.7801 90.5484 50.7625 90.0276 51.603C89.5127 52.4434 88.7877 53.0974 87.8525 53.565C86.9233 54.0266 85.8195 54.2575 84.5411 54.2575ZM96.6618 54.2308C95.7917 54.2308 95.0194 54.0858 94.3447 53.7958C93.6759 53.4999 93.1462 53.056 92.7555 52.4641C92.3708 51.8664 92.1785 51.1177 92.1785 50.218C92.1785 49.4605 92.3116 48.8213 92.578 48.3004C92.8443 47.7796 93.2113 47.3564 93.6788 47.0309C94.1464 46.7054 94.685 46.4598 95.2946 46.294C95.9042 46.1224 96.5552 46.007 97.2477 45.9478C98.023 45.8768 98.6475 45.8028 99.1209 45.7259C99.5944 45.643 99.9377 45.5276 100.151 45.3796C100.37 45.2257 100.479 45.0097 100.479 44.7315V44.6871C100.479 44.2314 100.322 43.8793 100.009 43.6307C99.695 43.3821 99.2719 43.2578 98.7392 43.2578C98.1651 43.2578 97.7034 43.3821 97.3542 43.6307C97.0051 43.8793 96.7831 44.2225 96.6884 44.6605L92.6845 44.5185C92.8029 43.6899 93.1077 42.95 93.5989 42.299C94.0961 41.642 94.7767 41.1271 95.6408 40.7543C96.5109 40.3755 97.5555 40.1861 98.7747 40.1861C99.6447 40.1861 100.447 40.2897 101.181 40.4968C101.914 40.698 102.554 40.994 103.098 41.3846C103.643 41.7693 104.063 42.2428 104.359 42.805C104.661 43.3673 104.812 44.0095 104.812 44.7315V54H100.728V52.1001H100.621C100.379 52.5618 100.068 52.9524 99.6891 53.272C99.3162 53.5916 98.8753 53.8313 98.3663 53.9911C97.8632 54.1509 97.2951 54.2308 96.6618 54.2308ZM98.0023 51.3899C98.4699 51.3899 98.8901 51.2952 99.263 51.1058C99.6418 50.9164 99.9436 50.656 100.169 50.3246C100.393 49.9872 100.506 49.5966 100.506 49.1527V47.8565C100.382 47.9216 100.231 47.9808 100.053 48.0341C99.8815 48.0874 99.6921 48.1377 99.4849 48.185C99.2778 48.2324 99.0647 48.2738 98.8457 48.3093C98.6267 48.3448 98.4166 48.3774 98.2154 48.407C97.807 48.4721 97.4578 48.5727 97.1678 48.7088C96.8837 48.8449 96.6647 49.0225 96.5109 49.2415C96.3629 49.4545 96.2889 49.709 96.2889 50.005C96.2889 50.4548 96.4487 50.7981 96.7683 51.0348C97.0938 51.2715 97.5052 51.3899 98.0023 51.3899ZM109.633 54.2575C108.993 54.2575 108.446 54.0326 107.99 53.5827C107.54 53.1329 107.318 52.5884 107.324 51.9492C107.318 51.3219 107.54 50.7862 107.99 50.3423C108.446 49.8925 108.993 49.6676 109.633 49.6676C110.236 49.6676 110.769 49.8925 111.231 50.3423C111.698 50.7862 111.935 51.3219 111.941 51.9492C111.935 52.3754 111.822 52.763 111.603 53.1122C111.39 53.4614 111.109 53.7396 110.76 53.9467C110.417 54.1539 110.041 54.2575 109.633 54.2575ZM27.6288 92V88.8395L34.2606 83.0334C34.7577 82.5836 35.1809 82.1722 35.5301 81.7994C35.8793 81.4206 36.1456 81.0418 36.3291 80.663C36.5126 80.2783 36.6043 79.861 36.6043 79.4112C36.6043 78.9081 36.4948 78.479 36.2759 78.1239C36.0569 77.7629 35.755 77.4847 35.3703 77.2894C34.9856 77.0941 34.5447 76.9964 34.0475 76.9964C33.5444 76.9964 33.1035 77.1 32.7247 77.3072C32.3459 77.5084 32.05 77.8014 31.8369 78.1861C31.6298 78.5708 31.5262 79.0384 31.5262 79.5888H27.3625C27.3625 78.3518 27.6407 77.2835 28.197 76.3839C28.7534 75.4843 29.5346 74.7918 30.5408 74.3065C31.5528 73.8152 32.7277 73.5696 34.0653 73.5696C35.4443 73.5696 36.6428 73.8004 37.6608 74.2621C38.6788 74.7237 39.466 75.3688 40.0223 76.1974C40.5846 77.0201 40.8657 77.976 40.8657 79.065C40.8657 79.7575 40.7266 80.444 40.4484 81.1246C40.1703 81.8053 39.6701 82.5569 38.9481 83.3796C38.2319 84.2023 37.2139 85.1877 35.8941 86.3359L33.719 88.3423V88.4577H41.0876V92H27.6288ZM50.5849 92.2486C49.5906 92.2486 48.6377 92.0888 47.7263 91.7692C46.8148 91.4437 46.004 90.9287 45.2937 90.2244C44.5835 89.5142 44.0242 88.585 43.6158 87.4368C43.2074 86.2827 43.0062 84.877 43.0121 83.2198C43.018 81.7224 43.2015 80.3789 43.5626 79.1893C43.9236 77.9937 44.4385 76.9787 45.1073 76.1442C45.782 75.3097 46.5869 74.6734 47.5221 74.2354C48.4631 73.7915 49.5137 73.5696 50.6737 73.5696C51.9462 73.5696 53.0678 73.8182 54.0384 74.3153C55.015 74.8066 55.7962 75.4695 56.3822 76.304C56.9681 77.1326 57.3143 78.0559 57.4209 79.0739H53.0974C52.9671 78.4998 52.6801 78.0647 52.2362 77.7688C51.7982 77.467 51.2774 77.3161 50.6737 77.3161C49.561 77.3161 48.7295 77.7984 48.179 78.7631C47.6345 79.7279 47.3564 81.0181 47.3445 82.6339H47.4599C47.7085 82.0894 48.0666 81.6218 48.5341 81.2312C49.0017 80.8406 49.5373 80.5417 50.141 80.3345C50.7506 80.1214 51.3958 80.0149 52.0764 80.0149C53.1654 80.0149 54.1272 80.2665 54.9617 80.7695C55.7962 81.2726 56.4502 81.9621 56.9237 82.8381C57.3972 83.7081 57.631 84.7054 57.6251 85.8299C57.631 87.0965 57.335 88.2151 56.7373 89.1857C56.1395 90.1504 55.3109 90.9021 54.2515 91.4407C53.198 91.9793 51.9758 92.2486 50.5849 92.2486ZM50.5583 88.875C51.0969 88.875 51.5792 88.7478 52.0054 88.4933C52.4315 88.2388 52.7659 87.8925 53.0086 87.4545C53.2512 87.0166 53.3696 86.5224 53.3637 85.9719C53.3696 85.4156 53.2512 84.9214 53.0086 84.4893C52.7718 84.0573 52.4404 83.714 52.0143 83.4595C51.594 83.205 51.1117 83.0778 50.5672 83.0778C50.1706 83.0778 49.8007 83.1518 49.4574 83.2997C49.1142 83.4477 48.8153 83.6548 48.5608 83.9212C48.3122 84.1816 48.1169 84.4893 47.9748 84.8445C47.8328 85.1937 47.7588 85.5724 47.7529 85.9808C47.7588 86.5194 47.8831 87.0077 48.1258 87.4457C48.3684 87.8836 48.6999 88.2328 49.1201 88.4933C49.5403 88.7478 50.0197 88.875 50.5583 88.875ZM67.362 92.4439C65.7759 92.4439 64.4087 92.0681 63.2605 91.3164C62.1123 90.5588 61.2275 89.4728 60.606 88.0582C59.9846 86.6378 59.6768 84.9303 59.6827 82.9357C59.6886 80.9412 59.9993 79.2485 60.6149 77.8576C61.2363 76.4608 62.1182 75.3984 63.2605 74.6705C64.4087 73.9366 65.7759 73.5696 67.362 73.5696C68.9482 73.5696 70.3154 73.9366 71.4636 74.6705C72.6177 75.3984 73.5055 76.4608 74.127 77.8576C74.7484 79.2544 75.0562 80.9471 75.0502 82.9357C75.0502 84.9362 74.7395 86.6467 74.1181 88.0671C73.4966 89.4876 72.6118 90.5736 71.4636 91.3253C70.3213 92.071 68.9541 92.4439 67.362 92.4439ZM67.362 88.8484C68.309 88.8484 69.0755 88.366 69.6614 87.4013C70.2473 86.4306 70.5373 84.9421 70.5314 82.9357C70.5314 81.6218 70.3983 80.5387 70.1319 79.6864C69.8656 78.8282 69.4957 78.189 69.0222 77.7688C68.5487 77.3486 67.9953 77.1385 67.362 77.1385C66.421 77.1385 65.6605 77.6149 65.0804 78.5678C64.5004 79.5148 64.2074 80.9708 64.2015 82.9357C64.1956 84.2674 64.3229 85.3712 64.5833 86.2472C64.8496 87.1231 65.2225 87.7771 65.7019 88.2092C66.1813 88.6353 66.7347 88.8484 67.362 88.8484ZM92.1094 85.6967H82.2817V82.2344H91.9674C92.648 82.2344 93.2014 82.1426 93.6276 81.9592C94.0596 81.7698 94.3763 81.5034 94.5775 81.1602C94.7846 80.811 94.8852 80.3907 94.8793 79.8995C94.8852 79.426 94.7846 78.9969 94.5775 78.6122C94.3763 78.2216 94.0685 77.9109 93.6542 77.68C93.2458 77.4492 92.7309 77.3338 92.1094 77.3338H89.1265V92H84.7586V73.8182H92.1094C93.5772 73.8182 94.8497 74.0786 95.9269 74.5994C97.0041 75.1203 97.8357 75.8335 98.4216 76.739C99.0075 77.6445 99.2975 78.6773 99.2916 79.8374C99.2975 81.0803 98.9986 82.1367 98.395 83.0067C97.7972 83.8768 96.9567 84.5426 95.8736 85.0043C94.7965 85.4659 93.5417 85.6967 92.1094 85.6967ZM93.0771 86.6911V90.1445H82.2817V86.6911H93.0771Z" fill="#FF9500"/>
</g>
<defs>
<filter id="filter0_f_99_138" x="4" y="4" width="120" height="120" filterUnits="userSpaceOnUse" color-interpolation-filters="sRGB">
<feFlood flood-opacity="0" result="BackgroundImageFix"/>
<feBlend mode="normal" in="SourceGraphic" in2="BackgroundImageFix" result="shape"/>
<feGaussianBlur stdDeviation="2" result="effect1_foregroundBlur_99_138"/>
</filter>
<filter id="filter1_d_99_138" x="23.3625" y="35.5696" width="92.5782" height="64.8743" filterUnits="userSpaceOnUse" color-interpolation-filters="sRGB">
<feFlood flood-opacity="0" result="BackgroundImageFix"/>
<feColorMatrix in="SourceAlpha" type="matrix" values="0 0 0 0 0 0 0 0 0 0 0 0 0 0 0 0 0 0 127 0" result="hardAlpha"/>
<feOffset dy="4"/>
<feGaussianBlur stdDeviation="2"/>
<feComposite in2="hardAlpha" operator="out"/>
<feColorMatrix type="matrix" values="0 0 0 0 0 0 0 0 0 0 0 0 0 0 0 0 0 0 0.25 0"/>
<feBlend mode="normal" in2="BackgroundImageFix" result="effect1_dropShadow_99_138"/>
<feBlend mode="normal" in="SourceGraphic" in2="effect1_dropShadow_99_138" result="shape"/>
</filter>
</defs>
</svg>
