<svg width="158" height="128" viewBox="0 0 158 128" fill="none" xmlns="http://www.w3.org/2000/svg">
<rect width="128" height="128" rx="51.2" fill="#1D222B"/>
<g opacity="0.2">
<circle cx="64" cy="64" r="46.375" fill="#0FA958" stroke="black" stroke-width="5.25"/>
<circle cx="64" cy="64" r="34.125" fill="#FFF4D9" stroke="black" stroke-width="5.25"/>
<path d="M63.125 85.8544C52.3833 85.3485 42.6515 75.6167 42.1456 64.875" stroke="black" stroke-width="5.25" stroke-linecap="round"/>
<path d="M61.375 45.625V61.375C61.375 64.2745 63.7255 66.625 66.625 66.625H79.75" stroke="black" stroke-width="5.25" stroke-linejoin="round"/>
<path d="M54.375 50.875C57.875 47.375 59.625 45.625 61.375 45.625C63.125 45.625 64.875 47.375 68.375 50.875" stroke="black" stroke-width="5.25" stroke-linecap="round"/>
<path d="M77.125 59.625C80.625 63.125 82.375 64.875 82.375 66.625C82.375 68.375 80.625 70.125 77.125 73.625" stroke="black" stroke-width="5.25" stroke-linecap="round"/>
</g>
<path d="M18.7273 73.1591C17.7803 73.1591 16.9678 73.0019 16.2898 72.6875C15.6117 72.3693 15.1117 71.9318 14.7898 71.375C14.4716 70.8182 14.375 70.178 14.5 69.4545H17.6364C17.5947 69.678 17.6231 69.8788 17.7216 70.0568C17.8239 70.2311 17.9792 70.3674 18.1875 70.4659C18.3958 70.5644 18.6364 70.6136 18.9091 70.6136C19.2348 70.6136 19.5284 70.5473 19.7898 70.4148C20.0549 70.2822 20.2708 70.1098 20.4375 69.8977C20.608 69.6856 20.7121 69.4621 20.75 69.2273C20.7917 68.9848 20.7519 68.7879 20.6307 68.6364C20.5095 68.4811 20.3295 68.3674 20.0909 68.2955C19.8523 68.2197 19.572 68.1818 19.25 68.1818H18L18.3636 66H19.4773C19.7992 66 20.0947 65.9413 20.3636 65.8239C20.6326 65.7064 20.8561 65.5455 21.0341 65.3409C21.2121 65.1326 21.322 64.8977 21.3636 64.6364C21.3977 64.4356 21.3807 64.2614 21.3125 64.1136C21.2481 63.9621 21.1326 63.8447 20.9659 63.7614C20.803 63.678 20.5871 63.6364 20.3182 63.6364C20.0265 63.6364 19.7462 63.6875 19.4773 63.7898C19.2083 63.892 18.983 64.0341 18.8011 64.2159C18.6193 64.3977 18.5114 64.6061 18.4773 64.8409H15.4773C15.5947 64.1288 15.8883 63.5 16.358 62.9545C16.8277 62.4091 17.4186 61.9811 18.1307 61.6705C18.8466 61.3598 19.6288 61.2045 20.4773 61.2045C21.3636 61.2045 22.1174 61.3674 22.7386 61.6932C23.3598 62.0189 23.8163 62.4508 24.108 62.9886C24.3996 63.5265 24.4924 64.1136 24.3864 64.75C24.2727 65.4356 23.964 65.9545 23.4602 66.3068C22.9564 66.6591 22.3258 66.8674 21.5682 66.9318V67.0227C22.3939 67.1174 23.0322 67.4205 23.483 67.9318C23.9337 68.4432 24.0985 69.072 23.9773 69.8182C23.875 70.4545 23.5814 71.0246 23.0966 71.5284C22.6117 72.0322 21.9905 72.4299 21.233 72.7216C20.4792 73.0133 19.6439 73.1591 18.7273 73.1591ZM37.2915 64.2727L35.8369 73H32.9051L34.3596 64.2727H37.2915ZM35.1551 67.8864L34.7687 70.2273C34.6551 70.2955 34.4619 70.3636 34.1892 70.4318C33.9203 70.4962 33.6399 70.5511 33.3483 70.5966C33.0566 70.6383 32.818 70.6591 32.6324 70.6591C31.2043 70.6591 30.1324 70.4053 29.4165 69.8977C28.7006 69.3902 28.4392 68.5455 28.6324 67.3636L29.1551 64.2727H32.0642L31.5415 67.3636C31.4998 67.6288 31.5055 67.8295 31.5585 67.9659C31.6153 68.1023 31.7555 68.1951 31.979 68.2443C32.2062 68.2936 32.5528 68.3182 33.0187 68.3182C33.3066 68.3182 33.621 68.2841 33.9619 68.2159C34.3066 68.1439 34.7043 68.0341 35.1551 67.8864ZM39.5743 73.1364C39.0212 73.1364 38.5459 73.0455 38.1481 72.8636C37.7542 72.678 37.4663 72.3977 37.2845 72.0227C37.1065 71.6439 37.0667 71.1667 37.1652 70.5909C37.2447 70.1136 37.3943 69.7064 37.614 69.3693C37.8337 69.0322 38.1065 68.7557 38.4322 68.5398C38.758 68.3239 39.1235 68.1591 39.5288 68.0455C39.9379 67.928 40.3697 67.8523 40.8243 67.8182C41.3167 67.7803 41.7163 67.733 42.0231 67.6761C42.33 67.6193 42.5591 67.5417 42.7106 67.4432C42.8621 67.3447 42.9531 67.2121 42.9834 67.0455V67.0227C43.0175 66.7955 42.9568 66.6212 42.8015 66.5C42.65 66.3788 42.4379 66.3182 42.1652 66.3182C41.8697 66.3182 41.614 66.3826 41.3981 66.5114C41.186 66.6402 41.0402 66.8409 40.9606 67.1136H38.0743C38.1955 66.5833 38.4436 66.0947 38.8186 65.6477C39.1974 65.197 39.6993 64.8371 40.3243 64.5682C40.9531 64.2955 41.7031 64.1591 42.5743 64.1591C43.1955 64.1591 43.7409 64.233 44.2106 64.3807C44.6803 64.5246 45.0686 64.7273 45.3754 64.9886C45.686 65.2462 45.9038 65.5492 46.0288 65.8977C46.1576 66.2424 46.1879 66.6174 46.1197 67.0227L45.1197 73H42.1879L42.3925 71.7727H42.3243C42.097 72.0985 41.8413 72.3617 41.5572 72.5625C41.2769 72.7633 40.9701 72.9091 40.6368 73C40.3072 73.0909 39.9531 73.1364 39.5743 73.1364ZM40.9379 71.1591C41.1728 71.1591 41.4038 71.1098 41.6311 71.0114C41.8584 70.9129 42.0534 70.7708 42.2163 70.5852C42.3792 70.3996 42.4834 70.1742 42.5288 69.9091L42.6425 69.1818C42.5591 69.2159 42.4663 69.2481 42.364 69.2784C42.2656 69.3049 42.1614 69.3314 42.0515 69.358C41.9455 69.3845 41.8318 69.4091 41.7106 69.4318C41.5932 69.4545 41.472 69.4773 41.347 69.5C41.097 69.5379 40.8868 69.6004 40.7163 69.6875C40.5459 69.7708 40.4133 69.875 40.3186 70C40.2239 70.1212 40.1652 70.2576 40.1425 70.4091C40.1084 70.6477 40.1633 70.8333 40.3072 70.9659C40.455 71.0947 40.6652 71.1591 40.9379 71.1591ZM50.6241 73.1591C49.6772 73.1591 48.8968 72.9716 48.2832 72.5966C47.6696 72.2178 47.2397 71.6913 46.9934 71.017C46.7472 70.339 46.6999 69.553 46.8514 68.6591C46.9953 67.7652 47.3022 66.9811 47.7718 66.3068C48.2453 65.6288 48.8514 65.1023 49.59 64.7273C50.3325 64.3485 51.1772 64.1591 52.1241 64.1591C52.9802 64.1591 53.6942 64.3144 54.2662 64.625C54.8419 64.9318 55.2529 65.3674 55.4991 65.9318C55.7491 66.4924 55.8135 67.1515 55.6923 67.9091H52.7832C52.8173 67.4545 52.7434 67.1061 52.5616 66.8636C52.3836 66.6212 52.1241 66.5 51.7832 66.5C51.5029 66.5 51.2453 66.5795 51.0105 66.7386C50.7794 66.8939 50.5806 67.1307 50.4139 67.4489C50.251 67.7633 50.1317 68.1591 50.0559 68.6364C49.9802 69.1136 49.9707 69.5114 50.0275 69.8295C50.0881 70.1439 50.2056 70.3807 50.3798 70.5398C50.5578 70.6951 50.7832 70.7727 51.0559 70.7727C51.2908 70.7727 51.5067 70.7197 51.7037 70.6136C51.9044 70.5038 52.0768 70.3447 52.2207 70.1364C52.3684 69.9242 52.4802 69.6667 52.5559 69.3636H55.465C55.3211 70.1364 55.0313 70.8068 54.5957 71.375C54.1601 71.9432 53.6052 72.3826 52.9309 72.6932C52.2567 73.0038 51.4878 73.1591 50.6241 73.1591ZM58.3785 73.1364C57.8255 73.1364 57.3501 73.0455 56.9524 72.8636C56.5584 72.678 56.2706 72.3977 56.0887 72.0227C55.9107 71.6439 55.8709 71.1667 55.9694 70.5909C56.049 70.1136 56.1986 69.7064 56.4183 69.3693C56.638 69.0322 56.9107 68.7557 57.2365 68.5398C57.5622 68.3239 57.9278 68.1591 58.3331 68.0455C58.7422 67.928 59.174 67.8523 59.6285 67.8182C60.1209 67.7803 60.5206 67.733 60.8274 67.6761C61.1342 67.6193 61.3634 67.5417 61.5149 67.4432C61.6664 67.3447 61.7573 67.2121 61.7876 67.0455V67.0227C61.8217 66.7955 61.7611 66.6212 61.6058 66.5C61.4543 66.3788 61.2422 66.3182 60.9694 66.3182C60.674 66.3182 60.4183 66.3826 60.2024 66.5114C59.9903 66.6402 59.8444 66.8409 59.7649 67.1136H56.8785C56.9997 66.5833 57.2478 66.0947 57.6228 65.6477C58.0016 65.197 58.5035 64.8371 59.1285 64.5682C59.7573 64.2955 60.5073 64.1591 61.3785 64.1591C61.9997 64.1591 62.5452 64.233 63.0149 64.3807C63.4846 64.5246 63.8728 64.7273 64.1797 64.9886C64.4903 65.2462 64.7081 65.5492 64.8331 65.8977C64.9619 66.2424 64.9922 66.6174 64.924 67.0227L63.924 73H60.9922L61.1967 71.7727H61.1285C60.9012 72.0985 60.6456 72.3617 60.3615 72.5625C60.0812 72.7633 59.7744 72.9091 59.441 73C59.1115 73.0909 58.7573 73.1364 58.3785 73.1364ZM59.7422 71.1591C59.977 71.1591 60.2081 71.1098 60.4353 71.0114C60.6626 70.9129 60.8577 70.7708 61.0206 70.5852C61.1834 70.3996 61.2876 70.1742 61.3331 69.9091L61.4467 69.1818C61.3634 69.2159 61.2706 69.2481 61.1683 69.2784C61.0698 69.3049 60.9656 69.3314 60.8558 69.358C60.7497 69.3845 60.6361 69.4091 60.5149 69.4318C60.3975 69.4545 60.2762 69.4773 60.1512 69.5C59.9012 69.5379 59.691 69.6004 59.5206 69.6875C59.3501 69.7708 59.2175 69.875 59.1228 70C59.0281 70.1212 58.9694 70.2576 58.9467 70.4091C58.9126 70.6477 58.9675 70.8333 59.1115 70.9659C59.2592 71.0947 59.4694 71.1591 59.7422 71.1591ZM67.0193 73.1818C66.5761 73.1818 66.2144 73.0284 65.9341 72.7216C65.6575 72.411 65.542 72.0341 65.5875 71.5909C65.6329 71.1591 65.828 70.7898 66.1727 70.483C66.5212 70.1761 66.917 70.0227 67.3602 70.0227C67.7806 70.0227 68.131 70.1761 68.4113 70.483C68.6954 70.7898 68.8147 71.1591 68.7693 71.5909C68.739 71.8864 68.6348 72.1553 68.4568 72.3977C68.2825 72.6364 68.0666 72.8277 67.8091 72.9716C67.5553 73.1117 67.292 73.1818 67.0193 73.1818ZM72.1531 73L72.5281 70.7273L77.4713 67.1364C77.8008 66.8977 78.0849 66.6742 78.3235 66.4659C78.566 66.2538 78.761 66.036 78.9088 65.8125C79.0565 65.589 79.1531 65.3409 79.1985 65.0682C79.2478 64.7689 79.225 64.5133 79.1303 64.3011C79.0394 64.0852 78.8917 63.9205 78.6872 63.8068C78.4826 63.6932 78.2364 63.6364 77.9485 63.6364C77.6569 63.6364 77.3898 63.6951 77.1474 63.8125C76.905 63.9299 76.7023 64.1023 76.5394 64.3295C76.3803 64.5568 76.2743 64.8333 76.2213 65.1591H73.2213C73.3576 64.3409 73.6588 63.6364 74.1247 63.0455C74.5944 62.4545 75.1891 62 75.9088 61.6818C76.6322 61.3636 77.4447 61.2045 78.3463 61.2045C79.2781 61.2045 80.0622 61.3542 80.6985 61.6534C81.3349 61.9489 81.7951 62.3655 82.0792 62.9034C82.3671 63.4413 82.4485 64.072 82.3235 64.7955C82.2478 65.2424 82.0792 65.6856 81.8178 66.125C81.5603 66.5644 81.1455 67.053 80.5735 67.5909C80.0053 68.125 79.2175 68.7614 78.2099 69.5L76.9713 70.4091L76.9599 70.4773H81.5053L81.0849 73H72.1531ZM87.2981 73.1591C86.6011 73.1591 85.9591 73.0473 85.372 72.8239C84.7848 72.6004 84.2905 72.25 83.889 71.7727C83.4875 71.2917 83.2129 70.6705 83.0651 69.9091C82.9174 69.1477 82.9345 68.2311 83.1163 67.1591C83.2716 66.2311 83.5273 65.4015 83.8833 64.6705C84.2394 63.9356 84.6769 63.3106 85.1958 62.7955C85.7148 62.2765 86.3 61.8826 86.9515 61.6136C87.603 61.3409 88.3019 61.2045 89.0481 61.2045C89.9117 61.2045 90.6485 61.3674 91.2583 61.6932C91.872 62.0152 92.3341 62.4508 92.6447 63C92.9553 63.5455 93.0898 64.1515 93.0481 64.8182H89.9799C89.9799 64.4811 89.8682 64.2424 89.6447 64.1023C89.4212 63.9583 89.1542 63.8864 88.8435 63.8864C88.1579 63.8864 87.5954 64.1894 87.156 64.7955C86.7167 65.3977 86.4079 66.1705 86.2299 67.1136L86.3208 66.9545C86.5292 66.5985 86.7981 66.2992 87.1276 66.0568C87.461 65.8144 87.8284 65.6307 88.2299 65.5057C88.6352 65.3807 89.0519 65.3182 89.4799 65.3182C90.2034 65.3182 90.8114 65.4848 91.3038 65.8182C91.7962 66.1515 92.1466 66.608 92.3549 67.1875C92.5632 67.767 92.6049 68.4242 92.4799 69.1591C92.3473 69.9697 92.0405 70.6742 91.5595 71.2727C91.0784 71.8712 90.4704 72.3352 89.7356 72.6648C89.0007 72.9943 88.1882 73.1591 87.2981 73.1591ZM87.4117 70.7727C87.7489 70.7727 88.0632 70.6951 88.3549 70.5398C88.6504 70.3807 88.8966 70.1648 89.0935 69.892C89.2905 69.6155 89.4117 69.303 89.4572 68.9545C89.5026 68.6591 89.4799 68.3996 89.389 68.1761C89.3019 67.9489 89.1579 67.7727 88.9572 67.6477C88.7564 67.5189 88.5064 67.4545 88.2072 67.4545C87.961 67.4545 87.7242 67.5 87.497 67.5909C87.2697 67.6818 87.0632 67.8087 86.8776 67.9716C86.692 68.1345 86.5367 68.3277 86.4117 68.5511C86.2867 68.7708 86.2034 69.0114 86.1617 69.2727C86.1201 69.5795 86.1447 69.8447 86.2356 70.0682C86.3265 70.2917 86.4723 70.4659 86.6731 70.5909C86.8776 70.7121 87.1239 70.7727 87.4117 70.7727ZM98.1207 73.3182C97.0601 73.3182 96.1832 73.0758 95.49 72.5909C94.7968 72.1023 94.3176 71.4015 94.0525 70.4886C93.7873 69.5758 93.7646 68.4811 93.9843 67.2045C94.204 65.9242 94.5961 64.8371 95.1604 63.9432C95.7286 63.0492 96.4332 62.3693 97.2741 61.9034C98.1188 61.4375 99.0676 61.2045 100.121 61.2045C101.174 61.2045 102.045 61.4375 102.734 61.9034C103.424 62.3693 103.903 63.0492 104.172 63.9432C104.441 64.8333 104.469 65.9205 104.257 67.2045C104.045 68.4848 103.655 69.5814 103.087 70.4943C102.522 71.4072 101.816 72.1061 100.967 72.5909C100.123 73.0758 99.1737 73.3182 98.1207 73.3182ZM98.5525 70.75C99.0979 70.75 99.5866 70.4659 100.018 69.8977C100.454 69.3258 100.776 68.428 100.984 67.2045C101.121 66.4091 101.153 65.7576 101.081 65.25C101.009 64.7386 100.854 64.3617 100.615 64.1193C100.376 63.8731 100.075 63.75 99.7116 63.75C99.1661 63.75 98.6699 64.0284 98.2229 64.5852C97.7798 65.1383 97.4578 66.0114 97.257 67.2045C97.1207 68.0227 97.0904 68.6932 97.1661 69.2159C97.2419 69.7386 97.401 70.125 97.6434 70.375C97.8858 70.625 98.1889 70.75 98.5525 70.75ZM114.712 69.1364H108.325L108.735 66.6818H115.007C115.413 66.6818 115.752 66.6326 116.024 66.5341C116.301 66.4318 116.515 66.2841 116.666 66.0909C116.822 65.8939 116.92 65.6515 116.962 65.3636C117.011 65.0909 116.994 64.8409 116.911 64.6136C116.831 64.3864 116.682 64.2045 116.462 64.0682C116.246 63.9318 115.958 63.8636 115.598 63.8636H113.871L112.348 73H109.212L111.144 61.3636H116.007C116.966 61.3636 117.776 61.5322 118.439 61.8693C119.106 62.2064 119.589 62.6723 119.888 63.267C120.191 63.8617 120.276 64.5455 120.144 65.3182C120.011 66.1515 119.691 66.8523 119.183 67.4205C118.676 67.9848 118.036 68.4129 117.263 68.7045C116.49 68.9924 115.64 69.1364 114.712 69.1364ZM115.439 69.6591L115.03 72.1136H107.848L108.257 69.6591H115.439Z" fill="#FFA629"/>
</svg>
