<svg width="128" height="128" viewBox="0 0 128 128" fill="none" xmlns="http://www.w3.org/2000/svg">
<rect width="128" height="128" rx="51.2" fill="#1D222B"/>
<g opacity="0.4" filter="url(#filter0_f_75_67)">
<circle cx="64" cy="64" r="46.375" fill="#0FA958" stroke="black" stroke-width="5.25"/>
<circle cx="64" cy="64" r="34.125" fill="#FFF4D9" stroke="black" stroke-width="5.25"/>
<path d="M63.125 85.8544C52.3833 85.3485 42.6515 75.6167 42.1456 64.875" stroke="black" stroke-width="5.25" stroke-linecap="round"/>
<path d="M61.375 45.625V61.375C61.375 64.2745 63.7255 66.625 66.625 66.625H79.75" stroke="black" stroke-width="5.25" stroke-linejoin="round"/>
<path d="M54.375 50.875C57.875 47.375 59.625 45.625 61.375 45.625C63.125 45.625 64.875 47.375 68.375 50.875" stroke="black" stroke-width="5.25" stroke-linecap="round"/>
<path d="M77.125 59.625C80.625 63.125 82.375 64.875 82.375 66.625C82.375 68.375 80.625 70.125 77.125 73.625" stroke="black" stroke-width="5.25" stroke-linecap="round"/>
</g>
<g filter="url(#filter1_d_75_67)">
<path d="M28.7973 56.2486C27.3177 56.2486 26.0481 56.003 24.9887 55.5117C23.9293 55.0146 23.148 54.331 22.645 53.4609C22.1478 52.5909 21.9969 51.5907 22.1922 50.4602H27.0928C27.0277 50.8094 27.072 51.1231 27.2259 51.4013C27.3857 51.6735 27.6284 51.8866 27.9539 52.0405C28.2794 52.1944 28.6553 52.2713 29.0814 52.2713C29.5904 52.2713 30.0491 52.1677 30.4575 51.9606C30.8718 51.7534 31.2091 51.4841 31.4695 51.1527C31.7359 50.8213 31.8986 50.4721 31.9578 50.1051C32.0229 49.7263 31.9608 49.4186 31.7714 49.1818C31.582 48.9392 31.3009 48.7616 30.928 48.6491C30.5551 48.5308 30.1171 48.4716 29.6141 48.4716H27.6609L28.2291 45.0625H29.9692C30.4723 45.0625 30.9339 44.9708 31.3541 44.7873C31.7743 44.6038 32.1235 44.3523 32.4017 44.0327C32.6799 43.7071 32.8515 43.3402 32.9166 42.9318C32.9699 42.6181 32.9433 42.3459 32.8367 42.1151C32.7361 41.8783 32.5556 41.6948 32.2952 41.5646C32.0407 41.4344 31.7033 41.3693 31.2831 41.3693C30.8274 41.3693 30.3894 41.4492 29.9692 41.609C29.549 41.7688 29.1968 41.9908 28.9127 42.2749C28.6286 42.5589 28.4599 42.8845 28.4067 43.2514H23.7192C23.9027 42.1387 24.3613 41.1562 25.0952 40.304C25.8291 39.4517 26.7524 38.7829 27.8651 38.2976C28.9837 37.8123 30.2059 37.5696 31.5317 37.5696C32.9166 37.5696 34.0944 37.8241 35.0651 38.3331C36.0357 38.8421 36.7489 39.5168 37.2046 40.3572C37.6603 41.1977 37.8054 42.1151 37.6396 43.1094C37.4621 44.1806 36.9797 44.9915 36.1925 45.5419C35.4054 46.0923 34.4199 46.4179 33.2362 46.5185V46.6605C34.5265 46.8085 35.5237 47.282 36.2281 48.081C36.9324 48.88 37.1898 49.8625 37.0004 51.0284C36.8406 52.0227 36.3819 52.9135 35.6244 53.7006C34.8668 54.4878 33.8961 55.1093 32.7124 55.565C31.5346 56.0207 30.2296 56.2486 28.7973 56.2486ZM57.8039 42.3636L55.5311 56H50.9502L53.2229 42.3636H57.8039ZM54.4658 48.0099L53.8621 51.6676C53.6845 51.7741 53.3827 51.8807 52.9566 51.9872C52.5363 52.0878 52.0984 52.1737 51.6426 52.2447C51.1869 52.3098 50.814 52.3423 50.524 52.3423C48.2927 52.3423 46.6178 51.9458 45.4992 51.1527C44.3806 50.3596 43.9722 49.0398 44.274 47.1932L45.0908 42.3636H49.6362L48.8195 47.1932C48.7544 47.6075 48.7633 47.9212 48.8461 48.1342C48.9349 48.3473 49.1539 48.4923 49.5031 48.5692C49.8582 48.6462 50.3997 48.6847 51.1277 48.6847C51.5775 48.6847 52.0688 48.6314 52.6014 48.5249C53.14 48.4124 53.7615 48.2408 54.4658 48.0099ZM61.3707 56.2131C60.5066 56.2131 59.7638 56.071 59.1424 55.7869C58.5269 55.4969 58.0771 55.0589 57.793 54.473C57.5148 53.8812 57.4527 53.1354 57.6065 52.2358C57.7308 51.4901 57.9646 50.8538 58.3079 50.3271C58.6512 49.8003 59.0773 49.3683 59.5863 49.0309C60.0953 48.6935 60.6664 48.4361 61.2997 48.2585C61.9389 48.075 62.6136 47.9567 63.3239 47.9034C64.0933 47.8442 64.7177 47.7702 65.1971 47.6815C65.6765 47.5927 66.0346 47.4714 66.2713 47.3175C66.508 47.1636 66.6501 46.9564 66.6974 46.696V46.6605C66.7507 46.3054 66.656 46.0331 66.4134 45.8438C66.1766 45.6544 65.8452 45.5597 65.419 45.5597C64.9574 45.5597 64.5579 45.6603 64.2205 45.8615C63.8891 46.0627 63.6612 46.3764 63.5369 46.8026H59.027C59.2164 45.974 59.604 45.2105 60.19 44.5121C60.7818 43.8078 61.5661 43.2455 62.5426 42.8253C63.5251 42.3991 64.697 42.1861 66.0582 42.1861C67.0289 42.1861 67.8812 42.3015 68.6151 42.5323C69.349 42.7572 69.9556 43.0739 70.435 43.4822C70.9203 43.8847 71.2607 44.3582 71.456 44.9027C71.6572 45.4413 71.7045 46.0272 71.598 46.6605L70.0355 56H65.4545L65.7741 54.0824H65.6676C65.3125 54.5914 64.913 55.0027 64.4691 55.3164C64.0311 55.6301 63.5517 55.858 63.0309 56C62.516 56.142 61.9626 56.2131 61.3707 56.2131ZM63.5014 53.1236C63.8684 53.1236 64.2294 53.0466 64.5845 52.8928C64.9396 52.7389 65.2444 52.5169 65.4989 52.2269C65.7534 51.9369 65.9162 51.5848 65.9872 51.1705L66.1648 50.0341C66.0346 50.0874 65.8896 50.1377 65.7298 50.185C65.5759 50.2264 65.4131 50.2679 65.2415 50.3093C65.0758 50.3507 64.8982 50.3892 64.7088 50.4247C64.5253 50.4602 64.3359 50.4957 64.1406 50.5312C63.75 50.5904 63.4215 50.6881 63.1552 50.8242C62.8888 50.9544 62.6817 51.1172 62.5337 51.3125C62.3858 51.5019 62.294 51.715 62.2585 51.9517C62.2053 52.3246 62.2911 52.6146 62.516 52.8217C62.7468 53.023 63.0753 53.1236 63.5014 53.1236ZM78.6361 56.2486C77.1565 56.2486 75.9373 55.9556 74.9785 55.3697C74.0197 54.7778 73.3479 53.9551 72.9632 52.9016C72.5785 51.8422 72.5045 50.6141 72.7412 49.2173C72.9662 47.8205 73.4456 46.5954 74.1795 45.5419C74.9193 44.4825 75.8662 43.6598 77.0204 43.0739C78.1804 42.482 79.5002 42.1861 80.9799 42.1861C82.3175 42.1861 83.4331 42.4287 84.3268 42.9141C85.2264 43.3935 85.8686 44.0741 86.2533 44.956C86.6439 45.8319 86.7446 46.8617 86.5552 48.0455H82.0097C82.063 47.3352 81.9476 46.7907 81.6635 46.4119C81.3853 46.0331 80.9799 45.8438 80.4472 45.8438C80.0092 45.8438 79.6068 45.968 79.2398 46.2166C78.8788 46.4593 78.5681 46.8292 78.3077 47.3263C78.0532 47.8176 77.8667 48.4361 77.7483 49.1818C77.63 49.9276 77.6152 50.549 77.704 51.0462C77.7987 51.5374 77.9821 51.9073 78.2544 52.1559C78.5326 52.3986 78.8847 52.5199 79.3108 52.5199C79.6778 52.5199 80.0152 52.437 80.3229 52.2713C80.6366 52.0997 80.9059 51.8511 81.1308 51.5256C81.3616 51.1941 81.5362 50.7917 81.6546 50.3182H86.2001C85.9751 51.5256 85.5224 52.5732 84.8417 53.4609C84.1611 54.3487 83.294 55.0353 82.2405 55.5206C81.187 56.0059 79.9856 56.2486 78.6361 56.2486ZM90.7524 56.2131C89.8883 56.2131 89.1455 56.071 88.524 55.7869C87.9085 55.4969 87.4587 55.0589 87.1746 54.473C86.8964 53.8812 86.8343 53.1354 86.9882 52.2358C87.1125 51.4901 87.3462 50.8538 87.6895 50.3271C88.0328 49.8003 88.4589 49.3683 88.9679 49.0309C89.4769 48.6935 90.0481 48.4361 90.6814 48.2585C91.3206 48.075 91.9953 47.9567 92.7055 47.9034C93.4749 47.8442 94.0993 47.7702 94.5787 47.6815C95.0581 47.5927 95.4162 47.4714 95.6529 47.3175C95.8897 47.1636 96.0317 46.9564 96.0791 46.696V46.6605C96.1323 46.3054 96.0377 46.0331 95.795 45.8438C95.5582 45.6544 95.2268 45.5597 94.8007 45.5597C94.339 45.5597 93.9395 45.6603 93.6022 45.8615C93.2707 46.0627 93.0429 46.3764 92.9186 46.8026H88.4086C88.598 45.974 88.9857 45.2105 89.5716 44.5121C90.1635 43.8078 90.9477 43.2455 91.9243 42.8253C92.9067 42.3991 94.0786 42.1861 95.4399 42.1861C96.4105 42.1861 97.2628 42.3015 97.9967 42.5323C98.7306 42.7572 99.3372 43.0739 99.8167 43.4822C100.302 43.8847 100.642 44.3582 100.838 44.9027C101.039 45.4413 101.086 46.0272 100.98 46.6605L99.4172 56H94.8362L95.1558 54.0824H95.0493C94.6941 54.5914 94.2946 55.0027 93.8507 55.3164C93.4128 55.6301 92.9334 55.858 92.4125 56C91.8976 56.142 91.3442 56.2131 90.7524 56.2131ZM92.8831 53.1236C93.25 53.1236 93.611 53.0466 93.9662 52.8928C94.3213 52.7389 94.6261 52.5169 94.8806 52.2269C95.1351 51.9369 95.2978 51.5848 95.3689 51.1705L95.5464 50.0341C95.4162 50.0874 95.2712 50.1377 95.1114 50.185C94.9575 50.2264 94.7948 50.2679 94.6231 50.3093C94.4574 50.3507 94.2798 50.3892 94.0904 50.4247C93.907 50.4602 93.7176 50.4957 93.5223 50.5312C93.1316 50.5904 92.8032 50.6881 92.5368 50.8242C92.2705 50.9544 92.0633 51.1172 91.9154 51.3125C91.7674 51.5019 91.6757 51.715 91.6402 51.9517C91.5869 52.3246 91.6727 52.6146 91.8976 52.8217C92.1284 53.023 92.4569 53.1236 92.8831 53.1236ZM104.254 56.2841C103.561 56.2841 102.996 56.0444 102.558 55.565C102.126 55.0797 101.945 54.4908 102.016 53.7983C102.087 53.1236 102.392 52.5465 102.931 52.0671C103.475 51.5877 104.094 51.348 104.786 51.348C105.443 51.348 105.991 51.5877 106.429 52.0671C106.873 52.5465 107.059 53.1236 106.988 53.7983C106.941 54.2599 106.778 54.6802 106.5 55.0589C106.227 55.4318 105.89 55.7307 105.488 55.9556C105.091 56.1746 104.68 56.2841 104.254 56.2841ZM30.8929 94L31.4788 90.4489L39.2026 84.8381C39.7175 84.4652 40.1614 84.116 40.5342 83.7905C40.913 83.459 41.2178 83.1187 41.4487 82.7695C41.6795 82.4203 41.8304 82.0327 41.9014 81.6065C41.9784 81.139 41.9429 80.7395 41.7949 80.408C41.6528 80.0707 41.422 79.8132 41.1024 79.6357C40.7828 79.4581 40.3981 79.3693 39.9483 79.3693C39.4926 79.3693 39.0753 79.4611 38.6965 79.6445C38.3177 79.828 38.0011 80.0973 37.7466 80.4524C37.498 80.8075 37.3323 81.2396 37.2494 81.7486H32.5619C32.775 80.4702 33.2455 79.3693 33.9735 78.446C34.7074 77.5227 35.6366 76.8125 36.7612 76.3153C37.8916 75.8182 39.1611 75.5696 40.5697 75.5696C42.0257 75.5696 43.2509 75.8034 44.2452 76.271C45.2395 76.7326 45.9586 77.3836 46.4025 78.2241C46.8523 79.0645 46.9795 80.05 46.7842 81.1804C46.6659 81.8788 46.4025 82.5713 45.9941 83.2578C45.5916 83.9444 44.9436 84.7079 44.0499 85.5483C43.1621 86.3828 41.931 87.3771 40.3567 88.5312L38.4213 89.9517L38.4036 90.0582H45.5058L44.8489 94H30.8929ZM54.557 94.2486C53.468 94.2486 52.4648 94.074 51.5474 93.7248C50.63 93.3756 49.8577 92.8281 49.2303 92.0824C48.6029 91.3307 48.1738 90.3601 47.943 89.1705C47.7122 87.9808 47.7388 86.5485 48.0229 84.8736C48.2656 83.4235 48.6651 82.1274 49.2214 80.9851C49.7778 79.8369 50.4614 78.8603 51.2722 78.0554C52.083 77.2446 52.9975 76.629 54.0154 76.2088C55.0334 75.7827 56.1254 75.5696 57.2914 75.5696C58.6408 75.5696 59.792 75.8241 60.7449 76.3331C61.7037 76.8362 62.4257 77.5168 62.911 78.375C63.3964 79.2273 63.6065 80.1742 63.5414 81.2159H58.7473C58.7473 80.6892 58.5727 80.3163 58.2235 80.0973C57.8743 79.8724 57.4571 79.7599 56.9718 79.7599C55.9005 79.7599 55.0216 80.2334 54.335 81.1804C53.6485 82.1214 53.1661 83.3288 52.888 84.8026L53.03 84.554C53.3555 83.9976 53.7757 83.5301 54.2907 83.1513C54.8115 82.7725 55.3856 82.4854 56.013 82.2901C56.6462 82.0948 57.2973 81.9972 57.9661 81.9972C59.0965 81.9972 60.0465 82.2576 60.8159 82.7784C61.5853 83.2992 62.1328 84.0124 62.4583 84.918C62.7838 85.8235 62.8489 86.8504 62.6536 87.9986C62.4464 89.2652 61.967 90.366 61.2154 91.3011C60.4637 92.2363 59.5138 92.9613 58.3656 93.4762C57.2174 93.9911 55.9479 94.2486 54.557 94.2486ZM54.7346 90.5199C55.2613 90.5199 55.7525 90.3986 56.2083 90.1559C56.6699 89.9073 57.0546 89.57 57.3624 89.1438C57.6702 88.7118 57.8596 88.2235 57.9306 87.679C58.0016 87.2173 57.9661 86.8119 57.824 86.4627C57.6879 86.1076 57.463 85.8324 57.1493 85.6371C56.8356 85.4358 56.445 85.3352 55.9775 85.3352C55.5927 85.3352 55.2228 85.4062 54.8677 85.5483C54.5126 85.6903 54.19 85.8886 53.9 86.1431C53.61 86.3976 53.3674 86.6995 53.1721 87.0487C52.9767 87.3919 52.8465 87.7678 52.7814 88.1761C52.7163 88.6555 52.7548 89.0698 52.8968 89.419C53.0389 89.7682 53.2667 90.0405 53.5804 90.2358C53.9 90.4252 54.2847 90.5199 54.7346 90.5199ZM71.4673 94.4972C69.8101 94.4972 68.4399 94.1184 67.3568 93.3608C66.2737 92.5973 65.525 91.5024 65.1107 90.076C64.6964 88.6496 64.6609 86.9392 65.0042 84.9446C65.3475 82.9441 65.9601 81.2455 66.8419 79.8487C67.7297 78.4519 68.8306 77.3896 70.1445 76.6616C71.4643 75.9336 72.9469 75.5696 74.5923 75.5696C76.2376 75.5696 77.5989 75.9336 78.6761 76.6616C79.7533 77.3896 80.502 78.4519 80.9222 79.8487C81.3424 81.2396 81.3868 82.9382 81.0553 84.9446C80.7239 86.9451 80.1143 88.6585 79.2265 90.0849C78.3446 91.5112 77.2408 92.6032 75.9151 93.3608C74.5952 94.1184 73.1126 94.4972 71.4673 94.4972ZM72.142 90.4844C72.9943 90.4844 73.7578 90.0405 74.4325 89.1527C75.1131 88.259 75.6162 86.8563 75.9417 84.9446C76.1548 83.7017 76.2051 82.6837 76.0926 81.8906C75.9802 81.0916 75.7375 80.5027 75.3646 80.1239C74.9918 79.7392 74.5213 79.5469 73.9531 79.5469C73.1008 79.5469 72.3255 79.9819 71.6271 80.8519C70.9346 81.716 70.4315 83.0803 70.1178 84.9446C69.9048 86.223 69.8574 87.2706 69.9758 88.0874C70.0942 88.9041 70.3427 89.5078 70.7215 89.8984C71.1003 90.2891 71.5738 90.4844 72.142 90.4844ZM97.391 87.9631H87.4123L88.0515 84.1278H97.8526C98.4859 84.1278 99.0156 84.0509 99.4418 83.897C99.8738 83.7372 100.208 83.5064 100.445 83.2045C100.688 82.8968 100.842 82.518 100.907 82.0682C100.984 81.642 100.957 81.2514 100.827 80.8963C100.702 80.5412 100.469 80.2571 100.125 80.044C99.788 79.831 99.3382 79.7244 98.7759 79.7244H96.0771L93.6978 94H88.7973L91.8157 75.8182H99.4151C100.913 75.8182 102.179 76.0816 103.215 76.6083C104.257 77.1351 105.011 77.863 105.479 78.7923C105.952 79.7215 106.085 80.7898 105.878 81.9972C105.671 83.2992 105.171 84.3942 104.378 85.282C103.585 86.1638 102.585 86.8326 101.377 87.2884C100.17 87.7382 98.841 87.9631 97.391 87.9631ZM98.5274 88.7798L97.8882 92.6151H86.6666L87.3058 88.7798H98.5274Z" fill="#FF9500"/>
</g>
<defs>
<filter id="filter0_f_75_67" x="4" y="4" width="120" height="120" filterUnits="userSpaceOnUse" color-interpolation-filters="sRGB">
<feFlood flood-opacity="0" result="BackgroundImageFix"/>
<feBlend mode="normal" in="SourceGraphic" in2="BackgroundImageFix" result="shape"/>
<feGaussianBlur stdDeviation="2" result="effect1_foregroundBlur_75_67"/>
</filter>
<filter id="filter1_d_75_67" x="17.8992" y="37.5696" width="93.1953" height="64.9276" filterUnits="userSpaceOnUse" color-interpolation-filters="sRGB">
<feFlood flood-opacity="0" result="BackgroundImageFix"/>
<feColorMatrix in="SourceAlpha" type="matrix" values="0 0 0 0 0 0 0 0 0 0 0 0 0 0 0 0 0 0 127 0" result="hardAlpha"/>
<feOffset dy="4"/>
<feGaussianBlur stdDeviation="2"/>
<feComposite in2="hardAlpha" operator="out"/>
<feColorMatrix type="matrix" values="0 0 0 0 0 0 0 0 0 0 0 0 0 0 0 0 0 0 0.25 0"/>
<feBlend mode="normal" in2="BackgroundImageFix" result="effect1_dropShadow_75_67"/>
<feBlend mode="normal" in="SourceGraphic" in2="effect1_dropShadow_75_67" result="shape"/>
</filter>
</defs>
</svg>
