<svg width="102" height="101" viewBox="0 0 102 101" fill="none" xmlns="http://www.w3.org/2000/svg">
<g filter="url(#filter0_b_2_67)">
<rect width="81" height="75" rx="25" fill="black" fill-opacity="0.84"/>
</g>
<circle cx="41" cy="37" r="26.5" fill="#0FA958" stroke="black" stroke-width="3"/>
<circle cx="41" cy="37" r="19.5" fill="#FFF4D9" stroke="black" stroke-width="3"/>
<path d="M40.5 49.4882C34.3619 49.1991 28.8008 43.6381 28.5118 37.5" stroke="black" stroke-width="3" stroke-linecap="round"/>
<path d="M39.5 26.5V35.5C39.5 37.1569 40.8431 38.5 42.5 38.5H50" stroke="black" stroke-width="3" stroke-linejoin="round"/>
<path d="M35.5 29.5C37.5 27.5 38.5 26.5 39.5 26.5C40.5 26.5 41.5 27.5 43.5 29.5" stroke="black" stroke-width="3" stroke-linecap="round"/>
<path d="M48.5 34.5C50.5 36.5 51.5 37.5 51.5 38.5C51.5 39.5 50.5 40.5 48.5 42.5" stroke="black" stroke-width="3" stroke-linecap="round"/>
<defs>
<filter id="filter0_b_2_67" x="-4" y="-4" width="89" height="83" filterUnits="userSpaceOnUse" color-interpolation-filters="sRGB">
<feFlood flood-opacity="0" result="BackgroundImageFix"/>
<feGaussianBlur in="BackgroundImage" stdDeviation="2"/>
<feComposite in2="SourceAlpha" operator="in" result="effect1_backgroundBlur_2_67"/>
<feBlend mode="normal" in="SourceGraphic" in2="effect1_backgroundBlur_2_67" result="shape"/>
</filter>
</defs>
</svg>
